<svg width="129" height="40" viewBox="0 0 129 40" fill="none" xmlns="http://www.w3.org/2000/svg">
<g clip-path="url(#clip0_90_3469)">
<path d="M124.323 40H4.01083C1.805 40 0 38.2 0 36V4C0 1.8 1.805 0 4.01083 0H124.323C126.527 0 128.333 1.8 128.333 4V36C128.333 38.2 126.528 40 124.322 40H124.323Z" fill="black"/>
<path d="M27.07 19.7996C27.07 16.6996 29.6767 15.1996 29.7775 15.0996C28.2733 12.9996 26.0675 12.6996 25.2658 12.5996C23.3608 12.3996 21.4558 13.6996 20.5533 13.6996C19.5508 13.6996 18.0467 12.5996 16.4425 12.5996C14.3375 12.5996 12.4325 13.7996 11.3292 15.6996C9.12335 19.4996 10.7275 25.0996 12.8333 28.1996C13.9358 29.6996 15.1392 31.3996 16.7433 31.2996C18.3475 31.1996 18.9492 30.2996 20.8542 30.2996C22.7592 30.2996 23.2608 31.2996 24.965 31.2996C26.6692 31.2996 27.7725 29.7996 28.775 28.2996C29.9775 26.5996 30.4792 24.8996 30.4792 24.7996C30.3792 24.6996 27.07 23.4996 27.07 19.7996ZM23.9625 10.5996C24.7642 9.49961 25.3658 8.09961 25.2658 6.59961C24.0625 6.69961 22.4583 7.39961 21.6567 8.49961C20.8542 9.39961 20.1525 10.8996 20.3525 12.2996C21.6567 12.3996 23.06 11.5996 23.9625 10.5996ZM49.93 31.0996H47.7242L46.5208 27.2996H42.31L41.2067 31.0996H39.1017L43.3125 18.1996H45.9192L49.93 31.0996ZM46.12 25.6996L45.0167 22.2996C44.9167 21.9996 44.7167 21.0996 44.315 19.8996C44.215 20.3996 44.015 21.2996 43.7133 22.2996L42.6108 25.6996H46.1192H46.12ZM60.6583 26.3996C60.6583 27.9996 60.2567 29.1996 59.3542 30.1996C58.5525 30.9996 57.65 31.3996 56.4458 31.3996C55.2433 31.3996 54.3408 30.9996 53.84 30.0996V34.9996H51.7333V24.9996C51.7333 23.9996 51.7333 22.9996 51.6333 21.8996H53.4383L53.5383 23.3996C54.24 22.2996 55.2425 21.6996 56.6467 21.6996C57.7492 21.6996 58.6517 22.0996 59.3533 22.9996C60.2558 23.7996 60.6567 24.8996 60.6567 26.3996H60.6583ZM58.5517 26.3996C58.5517 25.4996 58.3517 24.6996 57.9508 24.1996C57.5492 23.5996 56.9483 23.2996 56.1458 23.2996C55.6442 23.2996 55.1433 23.4996 54.7425 23.7996C54.3408 24.0996 54.04 24.5996 53.94 25.0996C53.84 25.3996 53.84 25.5996 53.84 25.6996V27.2996C53.84 27.9996 54.04 28.4996 54.4417 28.9996C54.8417 29.4996 55.4442 29.6996 56.0458 29.6996C56.8475 29.6996 57.4492 29.3996 57.85 28.7996C58.3517 28.1996 58.5517 27.3996 58.5517 26.3996ZM71.385 26.3996C71.385 27.9996 70.985 29.1996 70.0817 30.1996C69.28 30.9996 68.3775 31.3996 67.1742 31.3996C65.9717 31.3996 65.0692 30.9996 64.5675 30.0996V34.9996H62.4625V24.9996C62.4625 23.9996 62.4625 22.9996 62.3625 21.8996H64.1667L64.2667 23.3996C64.9692 22.2996 65.9717 21.6996 67.375 21.6996C68.4775 21.6996 69.38 22.0996 70.0817 22.9996C70.9842 23.7996 71.385 24.8996 71.385 26.3996ZM69.28 26.3996C69.28 25.4996 69.08 24.6996 68.6783 24.1996C68.2775 23.5996 67.6758 23.2996 66.8733 23.2996C66.3725 23.2996 65.8708 23.4996 65.47 23.7996C65.0692 24.0996 64.7683 24.5996 64.6683 25.0996C64.5683 25.3996 64.5683 25.5996 64.5683 25.6996V27.2996C64.5683 27.9996 64.7683 28.4996 65.1692 28.9996C65.57 29.4996 66.1717 29.6996 66.7733 29.6996C67.5758 29.6996 68.1767 29.3996 68.5783 28.7996C69.0792 28.1996 69.28 27.3996 69.28 26.3996ZM83.4167 27.4996C83.4167 28.5996 83.0158 29.4996 82.3142 30.1996C81.5117 30.9996 80.3083 31.2996 78.805 31.2996C77.4008 31.2996 76.2983 30.9996 75.4967 30.4996L75.9967 28.7996C76.9 29.2996 77.9025 29.5996 79.005 29.5996C79.8075 29.5996 80.4092 29.3996 80.81 29.0996C81.2108 28.6996 81.4117 28.2996 81.4117 27.6996C81.4117 27.1996 81.2117 26.6996 80.91 26.3996C80.5092 25.9996 79.9075 25.6996 79.1058 25.3996C76.7992 24.5996 75.6967 23.2996 75.6967 21.6996C75.6967 20.5996 76.0975 19.7996 76.9 19.0996C77.7017 18.3996 78.7042 18.0996 80.1083 18.0996C81.3108 18.0996 82.2133 18.2996 83.0158 18.6996L82.5142 20.3996C81.8125 19.9996 81.0108 19.7996 80.0075 19.7996C79.3058 19.7996 78.7042 19.9996 78.3033 20.2996C78.0033 20.5996 77.8017 20.9996 77.8017 21.4996C77.8017 21.9996 78.0025 22.3996 78.4033 22.7996C78.7042 23.0996 79.4058 23.3996 80.3083 23.7996C81.2522 24.1404 82.1085 24.687 82.815 25.3996C83.1158 25.8996 83.4167 26.5996 83.4167 27.4996ZM90.2342 23.3996H87.9283V27.8996C87.9283 28.9996 88.3292 29.5996 89.1317 29.5996C89.5325 29.5996 89.8333 29.5996 90.0342 29.4996L90.1342 31.0996C89.7333 31.2996 89.2317 31.2996 88.53 31.2996C87.7275 31.2996 87.0258 31.0996 86.625 30.5996C86.1233 30.0996 85.9233 29.2996 85.9233 28.0996V23.3996H84.5192V21.7996H85.9233V20.0996L87.9283 19.4996V21.7996H90.2342V23.3996ZM100.561 26.3996C100.561 27.7996 100.161 28.9996 99.3583 29.8996C98.4558 30.7996 97.3525 31.2996 95.95 31.2996C94.5458 31.2996 93.4425 30.7996 92.6408 29.8996C91.8383 28.9996 91.4375 27.8996 91.4375 26.4996C91.4375 25.0996 91.8383 23.8996 92.7408 22.9996C93.5433 22.0996 94.7458 21.5996 96.1492 21.5996C97.5533 21.5996 98.6558 22.0996 99.4583 22.9996C100.16 23.8996 100.561 24.9996 100.561 26.3996ZM98.3558 26.4996C98.3558 25.5996 98.155 24.8996 97.7542 24.2996C97.5651 23.9617 97.2883 23.6811 96.953 23.4875C96.6177 23.2939 96.2363 23.1944 95.8492 23.1996C95.462 23.1944 95.0806 23.2939 94.7453 23.4875C94.41 23.6811 94.1332 23.9617 93.9442 24.2996C93.5433 24.8996 93.3425 25.6996 93.3425 26.4996C93.3425 27.3996 93.5425 28.0996 93.9442 28.6996C94.1332 29.0375 94.41 29.3181 94.7453 29.5117C95.0806 29.7053 95.462 29.8048 95.8492 29.7996C96.6508 29.7996 97.2525 29.3996 97.7542 28.6996C98.1542 28.0996 98.3558 27.2996 98.3558 26.4996ZM107.278 23.5996C107.078 23.5996 106.878 23.4996 106.577 23.4996C105.875 23.4996 105.273 23.7996 104.873 24.2996C104.572 24.7996 104.371 25.3996 104.371 26.0996V30.9996H102.266V24.5996C102.266 23.4996 102.266 22.5996 102.166 21.6996H103.97L104.07 23.4996H104.17C104.371 22.8996 104.773 22.3996 105.173 21.9996C105.674 21.6996 106.176 21.4996 106.677 21.4996H107.178V23.5996H107.278ZM116.503 25.9996C116.503 26.3996 116.503 26.6996 116.403 26.8996H110.186C110.186 27.7996 110.487 28.4996 111.088 28.9996C111.59 29.3996 112.292 29.6996 113.093 29.6996C113.996 29.6996 114.898 29.5996 115.6 29.2996L115.901 30.6996C114.998 31.0996 113.996 31.2996 112.793 31.2996C111.389 31.2996 110.186 30.8996 109.384 29.9996C108.582 29.1996 108.181 27.9996 108.181 26.5996C108.181 25.1996 108.582 23.9996 109.284 23.0996C110.086 22.0996 111.189 21.5996 112.592 21.5996C113.896 21.5996 114.998 22.0996 115.601 23.0996C116.302 23.8996 116.503 24.8996 116.503 25.9996ZM114.598 25.4996C114.598 24.8996 114.497 24.3996 114.197 23.8996C113.796 23.2996 113.294 22.9996 112.592 22.9996C111.891 22.9996 111.389 23.2996 110.988 23.7996C110.688 24.1996 110.487 24.7996 110.387 25.3996H114.598V25.4996ZM45.5183 10.2996C45.5183 11.3996 45.2175 12.2996 44.5158 12.8996C43.9142 13.3996 43.0117 13.6996 41.8083 13.6996C41.2067 13.6996 40.7058 13.6996 40.305 13.5996V7.39961C40.8058 7.29961 41.4075 7.29961 42.1092 7.29961C43.2125 7.29961 44.0142 7.49961 44.6158 7.99961C45.1175 8.49961 45.5183 9.29961 45.5183 10.2996ZM44.415 10.2996C44.415 9.59961 44.215 8.99961 43.8142 8.59961C43.4125 8.19961 42.8108 7.99961 42.1092 7.99961C41.8092 7.99961 41.5075 7.99961 41.3075 8.09961V12.7996H42.0092C42.8108 12.7996 43.4125 12.5996 43.8142 12.1996C44.2142 11.7996 44.415 11.0996 44.415 10.2996ZM51.1333 11.2996C51.1333 11.9996 50.9325 12.5996 50.5317 12.9996C50.13 13.4996 49.5283 13.6996 48.8267 13.6996C48.125 13.6996 47.6233 13.4996 47.2225 12.9996C46.8217 12.5996 46.6208 11.9996 46.6208 11.2996C46.6208 10.5996 46.8208 9.99961 47.2225 9.59961C47.6233 9.09961 48.225 8.89961 48.9267 8.89961C49.6292 8.89961 50.13 9.09961 50.5308 9.59961C50.9325 9.99961 51.1333 10.5996 51.1333 11.2996ZM50.13 11.2996C50.13 10.8996 50.03 10.4996 49.83 10.1996C49.6292 9.79961 49.3284 9.69961 48.9267 9.69961C48.5267 9.69961 48.225 9.89961 48.025 10.1996C47.825 10.4996 47.7242 10.8996 47.7242 11.2996C47.7242 11.6996 47.8242 12.0996 48.0242 12.3996C48.225 12.7996 48.5258 12.8996 48.9275 12.8996C49.3275 12.8996 49.6292 12.6996 49.8292 12.2996C50.0292 12.0996 50.13 11.6996 50.13 11.2996ZM58.8525 8.99961L57.4492 13.5996H56.5467L55.945 11.5996C55.745 11.0996 55.645 10.5996 55.545 10.0996C55.4442 10.5996 55.3433 11.0996 55.1433 11.5996L54.5417 13.5996H53.6392L52.135 8.99961H53.1383L53.6392 11.1996L53.94 12.6996C54.04 12.2996 54.14 11.7996 54.3408 11.1996L54.9425 8.99961H55.745L56.3467 11.0996C56.5467 11.5996 56.6467 12.0996 56.7467 12.5996L57.0483 11.0996L57.65 8.99961H58.8525ZM64.0667 13.5996H63.0642V10.9996C63.0642 10.1996 62.7633 9.79961 62.1617 9.79961C61.8608 9.79961 61.66 9.89961 61.46 10.0996C61.2592 10.2996 61.1592 10.5996 61.1592 10.8996V13.5996H60.1558V8.99961H61.0583V9.69961C61.1583 9.49961 61.3592 9.29961 61.56 9.09961C61.86 8.89961 62.1617 8.79961 62.4625 8.79961C62.8625 8.79961 63.2642 8.89961 63.565 9.19961C63.9658 9.49961 64.0667 9.99961 64.0667 10.6996V13.5996ZM66.8733 13.5996H65.8708V6.89961H66.8733V13.5996ZM72.8892 11.2996C72.8892 11.9996 72.6892 12.5996 72.2875 12.9996C71.8875 13.4996 71.285 13.6996 70.5833 13.6996C69.8817 13.6996 69.38 13.4996 68.9792 12.9996C68.5783 12.5996 68.3775 11.9996 68.3775 11.2996C68.3775 10.5996 68.5775 9.99961 68.9792 9.59961C69.4328 9.15087 70.0452 8.89931 70.6833 8.89961C71.3858 8.89961 71.8867 9.09961 72.2875 9.59961C72.6892 9.99961 72.8892 10.5996 72.8892 11.2996ZM71.8867 11.2996C71.8867 10.8996 71.7867 10.4996 71.5867 10.1996C71.385 9.79961 71.085 9.69961 70.6833 9.69961C70.2833 9.69961 69.9817 9.89961 69.7817 10.1996C69.5808 10.4996 69.4808 10.8996 69.4808 11.2996C69.4808 11.6996 69.5808 12.0996 69.7808 12.3996C69.9817 12.7996 70.2825 12.8996 70.6833 12.8996C71.085 12.8996 71.3858 12.6996 71.5858 12.2996C71.7858 12.0996 71.8867 11.6996 71.8867 11.2996ZM77.8017 13.5996H76.9L76.8 13.0996C76.4983 13.4996 75.9975 13.6996 75.4958 13.6996C75.0958 13.6996 74.6942 13.5996 74.4933 13.2996C74.2933 12.9996 74.0925 12.6996 74.0925 12.3996C74.0925 11.7996 74.2925 11.3996 74.7942 11.0996C75.2958 10.7996 75.8975 10.6996 76.7992 10.6996V10.5996C76.7992 9.99961 76.4992 9.69961 75.8975 9.69961C75.3958 9.69961 75.095 9.79961 74.6942 9.99961L74.4942 9.29961C74.8942 8.99961 75.3958 8.89961 76.0975 8.89961C77.3008 8.89961 77.9025 9.49961 77.9025 10.7996V12.4996C77.8025 12.9996 77.8017 13.2996 77.8017 13.5996ZM76.8 11.9996V11.2996C75.6975 11.2996 75.0958 11.5996 75.0958 12.1996C75.0958 12.3996 75.1958 12.5996 75.2958 12.6996C75.3967 12.7996 75.5975 12.8996 75.7975 12.8996C75.9975 12.8996 76.1983 12.7996 76.3992 12.6996C76.5992 12.5996 76.7 12.3996 76.8 12.1996V11.9996ZM83.6167 13.5996H82.715V12.8996C82.4142 13.4996 81.9125 13.6996 81.2108 13.6996C80.6092 13.6996 80.2083 13.4996 79.8075 13.0996C79.4058 12.6996 79.3058 12.0996 79.3058 11.3996C79.3058 10.6996 79.5058 10.0996 79.9075 9.59961C80.0901 9.41181 80.3082 9.26208 80.5491 9.15909C80.79 9.0561 81.0489 9.0019 81.3108 8.99961C81.9125 8.99961 82.3142 9.19961 82.615 9.59961V6.99961H83.6175V13.5996H83.6167ZM82.6142 11.6996V10.5996C82.5142 10.3996 82.4142 10.1996 82.2142 9.99961C82.0133 9.79961 81.8125 9.79961 81.5117 9.79961C81.1108 9.79961 80.81 9.99961 80.6092 10.2996C80.4092 10.5996 80.3092 10.9996 80.3092 11.4996C80.3092 11.9996 80.4092 12.2996 80.6092 12.5996C80.8092 12.8996 81.1108 13.0996 81.5117 13.0996C81.8125 13.0996 82.1133 12.9996 82.3142 12.6996C82.5142 12.2996 82.6142 11.9996 82.6142 11.6996ZM92.34 11.2996C92.34 11.9996 92.14 12.5996 91.7383 12.9996C91.3375 13.4996 90.7358 13.6996 90.0342 13.6996C89.3317 13.6996 88.8308 13.4996 88.43 12.9996C88.0283 12.5996 87.8283 11.9996 87.8283 11.2996C87.8283 10.5996 88.0283 9.99961 88.43 9.59961C88.83 9.09961 89.4325 8.89961 90.1342 8.89961C90.8358 8.89961 91.3375 9.09961 91.7383 9.59961C92.1392 9.99961 92.34 10.5996 92.34 11.2996ZM91.2367 11.2996C91.2367 10.8996 91.1367 10.4996 90.9367 10.1996C90.7358 9.79961 90.435 9.69961 90.0342 9.69961C89.6325 9.69961 89.3317 9.89961 89.1317 10.1996C88.9317 10.4996 88.8308 10.8996 88.8308 11.2996C88.8308 11.6996 88.9308 12.0996 89.1308 12.3996C89.3317 12.7996 89.6325 12.8996 90.0342 12.8996C90.4342 12.8996 90.7358 12.6996 90.9358 12.2996C91.1367 12.0996 91.2367 11.6996 91.2367 11.2996ZM97.8542 13.5996H96.8517V10.9996C96.8517 10.1996 96.5508 9.79961 95.9492 9.79961C95.6492 9.79961 95.4475 9.89961 95.2475 10.0996C95.0475 10.2996 94.9467 10.5996 94.9467 10.8996V13.5996H93.9442V8.99961H94.8467V9.69961C94.9467 9.49961 95.1467 9.29961 95.3475 9.09961C95.6483 8.89961 95.9492 8.79961 96.25 8.79961C96.6508 8.79961 97.0525 8.89961 97.3525 9.19961C97.7542 9.49961 97.8542 9.99961 97.8542 10.6996V13.5996ZM104.672 9.79961H103.569V11.9996C103.569 12.5996 103.769 12.7996 104.171 12.7996H104.672V13.5996C104.472 13.6996 104.171 13.6996 103.87 13.6996C103.468 13.6996 103.168 13.5996 102.968 13.2996C102.768 13.0996 102.667 12.5996 102.667 12.0996V9.79961H101.965V8.99961H102.667V8.19961L103.669 7.89961V8.99961H104.772V9.79961H104.672ZM110.086 13.5996H109.083V10.9996C109.083 10.1996 108.783 9.79961 108.181 9.79961C107.68 9.79961 107.379 9.99961 107.178 10.4996V13.5996H106.176V6.89961H107.178V9.69961C107.479 9.19961 107.981 8.89961 108.582 8.89961C108.983 8.89961 109.384 8.99961 109.585 9.29961C109.885 9.59961 110.086 10.1996 110.086 10.7996V13.5996ZM115.6 11.0996V11.5996H112.592C112.592 12.0996 112.793 12.3996 112.993 12.5996C113.294 12.7996 113.595 12.8996 113.996 12.8996C114.498 12.8996 114.898 12.7996 115.199 12.6996L115.399 13.3996C114.999 13.5996 114.498 13.6996 113.896 13.6996C113.194 13.6996 112.593 13.4996 112.192 13.0996C111.79 12.6996 111.59 12.0996 111.59 11.3996C111.59 10.6996 111.79 10.0996 112.192 9.69961C112.592 9.19961 113.094 8.99961 113.796 8.99961C114.497 8.99961 114.998 9.19961 115.299 9.69961C115.5 9.99961 115.6 10.4996 115.6 11.0996ZM114.698 10.7996C114.698 10.4996 114.598 10.1996 114.498 9.99961C114.298 9.69961 114.097 9.59961 113.695 9.59961C113.395 9.59961 113.094 9.69961 112.893 9.99961C112.693 10.1996 112.592 10.4996 112.592 10.7996H114.698Z" fill="white"/>
</g>
<defs>
<clipPath id="clip0_90_3469">
<rect width="128.333" height="40" fill="white"/>
</clipPath>
</defs>
</svg>
