<svg width="131" height="36" viewBox="0 0 131 36" fill="none" xmlns="http://www.w3.org/2000/svg">
<path d="M16.2754 36H4.58312L16.2754 18.2857H27.9678L16.2754 36Z" fill="#181818"/>
<path d="M11.997 0H23.9745L11.997 18.2858H0.0195312L11.997 0Z" fill="#181818"/>
<path d="M51.8194 15.4088C51.8194 16.4951 51.558 17.5136 51.0352 18.4641C50.5318 19.4147 49.7282 20.1809 48.6246 20.7629C47.5403 21.3448 46.1655 21.6358 44.5004 21.6358H41.1022V29.4342H37.0361V9.12355H44.5004C46.0687 9.12355 47.4047 9.39513 48.5084 9.9383C49.612 10.4815 50.4349 11.2283 50.9771 12.1789C51.5386 13.1294 51.8194 14.2061 51.8194 15.4088ZM44.3261 18.3477C45.4491 18.3477 46.2817 18.0955 46.8239 17.5912C47.366 17.0674 47.6371 16.3399 47.6371 15.4088C47.6371 13.4301 46.5334 12.4408 44.3261 12.4408H41.1022V18.3477H44.3261Z" fill="#181818"/>
<path d="M57.6106 15.8162C58.1334 14.9626 58.8111 14.2933 59.6437 13.8084C60.4956 13.3234 61.4638 13.0809 62.548 13.0809V17.3584H61.4734C60.1955 17.3584 59.2274 17.6591 58.5691 18.2604C57.9301 18.8618 57.6106 19.9093 57.6106 21.403V29.4342H53.5445V13.3137H57.6106V15.8162Z" fill="#181818"/>
<path d="M71.2698 29.6961C69.7208 29.6961 68.3267 29.3566 67.0875 28.6776C65.8483 27.9793 64.8705 26.9996 64.1541 25.7387C63.457 24.4778 63.1085 23.0228 63.1085 21.3739C63.1085 19.725 63.4667 18.2701 64.1831 17.0092C64.9189 15.7483 65.9161 14.7783 67.1746 14.0994C68.4332 13.401 69.837 13.0518 71.386 13.0518C72.935 13.0518 74.3387 13.401 75.5973 14.0994C76.8558 14.7783 77.8433 15.7483 78.5597 17.0092C79.2955 18.2701 79.6634 19.725 79.6634 21.3739C79.6634 23.0228 79.2858 24.4778 78.5307 25.7387C77.7949 26.9996 76.7881 27.9793 75.5102 28.6776C74.2516 29.3566 72.8381 29.6961 71.2698 29.6961ZM71.2698 26.1461C72.0055 26.1461 72.6929 25.9715 73.3319 25.6223C73.9902 25.2537 74.513 24.7105 74.9002 23.9928C75.2875 23.275 75.4811 22.4021 75.4811 21.3739C75.4811 19.8414 75.0745 18.6678 74.2613 17.853C73.4674 17.0189 72.4896 16.6018 71.3279 16.6018C70.1661 16.6018 69.1883 17.0189 68.3945 17.853C67.62 18.6678 67.2327 19.8414 67.2327 21.3739C67.2327 22.9065 67.6103 24.0898 68.3654 24.9239C69.1399 25.7387 70.108 26.1461 71.2698 26.1461Z" fill="#181818"/>
<path d="M85.5504 26.2043H89.9169V29.4342H81.4843V6.62109H85.5504V26.2043Z" fill="#181818"/>
<path d="M93.0711 11.3932C92.3547 11.3932 91.7545 11.1701 91.2704 10.724C90.8057 10.2584 90.5734 9.68612 90.5734 9.00716C90.5734 8.3282 90.8057 7.76563 91.2704 7.31945C91.7545 6.85388 92.3547 6.62109 93.0711 6.62109C93.7875 6.62109 94.3781 6.85388 94.8428 7.31945C95.3269 7.76563 95.5689 8.3282 95.5689 9.00716C95.5689 9.68612 95.3269 10.2584 94.8428 10.724C94.3781 11.1701 93.7875 11.3932 93.0711 11.3932ZM95.0751 13.3137V29.4342H91.009V13.3137H95.0751Z" fill="#181818"/>
<path d="M106.847 13.0809C108.764 13.0809 110.313 13.692 111.494 14.9141C112.675 16.1168 113.266 17.8045 113.266 19.9772V29.4342H109.2V20.5301C109.2 19.2498 108.88 18.2701 108.241 17.5912C107.602 16.8928 106.731 16.5436 105.627 16.5436C104.504 16.5436 103.614 16.8928 102.955 17.5912C102.316 18.2701 101.997 19.2498 101.997 20.5301V29.4342H97.9307V13.3137H101.997V15.3215C102.539 14.6231 103.226 14.08 104.059 13.692C104.911 13.2846 105.84 13.0809 106.847 13.0809Z" fill="#181818"/>
<path d="M130.928 21.0248C130.928 21.6067 130.889 22.1305 130.812 22.5961H119.049C119.146 23.76 119.553 24.6717 120.269 25.3313C120.986 25.9909 121.867 26.3207 122.912 26.3207C124.422 26.3207 125.497 25.6708 126.136 24.3711H130.522C130.057 25.923 129.166 27.2033 127.85 28.212C126.533 29.2014 124.916 29.6961 122.999 29.6961C121.45 29.6961 120.056 29.3566 118.817 28.6776C117.597 27.9793 116.639 26.9996 115.942 25.7387C115.264 24.4778 114.925 23.0228 114.925 21.3739C114.925 19.7056 115.264 18.241 115.942 16.9801C116.619 15.7192 117.568 14.7492 118.788 14.0703C120.008 13.3913 121.412 13.0518 122.999 13.0518C124.529 13.0518 125.894 13.3816 127.094 14.0412C128.314 14.7007 129.253 15.6416 129.912 16.8637C130.589 18.0664 130.928 19.4535 130.928 21.0248ZM126.717 19.8608C126.698 18.8133 126.32 17.9791 125.584 17.3584C124.848 16.7182 123.948 16.3981 122.883 16.3981C121.876 16.3981 121.024 16.7085 120.327 17.3293C119.65 17.9306 119.233 18.7745 119.078 19.8608H126.717Z" fill="#181818"/>
</svg>
