<svg width="178" height="36" viewBox="0 0 178 36" fill="none" xmlns="http://www.w3.org/2000/svg">
<path d="M57.2122 8.01097L57.5227 8.1304L57.6463 7.82151L57.7831 7.47949L57.9159 7.1475L57.5766 7.03443C55.2195 6.24871 52.892 5.85426 50.5954 5.85426C48.3149 5.85426 46.5416 6.38887 45.3383 7.51762C44.1453 8.61398 43.5547 10.0525 43.5547 11.8005C43.5547 14.0094 44.4763 15.7345 46.3041 16.9377C47.0952 17.4727 47.9657 17.9598 48.9146 18.3996L48.9146 18.3997L48.9208 18.4024C49.8568 18.8133 50.7815 19.2129 51.6948 19.6011L51.6976 19.6022C52.6195 19.9845 53.4602 20.3994 54.2203 20.8465C55.8634 21.8194 56.6541 23.1408 56.6541 24.8315C56.6541 26.3893 56.0444 27.5454 54.8231 28.3457C53.5879 29.1472 52.0816 29.5562 50.2876 29.5562C49.0681 29.5562 47.8709 29.3791 46.695 29.0245C45.5378 28.6459 44.6081 28.1722 43.8953 27.6106L43.6 27.378L43.4007 27.6968L43.2297 27.9704L43.0602 28.2416L43.3221 28.4251C45.3711 29.8618 47.8355 30.5726 50.698 30.5726C52.2273 30.5726 53.573 30.3989 54.73 30.0448L54.73 30.0448L54.734 30.0435C55.9422 29.6569 56.9658 28.9317 57.8023 27.8801C58.6527 26.811 59.0727 25.5264 59.0727 24.0448C59.0727 22.5748 58.8282 21.3422 58.3166 20.3668C57.8152 19.3884 57.1524 18.6135 56.3251 18.0539C55.5315 17.517 54.6584 17.04 53.7065 16.6221C52.7649 16.2087 51.8227 15.8409 50.8802 15.5189C49.9809 15.1815 49.1508 14.8224 48.3894 14.4419C46.7458 13.5759 45.9733 12.3908 45.9733 10.8771C45.9733 9.60685 46.4428 8.63803 47.3785 7.93109C48.326 7.21519 49.6699 6.83637 51.4505 6.83637C53.2485 6.83637 55.1682 7.22483 57.2122 8.01097ZM71.3982 29.8415L71.3982 29.8416L71.4041 29.8465C71.9877 30.3239 72.7933 30.5383 73.7724 30.5383H75.8587H76.1958V30.2012V29.9276V29.5904H75.8587H74.8288L74.4825 29.5275L74.4665 29.5246L74.4502 29.5232C74.3128 29.5117 74.118 29.4149 73.8725 29.1111C73.679 28.8239 73.5623 28.3906 73.5623 27.7729V17.0676C73.5623 15.8916 73.2612 14.8994 72.6325 14.1198L72.6326 14.1198L72.628 14.1143C72.2051 13.6122 71.5554 13.2554 70.724 13.017C69.9031 12.7524 68.8514 12.6263 67.5818 12.6263C66.2432 12.6263 65.0177 13.0908 63.9144 14.0017C63.2601 14.5282 62.7234 15.0863 62.3098 15.6771V13.1002V12.7631H61.9727H59.5785H59.2414V13.1002V30.2012V30.5383H59.5785H61.9727H62.3098V30.2012V18.0595C62.3098 17.2873 62.8081 16.3445 63.953 15.2221L63.9554 15.2197C65.0638 14.1113 66.292 13.5742 67.6502 13.5742C68.3189 13.5742 68.8563 13.6816 69.2763 13.8799C70.036 14.2921 70.4938 15.2714 70.4938 17.0334V27.7729V27.7828L70.4944 27.7927L70.5286 28.373C70.5286 28.3732 70.5286 28.3733 70.5286 28.3735C70.5588 28.9146 70.8865 29.4029 71.3982 29.8415ZM76.5891 15.0849L76.5874 15.0867C74.9582 16.7399 74.1647 19.0466 74.1647 21.9585C74.1647 24.8644 74.9326 27.081 76.5324 28.5354C78.1101 29.9696 80.1454 30.6752 82.6077 30.6752C85.1052 30.6752 87.1783 29.8589 88.7983 28.2154C90.4506 26.5625 91.2559 24.2555 91.2559 21.3429C91.2559 18.437 90.488 16.2204 88.8882 14.766C87.3099 13.3312 85.2628 12.6263 82.7787 12.6263C80.3027 12.6263 78.2308 13.4433 76.5891 15.0849ZM78.8079 15.7644L78.8093 15.7625C79.8939 14.2873 81.2344 13.5742 82.8471 13.5742C84.4803 13.5742 85.7726 14.1909 86.7556 15.4302C87.7354 16.6657 88.2559 18.6154 88.2559 21.3429C88.2559 24.036 87.6944 26.0996 86.6119 27.5723C85.5283 29.0238 84.1879 29.7272 82.5735 29.7272C80.9403 29.7272 79.6479 29.1105 78.665 27.8712C77.6849 26.6354 77.1647 24.6966 77.1647 21.9927C77.1647 19.2751 77.7268 17.2129 78.8079 15.7644ZM114.221 13.067L113.975 13.3132L114.229 13.5514C114.506 13.8109 114.67 14.2108 114.67 14.8103C114.67 15.4246 114.543 15.9345 114.304 16.3531L114.297 16.3658L114.291 16.3791L109.672 26.3808L104.721 12.9833L104.639 12.7631H104.405H102.01H101.528L101.694 13.2162L102.911 16.54L98.3848 26.3793L93.4341 12.9833L93.3527 12.7631H93.1179H90.7237H90.2386L90.4077 13.2178L96.7693 30.3188L96.851 30.5383H97.0853H97.4273H97.6444L97.7342 30.3408L103.416 17.848L108.056 30.3188L108.138 30.5383H108.372H108.714H108.931L109.021 30.3408L115.246 16.66L115.246 16.6601L115.249 16.6532C115.538 15.9782 115.686 15.3061 115.686 14.6393C115.686 14.4535 115.661 14.2611 115.612 14.0631C115.577 13.8158 115.458 13.5689 115.29 13.3271C115.219 13.2089 115.148 13.1053 115.078 13.0212C115.01 12.9398 114.923 12.8523 114.816 12.7987L114.599 12.69L114.427 12.8618L114.221 13.067Z" fill="#181818" stroke="#181818" stroke-width="0.674298"/>
<path d="M120.952 6.61606C121.533 5.72577 122.45 5.03122 123.714 4.9072L123.415 28.009H123.415V28.0133C123.415 28.2647 123.493 28.5224 123.621 28.7798C124.236 30.0086 125.681 30.5394 127.719 30.5394H128.78H129.117V30.2023V29.9287V29.5915H128.78H127.75L127.403 29.5285L127.387 29.5256L127.371 29.5243C127.234 29.5128 127.039 29.416 126.793 29.1122C126.6 28.8249 126.483 28.3916 126.483 27.7739V4.58498V4.25331L126.152 4.24788L124.061 4.21368L123.723 4.20814L123.723 4.22016C121.454 4.28879 119.729 4.84474 118.62 5.95279C117.453 7.09614 116.912 8.97538 116.912 11.4938V12.7641H116.531H116.194V13.1013V13.6539V13.991H116.531H116.912V30.2023V30.5394H117.249H119.644H119.981V30.2023V13.991H122.346H122.683V13.6539V13.1013V12.7641H122.346H119.981V11.4938C119.981 9.16087 120.324 7.5586 120.95 6.61891L120.95 6.61892L120.952 6.61606ZM138.801 16.4134V21.6293C138.387 21.6018 137.941 21.5882 137.462 21.5882C136.836 21.5882 136.154 21.6229 135.418 21.6918C133.938 21.7839 132.704 21.9569 131.725 22.215C130.749 22.4719 129.994 22.8213 129.501 23.2881C129.05 23.7154 128.735 24.144 128.62 24.5747C128.523 24.9397 128.472 25.2884 128.472 25.6192C128.472 25.9107 128.496 26.2019 128.545 26.4926C128.748 27.8524 129.284 28.9126 130.181 29.628C131.075 30.3406 132.284 30.6762 133.769 30.6762C135.047 30.6762 136.169 30.4126 137.124 29.8714C137.79 29.4937 138.366 28.9861 138.851 28.3534C138.967 28.7539 139.273 29.1556 139.687 29.5519C140.359 30.2458 141.54 30.5394 143.106 30.5394H144.166H144.343H144.503H144.68H147.074H147.411V30.2023V22.0858L147.964 21.4504L154.046 30.3919L154.146 30.5394H154.325H156.719H157.356L156.998 30.0126L149.792 19.4217L155.193 13.3248L155.689 12.7641H154.94H154.598H154.447L154.346 12.8775L147.411 20.6953V4.55078V4.21363H147.074H144.68H144.343V4.55078V29.5915H144.166H143.136L142.79 29.5285L142.774 29.5256L142.757 29.5243C142.62 29.5128 142.425 29.416 142.18 29.1122C141.986 28.8249 141.87 28.3916 141.87 27.7739V16.3163C141.87 15.4865 141.53 14.7141 140.894 14.0052C140.46 13.5184 139.817 13.1766 139.004 12.9555C138.19 12.7341 137.183 12.6273 135.992 12.6273C133.842 12.6273 131.731 13.1067 129.66 14.0605L129.326 14.2145L129.508 14.534L129.645 14.7734L129.812 15.0648L130.104 14.8997C130.59 14.625 131.377 14.3373 132.487 14.0428L132.487 14.0428L132.491 14.0416C133.613 13.7276 134.573 13.5752 135.376 13.5752C136.193 13.5752 136.827 13.6863 137.294 13.8893L137.294 13.8895L137.305 13.8941C137.8 14.0875 138.094 14.3061 138.245 14.5245C138.435 14.7981 138.58 15.0797 138.684 15.3694L138.689 15.3836L138.695 15.3973C138.816 15.6586 138.832 15.8285 138.81 15.9319C138.786 16.03 138.767 16.131 138.767 16.2222C138.767 16.2683 138.771 16.3325 138.796 16.3994C138.797 16.404 138.799 16.4086 138.801 16.4134ZM138.801 26.3903C138.739 27.0319 138.294 27.7622 137.346 28.5782C136.446 29.3492 135.44 29.7283 134.316 29.7283C133.486 29.7283 132.878 29.4579 132.445 28.9423C132 28.4129 131.707 27.5855 131.608 26.4115L131.608 26.4115L131.607 26.4065C131.585 26.187 131.575 25.9932 131.575 25.8244C131.575 24.88 131.82 24.1839 132.272 23.6928C132.481 23.4654 132.836 23.2497 133.374 23.0651C133.907 22.8818 134.597 22.7375 135.449 22.6366C136.052 22.5696 136.654 22.5362 137.257 22.5362C137.78 22.5362 138.294 22.5516 138.801 22.5826V26.3903ZM158.921 20.2788H170.827H171.164V19.9417V19.941V19.9403V19.9397V19.939V19.9383V19.9377V19.937V19.9363V19.9357V19.935V19.9343V19.9337V19.933V19.9323V19.9317V19.931V19.9303V19.9297V19.929V19.9283V19.9276V19.927V19.9263V19.9256V19.925V19.9243V19.9236V19.923V19.9223V19.9216V19.921V19.9203V19.9196V19.919V19.9183V19.9176V19.917V19.9163V19.9156V19.915V19.9143V19.9136V19.913V19.9123V19.9116V19.9109V19.9103V19.9096V19.9089V19.9083V19.9076V19.9069V19.9063V19.9056V19.9049V19.9043V19.9036V19.9029V19.9023V19.9016V19.9009V19.9003V19.8996V19.8989V19.8983V19.8976V19.8969V19.8963V19.8956V19.8949V19.8942V19.8936V19.8929V19.8922V19.8916V19.8909V19.8902V19.8896V19.8889V19.8882V19.8876V19.8869V19.8862V19.8856V19.8849V19.8842V19.8836V19.8829V19.8822V19.8816V19.8809V19.8802V19.8796V19.8789V19.8782V19.8775V19.8769V19.8762V19.8755V19.8749V19.8742V19.8735V19.8729V19.8722V19.8715V19.8709V19.8702V19.8695V19.8689V19.8682V19.8675V19.8669V19.8662V19.8655V19.8649V19.8642V19.8635V19.8629V19.8622V19.8615V19.8608V19.8602V19.8595V19.8588V19.8582V19.8575V19.8568V19.8562V19.8555V19.8548V19.8542V19.8535V19.8528V19.8522V19.8515V19.8508V19.8502V19.8495V19.8488V19.8482V19.8475V19.8468V19.8462V19.8455V19.8448V19.8441V19.8435V19.8428V19.8421V19.8415V19.8408V19.8401V19.8395V19.8388V19.8381V19.8375V19.8368V19.8361V19.8355V19.8348V19.8341V19.8335V19.8328V19.8321V19.8315V19.8308V19.8301V19.8295V19.8288V19.8281V19.8274V19.8268V19.8261V19.8254V19.8248V19.8241V19.8234V19.8228V19.8221V19.8214V19.8208V19.8201V19.8194V19.8188V19.8181V19.8174V19.8168V19.8161V19.8154V19.8148V19.8141V19.8134V19.8128V19.8121V19.8114V19.8107V19.8101V19.8094V19.8087V19.8081V19.8074V19.8067V19.8061V19.8054V19.8047V19.8041V19.8034V19.8027V19.8021V19.8014V19.8007V19.8001V19.7994V19.7987V19.7981V19.7974V19.7967V19.7961V19.7954V19.7947V19.794V19.7934V19.7927V19.792V19.7914V19.7907V19.79V19.7894V19.7887V19.788V19.7874V19.7867V19.786V19.7854V19.7847V19.784V19.7834V19.7827V19.782V19.7814V19.7807V19.78V19.7794V19.7787V19.778V19.7773V19.7767V19.776V19.7753V19.7747V19.774V19.7733V19.7727V19.772V19.7713V19.7707V19.77V19.7693V19.7687V19.768V19.7673V19.7667V19.766V19.7653V19.7647V19.764V19.7633V19.7627V19.762V19.7613V19.7606V19.76V19.7593V19.7586V19.758V19.7573V19.7566V19.756V19.7553V19.7546V19.754V19.7533V19.7526V19.752V19.7513V19.7506V19.75V19.7493V19.7486V19.748V19.7473V19.7466V19.746V19.7453V19.7446V19.7439V19.7433V19.7426V19.7419V19.7413V19.7406V19.7399V19.7393V19.7386V19.7379V19.7373V19.7366V19.7359V19.7353V19.7346V19.7339V19.7333V19.7326V19.7319V19.7313V19.7306V19.7299V19.7292V19.7286V19.7279V19.7272V19.7266V19.7259V19.7252V19.7246V19.7239V19.7232V19.7226V19.7219V19.7212V19.7206V19.7199V19.7192V19.7186V19.7179V19.7172V19.7166V19.7159V19.7152V19.7146V19.7139V19.7132V19.7126V19.7119V19.7112V19.7105V19.7099V19.7092V19.7085V19.7079V19.7072V19.7065V19.7059V19.7052V19.7045V19.7039V19.7032V19.7025V19.7019V19.7012V19.7005V19.6999V19.6992V19.6985V19.6979V19.6972V19.6965V19.6958V19.6952V19.6945V19.6938V19.6932V19.6925V19.6918V19.6912V19.6905V19.6898V19.6892V19.6885V19.6878V19.6872V19.6865V19.6858V19.6852V19.6845V19.6838V19.6832V19.6825V19.6818V19.6812V19.6805V19.6798V19.6791V19.6785V19.6778V19.6771V19.6765V19.6758V19.6751V19.6745V19.6738V19.6731V19.6725V19.6718V19.6711V19.6705V19.6698V19.6691V19.6685V19.6678V19.6671V19.6665V19.6658V19.6651V19.6645V19.6638V19.6631V19.6624V19.6618V19.6611V19.6604V19.6598V19.6591V19.6584V19.6578V19.6571V19.6564V19.6558V19.6551V19.6544V19.6538V19.6531V19.6524V19.6518V19.6511V19.6504V19.6498V19.6491V19.6484V19.6478V19.6471V19.6464V19.6457V19.6451V19.6444V19.6437V19.6431V19.6424V19.6417V19.6411V19.6404V19.6397V19.6391V19.6384V19.6377V19.6371V19.6364V19.6357V19.6351V19.6344V19.6337V19.6331V19.6324V19.6317V19.6311V19.6304V19.6297V19.629V19.6284V19.6277V19.627V19.6264V19.6257V19.625V19.6244V19.6237V19.623V19.6224V19.6217V19.621V19.6204V19.6197V19.619V19.6184V19.6177V19.617V19.6164V19.6157V19.615V19.6144V19.6137V19.613V19.6123V19.6117V19.611V19.6103V19.6097V19.609V19.6083V19.6077V19.607V19.6063V19.6057V19.605V19.6043V19.6037V19.603V19.6023V19.6017V19.601V19.6003V19.5997C171.164 17.3436 170.503 15.5854 169.133 14.3866C167.789 13.21 166.134 12.6273 164.191 12.6273C161.781 12.6273 159.775 13.4467 158.202 15.0914C156.62 16.7449 155.851 19.0503 155.851 21.9596C155.851 24.8612 156.582 27.0759 158.11 28.5311C159.619 29.9678 161.565 30.6762 163.918 30.6762C166.255 30.6762 168.361 30.3175 170.23 29.5932L170.556 29.467L170.418 29.146L170.316 28.9066L170.188 28.6082L169.885 28.7247C168.152 29.3913 166.165 29.7283 163.918 29.7283C162.408 29.7283 161.196 29.1194 160.254 27.8795C159.339 26.6437 158.851 24.6575 158.851 21.857C158.851 21.3145 158.875 20.7884 158.921 20.2788ZM166.97 15.0192C167.684 15.9312 168.096 17.3511 168.157 19.3309H159.042C159.335 17.5555 159.934 16.1775 160.818 15.1725C161.792 14.0903 162.868 13.5752 164.055 13.5752C165.248 13.5752 166.211 14.0496 166.97 15.0192Z" fill="#181818" stroke="#181818" stroke-width="0.674298"/>
<path d="M173.983 4.19148V5.09505H172.956V7.84411H171.98V5.09505H170.953V4.19148H173.983Z" fill="#181818"/>
<path d="M177.987 4.13672V7.86053H177.012V6.05339L176.297 6.9022H176.005L175.291 6.05339V7.86053H174.316V4.13672H174.66L176.151 5.72482L177.643 4.13672H177.987Z" fill="#181818"/>
<path fill-rule="evenodd" clip-rule="evenodd" d="M16.8202 24.2498L16.8053 35.9969L19.2878 36L19.3028 24.2011L23.8318 35.0965L26.1241 34.1436L21.6263 23.323L29.9014 31.6192L31.6591 29.866L23.3494 21.5352L34.2162 26.0451L35.1678 23.7522L24.2977 19.2409H36.0672V16.7584H24.3263L35.1782 12.2765L34.2306 9.98197L23.4258 14.4443L31.7348 6.22031L29.9885 4.45589L21.5739 12.7844L26.1079 1.84885L23.8147 0.898038L19.3186 11.7421L19.3335 0.00314622L16.8509 0L16.836 11.799L12.3072 0.904025L10.0148 1.85692L14.5116 12.675L6.23776 4.3801L4.48011 6.13329L12.7913 14.4656L1.92041 9.95401L0.968814 12.2469L11.8394 16.7584H0.0703125V19.2409H11.8118L0.959542 23.7229L1.9072 26.0175L12.713 21.5547L4.40433 29.7784L6.1507 31.5428L14.5598 23.2197L10.0279 34.1501L12.3211 35.1009L16.8202 24.2498Z" fill="#181818"/>
</svg>
