<svg width="137" height="36" viewBox="0 0 137 36" fill="none" xmlns="http://www.w3.org/2000/svg">
<path fill-rule="evenodd" clip-rule="evenodd" d="M27.3023 6.32641H12.3965V0H33.6259V21.2387H27.3023V6.32641Z" fill="#181818"/>
<path fill-rule="evenodd" clip-rule="evenodd" d="M15.6581 18.9141C14.6925 18.2686 13.5572 17.9241 12.3958 17.9241V11.5977C14.8079 11.5977 17.1658 12.3132 19.1714 13.6539C21.1769 14.9945 22.7401 16.9001 23.6631 19.1295C24.5862 21.3589 24.8277 23.8121 24.3571 26.1789C23.8866 28.5456 22.725 30.7196 21.0195 32.426C19.3139 34.1323 17.1408 35.2943 14.7751 35.7651C12.4093 36.2359 9.95721 35.9942 7.72875 35.0708C5.50029 34.1473 3.59559 32.5835 2.25552 30.577C0.915449 28.5706 0.200191 26.2117 0.200195 23.7986L6.52386 23.7986C6.52386 24.9604 6.86824 26.0962 7.51346 27.0623C8.15868 28.0283 9.07576 28.7813 10.1487 29.2259C11.2217 29.6706 12.4023 29.7869 13.5414 29.5602C14.6804 29.3336 15.7267 28.7741 16.5479 27.9525C17.3692 27.1309 17.9284 26.0842 18.155 24.9447C18.3816 23.8051 18.2653 22.6239 17.8208 21.5505C17.3764 20.4771 16.6238 19.5596 15.6581 18.9141Z" fill="#181818"/>
<path d="M43.5625 31.0426V4.5H53.379C55.5015 4.5 57.2576 4.8539 58.6473 5.5617C60.0371 6.26951 61.073 7.24274 61.7553 8.48139C62.4375 9.72005 62.7786 11.1104 62.7786 12.6524C62.7786 14.1185 62.4501 15.471 61.7932 16.7096C61.1362 17.923 60.1129 18.9089 58.7231 19.6672C57.3334 20.4003 55.552 20.7668 53.379 20.7668H48.4139V31.0426H43.5625ZM48.4139 16.8234H53.0758C54.7687 16.8234 55.9816 16.4568 56.7144 15.7237C57.4724 14.9654 57.8514 13.9416 57.8514 12.6524C57.8514 11.3379 57.4724 10.3141 56.7144 9.58102C55.9816 8.82266 54.7687 8.44348 53.0758 8.44348H48.4139V16.8234Z" fill="#181818"/>
<path d="M72.7479 31.4976C70.8528 31.4976 69.1725 31.0932 67.707 30.2843C66.2415 29.4753 65.0918 28.3378 64.258 26.8716C63.4241 25.4055 63.0072 23.7118 63.0072 21.7906C63.0072 19.8442 63.4115 18.1126 64.2201 16.5959C65.0539 15.0791 66.1909 13.9037 67.6312 13.0695C69.0967 12.21 70.8149 11.7803 72.7858 11.7803C74.6304 11.7803 76.2601 12.1847 77.6751 12.9936C79.0901 13.8026 80.1893 14.9148 80.9726 16.3304C81.7811 17.7208 82.1854 19.2754 82.1854 20.9943C82.1854 21.2724 82.1728 21.5631 82.1475 21.8665C82.1475 22.1698 82.1349 22.4858 82.1096 22.8144H67.8207C67.9218 24.2806 68.4271 25.4308 69.3368 26.2649C70.2717 27.0991 71.3961 27.5162 72.71 27.5162C73.6955 27.5162 74.5167 27.3014 75.1736 26.8716C75.8559 26.4166 76.3612 25.8352 76.6897 25.1274H81.6169C81.2631 26.3155 80.6694 27.4025 79.8355 28.3884C79.027 29.3489 78.0162 30.1073 76.8034 30.6634C75.6158 31.2196 74.264 31.4976 72.7479 31.4976ZM72.7858 15.7237C71.5982 15.7237 70.5496 16.065 69.64 16.7475C68.7304 17.4048 68.1492 18.4159 67.8965 19.781H77.2582C77.1824 18.5423 76.7276 17.5564 75.8938 16.8234C75.0599 16.0903 74.0239 15.7237 72.7858 15.7237Z" fill="#181818"/>
<path d="M84.3707 31.0426V12.2353H88.6536L89.0326 15.4204C89.6137 14.3081 90.4476 13.4234 91.5341 12.7661C92.6459 12.1089 93.9472 11.7803 95.438 11.7803C97.7626 11.7803 99.5692 12.5133 100.858 13.9795C102.147 15.4457 102.791 17.5944 102.791 20.4256V31.0426H97.9395V20.8806C97.9395 19.2628 97.611 18.0241 96.954 17.1646C96.2971 16.3051 95.2737 15.8754 93.884 15.8754C92.5195 15.8754 91.3951 16.3557 90.5107 17.3163C89.6516 18.2769 89.2221 19.6167 89.2221 21.3356V31.0426H84.3707Z" fill="#181818"/>
<path d="M113.911 31.0426C111.94 31.0426 110.361 30.5623 109.173 29.6017C107.986 28.6411 107.392 26.9348 107.392 24.4828V16.2925H104.17V12.2353H107.392L107.961 7.19218H112.243V12.2353H117.322V16.2925H112.243V24.5207C112.243 25.4308 112.433 26.0627 112.812 26.4166C113.216 26.7452 113.898 26.9096 114.859 26.9096H117.209V31.0426H113.911Z" fill="#181818"/>
<path d="M126.074 31.4976C124.457 31.4976 123.13 31.2449 122.094 30.7393C121.058 30.2084 120.287 29.5133 119.782 28.6538C119.277 27.7943 119.024 26.8464 119.024 25.8099C119.024 24.0657 119.706 22.6501 121.071 21.5631C122.435 20.4761 124.482 19.9326 127.211 19.9326H131.986V19.4776C131.986 18.1884 131.62 17.2405 130.887 16.6338C130.154 16.0271 129.245 15.7237 128.158 15.7237C127.173 15.7237 126.314 15.9639 125.581 16.4442C124.848 16.8992 124.393 17.5817 124.217 18.4918H119.479C119.605 17.1267 120.06 15.9386 120.843 14.9275C121.652 13.9163 122.688 13.1453 123.951 12.6145C125.215 12.0583 126.63 11.7803 128.196 11.7803C130.875 11.7803 132.984 12.4501 134.526 13.7899C136.067 15.1297 136.838 17.0256 136.838 19.4776V31.0426H132.706L132.252 28.0092C131.696 29.0203 130.912 29.8545 129.902 30.5118C128.916 31.169 127.64 31.4976 126.074 31.4976ZM127.173 27.7058C128.563 27.7058 129.636 27.2508 130.394 26.3408C131.178 25.4308 131.671 24.3059 131.873 22.9661H127.741C126.453 22.9661 125.53 23.2062 124.975 23.6865C124.419 24.1415 124.141 24.7103 124.141 25.3928C124.141 26.1259 124.419 26.6947 124.975 27.0991C125.53 27.5036 126.263 27.7058 127.173 27.7058Z" fill="#181818"/>
</svg>
