<svg width="141" height="36" viewBox="0 0 141 36" fill="none" xmlns="http://www.w3.org/2000/svg">
<path d="M47.7148 27.9425C49.1349 28.6425 50.8351 28.9926 52.8152 28.9926C54.8954 28.9926 56.6856 28.6025 58.1857 27.8225C59.6858 27.0424 60.8659 26.0023 61.726 24.7022C62.586 23.4021 63.1161 21.972 63.3161 20.4118H59.0257C58.7857 21.872 58.0957 23.0121 56.9556 23.8321C55.8355 24.6322 54.4554 25.0322 52.8152 25.0322C51.6951 25.0322 50.7051 24.8422 49.845 24.4622C49.0049 24.0821 48.2949 23.5521 47.7148 22.872C47.1348 22.172 46.6947 21.3619 46.3947 20.4418C46.1147 19.5218 45.9747 18.5217 45.9747 17.4416C45.9747 16.3215 46.1147 15.3014 46.3947 14.3813C46.6947 13.4613 47.1248 12.6612 47.6848 11.9811C48.2448 11.3011 48.9449 10.781 49.785 10.421C50.625 10.041 51.5851 9.85096 52.6652 9.85096C53.7253 9.85096 54.6754 10.031 55.5155 10.391C56.3555 10.731 57.0456 11.2511 57.5856 11.9511C58.1457 12.6312 58.5057 13.4713 58.6657 14.4713H62.9561C62.7761 12.7512 62.246 11.2511 61.3659 9.97097C60.4859 8.67086 59.3058 7.67077 57.8256 6.97072C56.3655 6.25066 54.6454 5.89062 52.6652 5.89062C50.7651 5.89062 49.1149 6.22065 47.7148 6.88071C46.3347 7.52076 45.1946 8.38083 44.2945 9.46092C43.3944 10.541 42.7244 11.7411 42.2843 13.0612C41.8643 14.3813 41.6543 15.7214 41.6543 17.0816V17.7416C41.6543 18.9617 41.8643 20.2318 42.2843 21.5519C42.7044 22.872 43.3544 24.0921 44.2345 25.2122C45.1346 26.3323 46.2947 27.2424 47.7148 27.9425Z" fill="#181818"/>
<path fill-rule="evenodd" clip-rule="evenodd" d="M74.4419 26.4423C74.6481 26.0928 74.8181 25.707 74.9519 25.2851V28.4225H78.2522V18.3117C78.2522 16.7915 77.9622 15.5614 77.3821 14.6214C76.8221 13.6813 75.982 12.9912 74.8619 12.5512C73.7618 12.1111 72.3717 11.8911 70.6916 11.8911C70.1515 11.8911 69.5715 11.9011 68.9514 11.9211C68.3514 11.9211 67.7613 11.9411 67.1813 11.9811C66.6012 12.0211 66.0812 12.0611 65.6211 12.1011V15.6414C66.1812 15.6014 66.8112 15.5714 67.5113 15.5514C68.2314 15.5114 68.9414 15.4814 69.6415 15.4614C70.3415 15.4414 70.9416 15.4314 71.4416 15.4314C72.4017 15.4314 73.1118 15.6614 73.5718 16.1215C74.0318 16.5815 74.2619 17.2816 74.2619 18.2217V18.3717H70.9316C69.4915 18.3717 68.2314 18.5617 67.1513 18.9417C66.0912 19.3217 65.2611 19.8918 64.6611 20.6519C64.081 21.4119 63.791 22.392 63.791 23.5921C63.791 24.6922 64.031 25.6323 64.5111 26.4123C65.0111 27.1924 65.7012 27.7925 66.5812 28.2125C67.4813 28.6325 68.5214 28.8425 69.7015 28.8425C70.8416 28.8425 71.8017 28.6425 72.5817 28.2425C73.3818 27.8225 74.0018 27.2224 74.4419 26.4423ZM73.6918 24.4922C74.0318 23.9721 74.2219 23.2721 74.2619 22.392V20.8619H70.8716C69.9115 20.8619 69.1714 21.1019 68.6514 21.5819C68.1514 22.042 67.9013 22.642 67.9013 23.3821C67.9013 24.1222 68.1514 24.7222 68.6514 25.1822C69.1714 25.6423 69.9115 25.8723 70.8716 25.8723C71.4516 25.8723 71.9817 25.7723 72.4617 25.5723C72.9618 25.3523 73.3718 24.9922 73.6918 24.4922Z" fill="#181818"/>
<path d="M88.4498 28.9926C87.0296 28.9926 85.7995 28.7525 84.7595 28.2725C83.7394 27.7925 82.8793 27.1524 82.1792 26.3523C81.4992 25.5523 80.9891 24.6522 80.6491 23.6521C80.3091 22.652 80.1391 21.6319 80.1391 20.5919V20.0218C80.1391 18.9217 80.3091 17.8716 80.6491 16.8715C81.0091 15.8515 81.5392 14.9514 82.2392 14.1713C82.9393 13.3713 83.7994 12.7412 84.8195 12.2812C85.8596 11.8011 87.0597 11.5611 88.4198 11.5611C89.8399 11.5611 91.11 11.8411 92.2301 12.4012C93.3502 12.9412 94.2402 13.7013 94.9003 14.6814C95.5804 15.6614 95.9604 16.8015 96.0404 18.1016H91.9901C91.8901 17.2616 91.53 16.5615 90.91 16.0015C90.3099 15.4414 89.4799 15.1614 88.4198 15.1614C87.4997 15.1614 86.7296 15.3814 86.1096 15.8215C85.5095 16.2615 85.0595 16.8715 84.7595 17.6516C84.4594 18.4117 84.3094 19.2917 84.3094 20.2918C84.3094 21.2519 84.4494 22.122 84.7295 22.902C85.0295 23.6821 85.4795 24.2922 86.0796 24.7322C86.6996 25.1722 87.4897 25.3923 88.4498 25.3923C89.1698 25.3923 89.7899 25.2622 90.3099 25.0022C90.83 24.7422 91.24 24.3822 91.54 23.9221C91.86 23.4621 92.0601 22.9421 92.1401 22.362H96.1904C96.1104 23.6821 95.7204 24.8422 95.0203 25.8423C94.3403 26.8224 93.4302 27.5924 92.2901 28.1525C91.17 28.7125 89.8899 28.9926 88.4498 28.9926Z" fill="#181818"/>
<path d="M101.391 28.0625C102.371 28.4425 103.612 28.6325 105.112 28.6325H107.452V25.0622H104.902C104.102 25.0622 103.482 24.8522 103.042 24.4322C102.621 23.9921 102.411 23.3721 102.411 22.572L102.426 15.1914H107.452V12.1311H102.432L102.441 7.54076H98.5412L98.5318 12.1311H95.9309V15.1914H98.5256L98.5112 22.302C98.5112 23.8821 98.7512 25.1422 99.2312 26.0823C99.7113 27.0024 100.431 27.6624 101.391 28.0625Z" fill="#181818"/>
<path d="M115.002 28.9326C113.122 28.9326 111.662 28.3125 110.622 27.0724C109.602 25.8323 109.092 23.9921 109.092 21.5519V12.1011H113.262V21.912C113.262 22.912 113.542 23.7121 114.102 24.3122C114.662 24.8922 115.422 25.1822 116.383 25.1822C117.343 25.1822 118.123 24.8722 118.723 24.2522C119.343 23.6321 119.653 22.792 119.653 21.732V12.1011H123.823V28.4225H120.523V24.6287C120.439 24.9739 120.339 25.2984 120.223 25.6023C119.803 26.7024 119.173 27.5324 118.333 28.0925C117.493 28.6525 116.443 28.9326 115.182 28.9326H115.002Z" fill="#181818"/>
<path d="M127.744 27.5224C129.024 28.4625 130.784 28.9326 133.024 28.9326C134.464 28.9326 135.714 28.7125 136.774 28.2725C137.835 27.8325 138.655 27.2224 139.235 26.4423C139.835 25.6423 140.135 24.7022 140.135 23.6221C140.135 22.162 139.585 21.0019 138.485 20.1418C137.404 19.2817 135.904 18.7517 133.984 18.5517L132.544 18.4017C131.664 18.3017 131.024 18.1116 130.624 17.8316C130.244 17.5516 130.054 17.1516 130.054 16.6315C130.054 16.0915 130.294 15.6514 130.774 15.3114C131.254 14.9714 131.934 14.8014 132.814 14.8014C133.794 14.8014 134.544 15.0014 135.064 15.4014C135.584 15.8015 135.864 16.2815 135.904 16.8415H139.655C139.595 15.1414 138.945 13.8513 137.704 12.9712C136.464 12.0911 134.844 11.6511 132.844 11.6511C131.564 11.6511 130.424 11.8511 129.424 12.2512C128.444 12.6312 127.674 13.2012 127.114 13.9613C126.554 14.7214 126.274 15.6614 126.274 16.7815C126.274 18.1817 126.764 19.3017 127.744 20.1418C128.724 20.9819 130.124 21.5019 131.944 21.7019L133.384 21.852C134.464 21.952 135.224 22.162 135.664 22.482C136.124 22.802 136.354 23.2321 136.354 23.7721C136.354 24.3922 136.054 24.8822 135.454 25.2422C134.874 25.6023 134.084 25.7823 133.084 25.7823C131.884 25.7823 131.004 25.5523 130.444 25.0922C129.884 24.6322 129.574 24.1222 129.514 23.5621H125.764C125.824 25.2422 126.484 26.5624 127.744 27.5224Z" fill="#181818"/>
<path fill-rule="evenodd" clip-rule="evenodd" d="M18.0078 0C8.06669 0 0.0078125 8.05888 0.0078125 18C0.0078125 27.9411 8.06669 36 18.0078 36C27.9489 36 36.0078 27.9411 36.0078 18C36.0078 8.05888 27.9489 0 18.0078 0ZM4.04401 18C4.04401 10.288 10.2958 4.0362 18.0078 4.0362C25.7198 4.0362 31.9716 10.288 31.9716 18C31.9716 25.0381 26.7646 30.8601 19.9927 31.8238V28.7437L23.5768 27.4206C25.6481 26.6559 27.0237 24.6817 27.0237 22.4738V16.4091C27.0237 15.2945 26.1202 14.391 25.0056 14.391C23.8911 14.391 22.9875 15.2945 22.9875 16.4091V22.4738C22.9875 22.9917 22.6649 23.4548 22.179 23.6341L19.9927 24.4412V8.46698C19.9927 7.35241 19.0892 6.44888 17.9746 6.44888C16.8601 6.44888 15.9565 7.35241 15.9565 8.46698V17.126L13.8356 16.343C13.3497 16.1637 13.027 15.7006 13.027 15.1827V12.5683C13.027 11.4537 12.1235 10.5502 11.0089 10.5502C9.89438 10.5502 8.99084 11.4537 8.99084 12.5683V15.1827C8.99084 17.3907 10.3665 19.3648 12.4378 20.1295L15.9565 21.4285V31.8142C9.21704 30.8221 4.04401 25.0151 4.04401 18Z" fill="#181818"/>
</svg>
