<svg width="127" height="36" viewBox="0 0 127 36" fill="none" xmlns="http://www.w3.org/2000/svg">
<path d="M60.615 21.7242V34.4991H64.7657V20.8941C64.7657 19.1723 64.3968 17.6504 63.6589 16.3283C62.921 15.0062 61.9064 13.9763 60.615 13.2384C59.3545 12.5005 57.894 12.1315 56.2338 12.1315C54.5735 12.1315 53.0823 12.5158 51.7602 13.2845C50.7644 13.8403 49.9342 14.5532 49.2698 15.423V1.57031H45.1191V34.4991H49.2698V21.7242C49.2698 20.6174 49.5158 19.6335 50.0077 18.7726C50.4997 17.9117 51.1761 17.2353 52.037 16.7434C52.8978 16.2514 53.8817 16.0055 54.9886 16.0055C56.6488 16.0055 58.0016 16.5435 59.047 17.6196C60.0924 18.6957 60.615 20.0639 60.615 21.7242Z" fill="#181818"/>
<path d="M72.0456 33.7612C73.4907 34.5606 75.1202 34.9603 76.9342 34.9603C78.779 34.9603 80.3931 34.5606 81.7767 33.7612C83.191 32.9311 84.2978 31.7935 85.0972 30.3484C85.8966 28.9034 86.2963 27.2277 86.2963 25.3215V12.5927H82.1456V25.137C82.1456 26.951 81.6845 28.3807 80.7621 29.426C79.8397 30.4406 78.5638 30.948 76.9342 30.948C75.8581 30.948 74.9204 30.7174 74.121 30.2562C73.3216 29.795 72.7067 29.1339 72.2762 28.2731C71.8765 27.3814 71.6767 26.3361 71.6767 25.137V12.5927H67.526V25.3215C67.526 27.2277 67.9257 28.9034 68.7251 30.3484C69.5245 31.7935 70.6313 32.9311 72.0456 33.7612Z" fill="#181818"/>
<path fill-rule="evenodd" clip-rule="evenodd" d="M99.6996 34.9603C97.5166 34.9603 95.5489 34.4683 93.7964 33.4845C92.0439 32.4699 90.6603 31.1017 89.6457 29.3799C88.6311 27.6581 88.1238 25.7058 88.1238 23.5228C88.1238 21.3706 88.6157 19.4336 89.5996 17.7119C90.6142 15.9901 91.967 14.6373 93.658 13.6534C95.3798 12.6388 97.3014 12.1315 99.4229 12.1315C101.452 12.1315 103.235 12.5927 104.773 13.5151C106.341 14.4374 107.555 15.7134 108.416 17.3429C109.308 18.9725 109.753 20.8172 109.753 22.8772C109.753 23.1846 109.738 23.5228 109.707 23.8918C109.677 24.23 109.615 24.6297 109.523 25.0909H92.3673C92.5133 25.944 92.7744 26.728 93.1507 27.4429C93.7656 28.5805 94.6419 29.4722 95.7795 30.1178C96.9171 30.7327 98.2238 31.0402 99.6996 31.0402C100.929 31.0402 102.052 30.825 103.066 30.3945C104.112 29.9641 105.003 29.3184 105.741 28.4575L108.416 31.1785C107.371 32.4084 106.079 33.3461 104.542 33.9918C103.036 34.6375 101.421 34.9603 99.6996 34.9603ZM93.1046 19.4644C92.76 20.1174 92.517 20.8399 92.3757 21.632H105.708C105.595 20.7253 105.36 19.9259 105.003 19.2338C104.481 18.1884 103.743 17.389 102.79 16.8356C101.836 16.2514 100.683 15.9594 99.3306 15.9594C97.9163 15.9594 96.6711 16.2668 95.595 16.8817C94.5189 17.4967 93.6888 18.3575 93.1046 19.4644Z" fill="#181818"/>
<path d="M112.434 33.1155C113.357 33.6997 114.356 34.1609 115.432 34.4991C116.539 34.8066 117.707 34.9603 118.937 34.9603C121.397 34.9603 123.349 34.3607 124.794 33.1616C126.27 31.9626 127.008 30.333 127.008 28.2731C127.008 26.9202 126.716 25.8288 126.132 24.9986C125.578 24.1685 124.856 23.5075 123.964 23.0155C123.073 22.5236 122.135 22.1393 121.151 21.8626C120.167 21.5551 119.214 21.263 118.292 20.9863C117.4 20.7096 116.677 20.3714 116.124 19.9717C115.571 19.572 115.294 19.0032 115.294 18.2653C115.294 17.5274 115.601 16.9586 116.216 16.5589C116.862 16.1285 117.784 15.9132 118.983 15.9132C120.121 15.9132 121.136 16.1285 122.027 16.5589C122.95 16.9893 123.718 17.6043 124.333 18.4037L127.008 15.7288C126.147 14.5297 125.04 13.6381 123.687 13.0539C122.365 12.439 120.843 12.1315 119.122 12.1315C117.492 12.1315 116.093 12.3928 114.925 12.9155C113.787 13.4382 112.896 14.1915 112.25 15.1753C111.604 16.1285 111.282 17.2661 111.282 18.5881C111.282 19.9102 111.558 20.9709 112.112 21.7703C112.696 22.5697 113.434 23.2 114.325 23.6612C115.217 24.1224 116.155 24.5067 117.139 24.8142C118.153 25.0909 119.106 25.383 119.998 25.6904C120.89 25.9671 121.612 26.3361 122.166 26.7973C122.75 27.2277 123.042 27.8426 123.042 28.642C123.042 29.4414 122.688 30.0717 121.981 30.5329C121.274 30.9633 120.275 31.1785 118.983 31.1785C117.692 31.1785 116.524 30.948 115.478 30.4868C114.433 29.9948 113.511 29.2569 112.711 28.2731L110.036 30.948C110.713 31.7781 111.512 32.5006 112.434 33.1155Z" fill="#181818"/>
<path d="M123.123 5.23703V6.05435H122.139V8.54098H121.205V6.05435H120.221V5.23703H123.123Z" fill="#181818"/>
<path d="M126.957 5.1875V8.55584H126.023V6.9212L125.339 7.68899H125.059L124.375 6.9212V8.55584H123.441V5.1875H123.771L125.199 6.624L126.628 5.1875H126.957Z" fill="#181818"/>
<path d="M5.31367 10.6133C6.60622 14.7577 11.0137 17.0695 15.1581 15.777C19.3025 14.4844 29.1185 7.73654 27.826 3.59214C26.5334 -0.552261 14.6218 -0.523766 10.4774 0.768786C6.33299 2.06134 4.02111 6.46886 5.31367 10.6133Z" fill="#181818"/>
<path d="M2.81074 33.337C5.24329 35.7696 9.18681 35.7696 11.6194 33.337C14.0519 30.9045 18.456 22.5565 16.0239 20.1239C13.5913 17.6916 5.24329 22.0959 2.81074 24.5282C0.37819 26.9608 0.37819 30.9045 2.81074 33.337Z" fill="#181818"/>
<path d="M26.0858 35.7284C30.2792 36.8519 34.5895 34.3635 35.7132 30.17C36.8365 25.9766 36.3828 14.0738 32.1893 12.9501C27.9959 11.8265 21.6514 21.9077 20.5277 26.1012C19.4039 30.2944 21.8924 34.6046 26.0858 35.7284Z" fill="#181818"/>
</svg>
