<svg width="159" height="36" viewBox="0 0 159 36" fill="none" xmlns="http://www.w3.org/2000/svg">
<path d="M69.2442 5.37563C69.7955 5.95454 70.6363 6.244 71.7666 6.244C72.8969 6.244 73.7239 5.95454 74.2477 5.37563C74.7714 4.76915 75.0333 4.02483 75.0333 3.14267C75.0333 2.20539 74.7714 1.44728 74.2477 0.868371C73.7239 0.289456 72.8969 0 71.7666 0C70.6363 0 69.7955 0.289456 69.2442 0.868371C68.7204 1.44728 68.4585 2.20539 68.4585 3.14267C68.4585 4.02483 68.7204 4.76915 69.2442 5.37563Z" fill="#181818"/>
<path d="M42.9941 8.93181L50.0238 31.3854H59.2451L65.3237 8.93181H59.7826L55.2089 26.6714H54.2325L48.9073 8.93181H42.9941Z" fill="#181818"/>
<path d="M88.1083 32.0883C85.0208 32.0883 82.5948 31.4405 80.8305 30.1449C79.0938 28.8216 78.1841 27.0022 78.1014 24.6865H83.2703C83.353 25.4584 83.7802 26.1614 84.5521 26.7954C85.324 27.4295 86.537 27.7465 88.191 27.7465C89.5694 27.7465 90.6583 27.4984 91.4577 27.0022C92.2848 26.506 92.6983 25.8306 92.6983 24.976C92.6983 24.2317 92.3812 23.639 91.7472 23.1979C91.1407 22.7568 90.0932 22.4674 88.6045 22.3295L86.6197 22.1228C84.1111 21.8471 82.1813 21.1303 80.8305 19.9725C79.4797 18.8147 78.8043 17.2709 78.8043 15.3412C78.8043 13.7974 79.1903 12.5018 79.9622 11.4542C80.7341 10.4067 81.7954 9.62099 83.1462 9.09721C84.5246 8.54587 86.0959 8.27019 87.8602 8.27019C90.6169 8.27019 92.8499 8.87667 94.5591 10.0896C96.2682 11.3026 97.1642 13.0807 97.2469 15.4239H92.078C92.0229 14.652 91.6369 13.9904 90.9202 13.4391C90.2034 12.8877 89.1697 12.612 87.8189 12.612C86.6059 12.612 85.6686 12.8464 85.007 13.315C84.3454 13.7837 84.0146 14.3901 84.0146 15.1345C84.0146 15.8512 84.2765 16.4025 84.8002 16.7885C85.3516 17.1744 86.2337 17.4363 87.4467 17.5742L89.4315 17.7809C92.078 18.0566 94.1455 18.7871 95.6342 19.9725C97.1504 21.1579 97.9085 22.7568 97.9085 24.7692C97.9085 26.2579 97.495 27.5535 96.668 28.6562C95.8685 29.7313 94.7383 30.5721 93.2772 31.1786C91.8161 31.7851 90.0932 32.0883 88.1083 32.0883Z" fill="#181818"/>
<path d="M101.251 5.37563C101.802 5.95454 102.643 6.244 103.773 6.244C104.903 6.244 105.731 5.95454 106.254 5.37563C106.778 4.76915 107.04 4.02483 107.04 3.14267C107.04 2.20539 106.778 1.44728 106.254 0.868371C105.731 0.289456 104.903 0 103.773 0C102.643 0 101.802 0.289456 101.251 0.868371C100.727 1.44728 100.465 2.20539 100.465 3.14267C100.465 4.02483 100.727 4.76915 101.251 5.37563Z" fill="#181818"/>
<path fill-rule="evenodd" clip-rule="evenodd" d="M122.761 32.1711C120.777 32.1711 119.026 31.854 117.51 31.22C115.994 30.5859 114.712 29.7313 113.664 28.6562C112.617 27.5535 111.817 26.313 111.266 24.9346C110.742 23.5563 110.48 22.1228 110.48 20.6341V19.7658C110.48 18.222 110.756 16.7609 111.307 15.3826C111.886 13.9766 112.699 12.7361 113.747 11.661C114.822 10.5583 116.118 9.70369 117.634 9.09721C119.15 8.46316 120.859 8.14614 122.761 8.14614C124.664 8.14614 126.373 8.46316 127.889 9.09721C129.405 9.70369 130.687 10.5583 131.735 11.661C132.81 12.7361 133.623 13.9766 134.174 15.3826C134.726 16.7609 135.001 18.222 135.001 19.7658V20.6341C135.001 22.1228 134.726 23.5563 134.174 24.9346C133.65 26.313 132.865 27.5535 131.817 28.6562C130.77 29.7313 129.488 30.5859 127.972 31.22C126.455 31.854 124.719 32.1711 122.761 32.1711ZM122.761 27.2503C124.167 27.2503 125.353 26.947 126.318 26.3406C127.282 25.7065 128.013 24.8657 128.509 23.8182C129.005 22.743 129.253 21.5301 129.253 20.1793C129.253 18.8009 128.992 17.5879 128.468 16.5404C127.972 15.4653 127.227 14.6245 126.235 14.018C125.27 13.3839 124.112 13.0669 122.761 13.0669C121.411 13.0669 120.239 13.3839 119.247 14.018C118.282 14.6245 117.537 15.4653 117.014 16.5404C116.49 17.5879 116.228 18.8009 116.228 20.1793C116.228 21.5301 116.476 22.743 116.972 23.8182C117.496 24.8657 118.24 25.7065 119.205 26.3406C120.17 26.947 121.355 27.2503 122.761 27.2503Z" fill="#181818"/>
<path d="M143.011 12.8602C142.814 13.3541 142.648 13.8891 142.515 14.465V8.93181H137.967V31.3854H143.714V18.1944C143.714 16.7334 144.142 15.5755 144.996 14.7209C145.878 13.8388 147.022 13.3977 148.428 13.3977C149.807 13.3977 150.882 13.825 151.654 14.6796C152.453 15.5342 152.853 16.6507 152.853 18.029V31.3854H158.601V18.5252C158.601 15.1069 157.912 12.5431 156.533 10.834C155.155 9.09721 153.129 8.22884 150.455 8.22884H150.206C148.415 8.22884 146.912 8.61478 145.699 9.38667C144.514 10.1586 143.618 11.3164 143.011 12.8602Z" fill="#181818"/>
<path d="M69.6577 13.2323V31.3854H75.4055V8.93181H66.515V13.2323H69.6577Z" fill="#181818"/>
<path d="M101.664 13.2323V31.3854H107.412V8.93181H98.5216V13.2323H101.664Z" fill="#181818"/>
<mask id="path-2-inside-1_90_8720" fill="white">
<path fill-rule="evenodd" clip-rule="evenodd" d="M18.1348 36C28.0759 36 36.1348 27.9411 36.1348 18C36.1348 8.05887 28.0759 0 18.1348 0C8.19364 0 0.134766 8.05887 0.134766 18C0.134766 27.9411 8.19364 36 18.1348 36ZM31.382 16.1318C29.7036 18.0944 27.3395 19.3167 24.7202 19.3167C19.6284 19.3167 15.5007 14.6976 15.5007 8.99967C15.5007 7.56614 15.762 6.2009 16.2341 4.96033C9.85364 5.92939 4.96436 11.4385 4.96436 18.0896C4.96436 20.0302 5.38058 21.8736 6.12863 23.5353C6.88746 22.8293 7.95394 22.39 9.13509 22.39C11.4385 22.39 13.3058 24.0608 13.3058 26.1217C13.3058 27.5057 12.4639 28.7136 11.2133 29.3579C13.2524 30.6331 15.6626 31.3701 18.2448 31.3701C25.5795 31.3701 31.5253 25.4242 31.5253 18.0896C31.5253 17.4244 31.4764 16.7707 31.382 16.1318Z"/>
</mask>
<path fill-rule="evenodd" clip-rule="evenodd" d="M18.1348 36C28.0759 36 36.1348 27.9411 36.1348 18C36.1348 8.05887 28.0759 0 18.1348 0C8.19364 0 0.134766 8.05887 0.134766 18C0.134766 27.9411 8.19364 36 18.1348 36ZM31.382 16.1318C29.7036 18.0944 27.3395 19.3167 24.7202 19.3167C19.6284 19.3167 15.5007 14.6976 15.5007 8.99967C15.5007 7.56614 15.762 6.2009 16.2341 4.96033C9.85364 5.92939 4.96436 11.4385 4.96436 18.0896C4.96436 20.0302 5.38058 21.8736 6.12863 23.5353C6.88746 22.8293 7.95394 22.39 9.13509 22.39C11.4385 22.39 13.3058 24.0608 13.3058 26.1217C13.3058 27.5057 12.4639 28.7136 11.2133 29.3579C13.2524 30.6331 15.6626 31.3701 18.2448 31.3701C25.5795 31.3701 31.5253 25.4242 31.5253 18.0896C31.5253 17.4244 31.4764 16.7707 31.382 16.1318Z" fill="#181818"/>
<path d="M31.382 16.1318L34.0269 15.741L33.1682 9.92941L29.3501 14.3942L31.382 16.1318ZM16.2341 4.96033L18.7328 5.9113L20.3626 1.62909L15.8326 2.31709L16.2341 4.96033ZM6.12863 23.5353L3.69071 24.6328L5.22072 28.0316L7.9497 25.4927L6.12863 23.5353ZM11.2133 29.3579L9.9888 26.9813L5.81161 29.1333L9.79574 31.6247L11.2133 29.3579ZM33.4612 18C33.4612 26.4646 26.5993 33.3265 18.1348 33.3265V38.6735C29.5525 38.6735 38.8083 29.4177 38.8083 18H33.4612ZM18.1348 2.67355C26.5993 2.67355 33.4612 9.53543 33.4612 18H38.8083C38.8083 6.58232 29.5525 -2.67355 18.1348 -2.67355V2.67355ZM2.80831 18C2.80831 9.53543 9.6702 2.67355 18.1348 2.67355V-2.67355C6.71708 -2.67355 -2.53878 6.58232 -2.53878 18H2.80831ZM18.1348 33.3265C9.6702 33.3265 2.80831 26.4646 2.80831 18H-2.53878C-2.53878 29.4177 6.71708 38.6735 18.1348 38.6735V33.3265ZM24.7202 21.9903C28.2074 21.9903 31.2866 20.357 33.4139 17.8693L29.3501 14.3942C28.1207 15.8319 26.4715 16.6432 24.7202 16.6432V21.9903ZM12.8271 8.99967C12.8271 15.8835 17.877 21.9903 24.7202 21.9903V16.6432C21.3798 16.6432 18.1742 13.5118 18.1742 8.99967H12.8271ZM13.7354 4.00935C13.1479 5.55306 12.8271 7.24052 12.8271 8.99967H18.1742C18.1742 7.89176 18.376 6.84875 18.7328 5.9113L13.7354 4.00935ZM7.6379 18.0896C7.6379 12.7799 11.5419 8.37718 16.6356 7.60356L15.8326 2.31709C8.16536 3.4816 2.29081 10.0971 2.29081 18.0896H7.6379ZM8.56655 22.4379C7.97076 21.1143 7.6379 19.6444 7.6379 18.0896H2.29081C2.29081 20.4159 2.7904 22.6328 3.69071 24.6328L8.56655 22.4379ZM9.13509 19.7165C7.29219 19.7165 5.57124 20.4022 4.30756 21.5779L7.9497 25.4927C8.20368 25.2565 8.61568 25.0636 9.13509 25.0636V19.7165ZM15.9794 26.1217C15.9794 22.3123 12.6277 19.7165 9.13509 19.7165V25.0636C9.64114 25.0636 10.046 25.2468 10.3015 25.4755C10.5524 25.6999 10.6323 25.9325 10.6323 26.1217H15.9794ZM12.4377 31.7346C14.4404 30.7028 15.9794 28.6528 15.9794 26.1217H10.6323C10.6323 26.3586 10.4873 26.7244 9.9888 26.9813L12.4377 31.7346ZM18.2448 28.6965C16.1783 28.6965 14.2573 28.1082 12.6308 27.0911L9.79574 31.6247C12.2475 33.1579 15.1468 34.0436 18.2448 34.0436V28.6965ZM28.8518 18.0896C28.8518 23.9476 24.1029 28.6965 18.2448 28.6965V34.0436C27.056 34.0436 34.1989 26.9008 34.1989 18.0896H28.8518ZM28.7372 16.5225C28.8125 17.0325 28.8518 17.5556 28.8518 18.0896H34.1989C34.1989 17.2932 34.1403 16.5089 34.0269 15.741L28.7372 16.5225Z" fill="#181818" mask="url(#path-2-inside-1_90_8720)"/>
</svg>
