<svg width="199" height="36" viewBox="0 0 199 36" fill="none" xmlns="http://www.w3.org/2000/svg">
<path d="M63.9824 32.162C61.1321 32.162 58.6126 31.6021 56.424 30.4823C54.2354 29.3371 52.543 27.7211 51.3469 25.6342C50.1508 23.5474 49.5527 21.0916 49.5527 18.2667C49.5527 15.4418 50.1508 12.986 51.3469 10.8991C52.543 8.78686 54.2354 7.17084 56.424 6.05107C58.6126 4.90586 61.1321 4.33325 63.9824 4.33325C65.9166 4.33325 67.6217 4.53684 69.0977 4.94403C70.5992 5.32577 71.9735 5.93655 73.2205 6.77637V12.3116C72.1007 11.3954 70.8155 10.7337 69.3649 10.3265C67.9398 9.8939 66.311 9.67758 64.4787 9.67758C62.7736 9.67758 61.2339 10.0339 59.8597 10.7464C58.5109 11.4336 57.442 12.4261 56.6531 13.724C55.8641 15.0219 55.4697 16.5361 55.4697 18.2667C55.4697 20.0227 55.826 21.5624 56.5385 22.8857C57.2766 24.1836 58.3073 25.1889 59.6306 25.9015C60.954 26.614 62.4809 26.9703 64.2115 26.9703C65.7893 26.9703 67.1636 26.6904 68.3342 26.1305V20.977H64.0206V16.7016H73.9458V29.5661C71.4263 31.2967 68.1052 32.162 63.9824 32.162Z" fill="#181818"/>
<path d="M75.2858 13.2659H80.8591V15.8999C81.5972 15.0092 82.6278 14.3348 83.9512 13.8767C85.2746 13.3932 86.7761 13.1514 88.4557 13.1514V17.5414C86.6997 17.5414 85.1473 17.8086 83.7985 18.343C82.4752 18.8775 81.559 19.6918 81.05 20.7862V31.5893H75.2858V13.2659Z" fill="#181818"/>
<path d="M99.533 32.162C96.021 32.162 93.2597 31.3221 91.2493 29.6425C89.2388 27.9374 88.2335 25.5579 88.2335 22.504C88.2335 19.4755 89.1243 17.0833 90.9057 15.3273C92.7126 13.5713 95.283 12.6933 98.6168 12.6933C100.805 12.6933 102.663 13.1005 104.19 13.9149C105.717 14.7293 106.875 15.8617 107.664 17.3123C108.453 18.7375 108.847 20.3535 108.847 22.1604V24.489H93.7306C94.1377 26.8303 96.3264 28.001 100.296 28.001C101.467 28.001 102.676 27.8992 103.923 27.6956C105.17 27.492 106.252 27.2121 107.168 26.8558V30.9022C106.277 31.284 105.132 31.5893 103.732 31.8184C102.332 32.0474 100.933 32.162 99.533 32.162ZM103.389 20.748C103.312 19.5264 102.854 18.5848 102.014 17.9231C101.174 17.236 100.017 16.8924 98.5405 16.8924C97.0899 16.8924 95.9446 17.236 95.1048 17.9231C94.265 18.6103 93.8069 19.5519 93.7306 20.748H103.389Z" fill="#181818"/>
<path d="M120.663 32.162C117.151 32.162 114.39 31.3221 112.379 29.6425C110.369 27.9374 109.363 25.5579 109.363 22.504C109.363 19.4755 110.254 17.0833 112.035 15.3273C113.842 13.5713 116.413 12.6933 119.747 12.6933C121.935 12.6933 123.793 13.1005 125.32 13.9149C126.847 14.7293 128.005 15.8617 128.794 17.3123C129.583 18.7375 129.977 20.3535 129.977 22.1604V24.489H114.86C115.268 26.8303 117.456 28.001 121.426 28.001C122.597 28.001 123.806 27.8992 125.053 27.6956C126.3 27.492 127.381 27.2121 128.298 26.8558V30.9022C127.407 31.284 126.262 31.5893 124.862 31.8184C123.462 32.0474 122.062 32.162 120.663 32.162ZM124.518 20.748C124.442 19.5264 123.984 18.5848 123.144 17.9231C122.304 17.236 121.146 16.8924 119.67 16.8924C118.22 16.8924 117.074 17.236 116.235 17.9231C115.395 18.6103 114.937 19.5519 114.86 20.748H124.518Z" fill="#181818"/>
<path d="M131.257 13.2659H136.83V15.5182C137.67 14.5766 138.662 13.8767 139.808 13.4186C140.978 12.9351 142.2 12.6933 143.472 12.6933C145.966 12.6933 147.824 13.3677 149.046 14.7165C150.293 16.0399 150.916 17.8341 150.916 20.099V31.5893H145.152V20.748C145.152 18.3812 144.058 17.1978 141.869 17.1978C140.902 17.1978 139.998 17.4396 139.159 17.9231C138.319 18.3812 137.606 19.0683 137.021 19.9845V31.5893H131.257V13.2659Z" fill="#181818"/>
<path d="M156.002 10.4411C155.111 10.4411 154.361 10.1484 153.75 9.56306C153.139 8.97773 152.834 8.2397 152.834 7.34898C152.834 6.48371 153.139 5.75841 153.75 5.17307C154.361 4.56229 155.111 4.2569 156.002 4.2569C156.893 4.2569 157.644 4.56229 158.254 5.17307C158.865 5.75841 159.171 6.48371 159.171 7.34898C159.171 8.2397 158.865 8.97773 158.254 9.56306C157.644 10.1484 156.893 10.4411 156.002 10.4411ZM153.101 13.2659H158.903V31.5893H153.101V13.2659Z" fill="#181818"/>
<path d="M168.734 32.162C167.36 32.162 165.884 32.0093 164.306 31.7039C162.754 31.4239 161.532 31.0167 160.641 30.4823V25.9778C161.659 26.5886 162.881 27.0848 164.306 27.4666C165.731 27.8483 167.055 28.0392 168.276 28.0392C169.32 28.0392 170.083 27.9501 170.567 27.772C171.05 27.5938 171.292 27.263 171.292 26.7794C171.292 26.3977 171.152 26.0923 170.872 25.8633C170.592 25.6088 170.159 25.3925 169.574 25.2143C169.014 25.0107 168.073 24.7181 166.749 24.3363C165.197 23.8782 163.975 23.4202 163.085 22.9621C162.219 22.4785 161.558 21.8805 161.1 21.1679C160.667 20.4553 160.451 19.5391 160.451 18.4194C160.451 16.5107 161.201 15.0855 162.703 14.1439C164.23 13.1768 166.291 12.6933 168.887 12.6933C170.159 12.6933 171.47 12.8333 172.819 13.1132C174.193 13.3677 175.249 13.7113 175.987 14.1439V18.5339C175.249 18.0504 174.282 17.6559 173.086 17.3505C171.915 17.0451 170.77 16.8924 169.65 16.8924C168.607 16.8924 167.793 16.9942 167.207 17.1978C166.647 17.4014 166.368 17.7832 166.368 18.343C166.368 18.8266 166.635 19.1956 167.169 19.4501C167.729 19.7046 168.76 20.0227 170.261 20.4044L171.025 20.5953C172.628 21.0279 173.875 21.5115 174.766 22.0459C175.656 22.5549 176.28 23.1784 176.636 23.9164C177.018 24.629 177.209 25.5324 177.209 26.6268C177.209 28.3064 176.484 29.6552 175.033 30.6732C173.582 31.6657 171.483 32.162 168.734 32.162Z" fill="#181818"/>
<path d="M178.541 3.37891H184.306V15.3655C185.171 14.4748 186.151 13.8131 187.245 13.3804C188.339 12.9224 189.51 12.6933 190.757 12.6933C193.251 12.6933 195.109 13.3677 196.33 14.7165C197.577 16.0399 198.201 17.8341 198.201 20.099V31.5893H192.437V20.748C192.437 18.3812 191.342 17.1978 189.154 17.1978C188.187 17.1978 187.283 17.4396 186.443 17.9231C185.604 18.3812 184.891 19.0683 184.306 19.9845V31.5893H178.541V3.37891Z" fill="#181818"/>
<path fill-rule="evenodd" clip-rule="evenodd" d="M29.8676 8.77997C29.8676 13.629 25.9366 17.5599 21.0876 17.5599C16.2385 17.5599 12.3076 13.629 12.3076 8.77997C12.3076 3.93093 16.2385 0 21.0876 0C25.9366 0 29.8676 3.93093 29.8676 8.77997ZM0.664402 16.9219C10.23 16.2771 18.5667 23.4389 19.3432 33.0246C19.4236 34.018 19.4198 34.9987 19.3376 35.9597C9.77206 36.6045 1.43536 29.4428 0.658849 19.857C0.578384 18.8636 0.582231 17.883 0.664402 16.9219ZM25.5266 35.6241C35.1124 34.8476 42.2741 26.5109 41.6294 16.9454C40.6683 16.8632 39.6876 16.8594 38.6943 16.9399C29.1086 17.7164 21.9468 26.053 22.5916 35.6186C23.5526 35.7007 24.5333 35.7046 25.5266 35.6241Z" fill="#181818"/>
</svg>
