<svg width="118" height="36" viewBox="0 0 118 36" fill="none" xmlns="http://www.w3.org/2000/svg">
<path d="M22.829 27.7633C23.0083 29.9034 22.2835 32.1057 20.6517 33.7506C19.0199 35.3954 16.8222 36.139 14.6788 35.9787C14.4994 33.8386 15.2242 31.6363 16.856 29.9915C18.4878 28.3466 20.6855 27.603 22.829 27.7633Z" fill="#181818"/>
<path d="M18.9464 24.7894C16.8072 27.0751 13.7169 28.4453 10.3429 28.2913C6.96935 28.1374 4.01715 26.4918 2.09539 24.0212C4.23457 21.7356 7.32492 20.3654 10.6989 20.5193C14.0725 20.6733 17.0247 22.3189 18.9464 24.7894Z" fill="#181818"/>
<path d="M0.837891 17.4336C1.28475 12.0816 3.9873 6.95119 8.6948 3.57182C13.4021 0.192573 19.1306 -0.729675 24.3497 0.554586C23.9028 5.90663 21.2003 11.037 16.4928 14.4164C11.7855 17.7956 6.05702 18.7179 0.837891 17.4336Z" fill="#181818"/>
<path d="M87.6134 10.8706V14.1297H89.5706V31.1682H93.0499V14.1297H97.6167V10.8706H93.0499V7.53573C93.0499 6.57965 93.137 5.81207 93.3109 5.23258C93.4849 4.65322 93.7168 4.24768 94.0068 4.01584C94.3256 3.75517 94.7027 3.62484 95.1376 3.62484C95.4855 3.62484 95.848 3.69727 96.2249 3.84202C96.6308 3.95794 96.9787 4.26209 97.2687 4.75461L99.1823 1.88664C98.9793 1.5969 98.6895 1.32169 98.3126 1.06102C97.9646 0.800231 97.5442 0.582924 97.0512 0.409104C96.5583 0.235284 95.9929 0.148438 95.355 0.148438C94.1372 0.148438 93.0934 0.409104 92.2236 0.930564C91.3827 1.42308 90.7303 2.17625 90.2664 3.19022C89.8025 4.2042 89.5706 5.50778 89.5706 7.10111V10.8706H87.6134Z" fill="#181818"/>
<path d="M32.9746 4.22629L32.9746 31.1682H48.6318V27.6917H36.6714V4.22629H32.9746Z" fill="#181818"/>
<path fill-rule="evenodd" clip-rule="evenodd" d="M57.9041 31.6027C60.0497 31.6027 61.9054 31.1826 63.4712 30.3424C65.0659 29.4735 66.3852 28.1987 67.429 26.5185L64.6019 24.7368C63.8771 25.9535 62.9928 26.8661 61.949 27.4744C60.9051 28.0538 59.7018 28.3435 58.3391 28.3435C56.9763 28.3435 55.8165 28.0538 54.8597 27.4744C53.9029 26.8951 53.1779 26.0549 52.6851 24.9541C52.3105 24.1175 52.0782 23.147 51.9883 22.0427H67.7334V21.6515C67.7624 21.4198 67.7769 21.2025 67.7769 20.9997C67.7769 18.8849 67.3999 17.0599 66.646 15.5245C65.8922 13.989 64.8049 12.8158 63.3841 12.0046C61.9924 11.1646 60.3107 10.7445 58.3391 10.7445C56.3675 10.7445 54.6278 11.179 53.12 12.0481C51.6413 12.9172 50.4814 14.1339 49.6406 15.6983C48.8288 17.2627 48.4229 19.0877 48.4229 21.1736C48.4229 23.2304 48.8142 25.041 49.5972 26.6053C50.409 28.1697 51.5253 29.401 52.946 30.2991C54.3957 31.1682 56.0485 31.6027 57.9041 31.6027ZM52.7285 17.0888C52.4507 17.6769 52.2466 18.3432 52.1161 19.0877H63.9737C63.9068 18.1357 63.6667 17.2957 63.2537 16.5674C62.7897 15.6983 62.1374 15.0175 61.2965 14.525C60.4557 14.0325 59.4699 13.7863 58.3391 13.7863C57.0053 13.7863 55.86 14.076 54.9032 14.6554C53.9753 15.2058 53.2504 16.017 52.7285 17.0888Z" fill="#181818"/>
<path fill-rule="evenodd" clip-rule="evenodd" d="M81.94 20.2087C81.3932 19.8503 80.6973 19.5347 79.8524 19.2615C78.8956 18.9139 77.6924 18.7401 76.2425 18.7401C73.778 18.7401 71.8499 19.334 70.4581 20.5218C69.0953 21.6805 68.414 23.2304 68.414 25.1714C68.414 26.5329 68.7329 27.6917 69.3707 28.6477C70.0087 29.6038 70.8496 30.3424 71.8934 30.8639C72.9662 31.3564 74.1115 31.6027 75.3293 31.6027C76.431 31.6027 77.5328 31.3999 78.6346 30.9944C79.7655 30.5887 80.7078 29.9659 81.4616 29.1258C81.6419 28.9324 81.8013 28.7274 81.94 28.511V31.1682H85.4194V16.8281C85.4194 15.5245 85.0859 14.4237 84.4191 13.5256C83.7812 12.6276 82.8678 11.9467 81.6791 11.4832C80.5193 10.9907 79.1565 10.7445 77.5908 10.7445C75.7352 10.7445 74.1404 11.0197 72.8066 11.5701C71.5019 12.1205 70.4726 12.6709 69.7187 13.2213L71.4149 15.7851C71.7338 15.5534 72.1688 15.2782 72.7197 14.9595C73.2706 14.6408 73.9375 14.3656 74.7203 14.1339C75.5322 13.9022 76.431 13.7863 77.4169 13.7863C78.0257 13.7863 78.6056 13.8442 79.1565 13.9601C79.7074 14.076 80.1859 14.2642 80.5918 14.525C81.0266 14.7857 81.3602 15.1479 81.5921 15.6113C81.824 16.0459 81.94 16.6109 81.94 17.3062V20.2087ZM72.4587 23.1291C72.1107 23.6505 71.9368 24.2734 71.9368 24.9976C71.9368 25.7508 72.1107 26.4026 72.4587 26.953C72.8357 27.5034 73.3431 27.9235 73.981 28.2132C74.6478 28.4739 75.4018 28.6043 76.2425 28.6043C77.3153 28.6043 78.2722 28.387 79.1131 27.9524C79.983 27.5179 80.6643 26.9095 81.1572 26.1274C81.6791 25.3162 81.94 24.3892 81.94 23.3462V22.5945C81.3829 22.3236 80.8176 22.1106 80.2438 21.9557C79.1711 21.6371 78.0257 21.4777 76.808 21.4777C75.6772 21.4777 74.7493 21.6226 74.0244 21.9123C73.3285 22.2019 72.8066 22.6076 72.4587 23.1291Z" fill="#181818"/>
<path fill-rule="evenodd" clip-rule="evenodd" d="M112.714 30.3424C111.148 31.1826 109.293 31.6027 107.147 31.6027C105.292 31.6027 103.639 31.1682 102.189 30.2991C100.768 29.401 99.652 28.1697 98.8402 26.6053C98.0573 25.041 97.6659 23.2304 97.6659 21.1736C97.6659 19.0877 98.0718 17.2627 98.8836 15.6983C99.7245 14.1339 100.884 12.9172 102.363 12.0481C103.871 11.179 105.611 10.7445 107.582 10.7445C109.554 10.7445 111.235 11.1646 112.627 12.0046C114.048 12.8158 115.135 13.989 115.889 15.5245C116.643 17.0599 117.02 18.8849 117.02 20.9997C117.02 21.2025 117.005 21.4198 116.976 21.6515V22.0427H101.231C101.321 23.147 101.554 24.1175 101.928 24.9541C102.421 26.0549 103.146 26.8951 104.103 27.4744C105.06 28.0538 106.219 28.3435 107.582 28.3435C108.945 28.3435 110.148 28.0538 111.192 27.4744C112.236 26.8661 113.12 25.9535 113.845 24.7368L116.672 26.5185C115.628 28.1987 114.309 29.4735 112.714 30.3424ZM101.359 19.0877C101.49 18.3432 101.694 17.6769 101.972 17.0888C102.493 16.017 103.218 15.2058 104.146 14.6554C105.103 14.076 106.248 13.7863 107.582 13.7863C108.713 13.7863 109.699 14.0325 110.54 14.525C111.38 15.0175 112.033 15.6983 112.497 16.5674C112.91 17.2957 113.15 18.1357 113.217 19.0877H101.359Z" fill="#181818"/>
</svg>
