<svg width="20" height="20" viewBox="0 0 20 20" fill="none" xmlns="http://www.w3.org/2000/svg">
<path fill-rule="evenodd" clip-rule="evenodd" d="M10.0003 1.17578C5.13029 1.17578 1.17676 5.12931 1.17676 9.99931C1.17676 14.8693 5.13029 18.8228 10.0003 18.8228C14.8703 18.8228 18.8238 14.8693 18.8238 9.99931C18.8238 5.12931 14.8703 1.17578 10.0003 1.17578ZM10.5885 9.79284C10.5885 8.88519 10.5885 5.29343 10.5885 5.29343C10.5885 4.96872 10.325 4.70519 10.0003 4.70519C9.67558 4.70519 9.41205 4.96872 9.41205 5.29343V9.79284C9.41205 10.0599 9.50323 10.3193 9.6697 10.5281C10.1621 11.1428 11.8938 13.3081 11.8938 13.3081C12.0968 13.5617 12.4673 13.6028 12.7209 13.3999C12.9744 13.197 13.0156 12.8264 12.8126 12.5728L10.5885 9.79284Z" fill="#2F2F2F"/>
</svg>
