<svg width="129" height="40" viewBox="0 0 129 40" fill="none" xmlns="http://www.w3.org/2000/svg">
<g clip-path="url(#clip0_90_3473)">
<path d="M124.656 40H4.34384C2.13801 40 0.333008 38.2 0.333008 36V4C0.333008 1.8 2.13801 0 4.34384 0H124.656C126.861 0 128.666 1.8 128.666 4V36C128.666 38.2 126.861 40 124.656 40H124.656Z" fill="black"/>
<path fill-rule="evenodd" clip-rule="evenodd" d="M10.1582 19.6V9.1C10.1582 8.5 10.6599 8 11.1615 8C11.6624 8 11.8632 8.1 12.164 8.3L31.514 18.9C31.9149 19.1 32.1157 19.4 32.1157 19.7C32.1157 20 31.9157 20.3 31.514 20.5L12.164 31.1C11.964 31.2 11.6624 31.4 11.1615 31.4C10.6599 31.4 10.159 30.9 10.159 30.3V19.6H10.1582Z" fill="url(#paint0_linear_90_3473)"/>
<path fill-rule="evenodd" clip-rule="evenodd" d="M22.6918 19.7L10.9609 8H11.1609C11.6626 8 11.8634 8.1 12.1643 8.3L26.4009 16.1L22.6918 19.7Z" fill="url(#paint1_linear_90_3473)"/>
<path fill-rule="evenodd" clip-rule="evenodd" d="M26.2997 23.2004L22.6914 19.6004L26.4006 15.9004L31.5139 18.7004C31.9147 18.9004 32.1156 19.2004 32.1156 19.5004C32.1156 19.8004 31.9156 20.1004 31.5139 20.3004L26.2997 23.2004Z" fill="url(#paint2_linear_90_3473)"/>
<path fill-rule="evenodd" clip-rule="evenodd" d="M11.0605 31.1996L22.6914 19.5996L26.2997 23.1996L12.1639 30.8996C11.863 31.0996 11.6622 31.1996 11.0605 31.1996C11.1605 31.1996 11.1605 31.1996 11.0605 31.1996Z" fill="url(#paint3_linear_90_3473)"/>
<path fill-rule="evenodd" clip-rule="evenodd" d="M71.6178 33.9C71.117 33.5 70.7153 32.8 70.5153 32.4L72.1195 31.7C72.2195 31.9 72.4195 32.2 72.6203 32.5C73.022 32.9 73.6228 33.3 74.2245 33.3C74.8262 33.3 75.5278 33 75.9295 32.5C76.2295 32 76.4303 31.5 76.4303 30.8V30.2C75.227 31.7 72.7212 31.5 71.317 29.9C69.8137 28.3 69.8137 25.6 71.317 24C72.8212 22.5 75.027 22.3 76.3303 23.7V23H78.0345V30.5C78.0345 32.4 77.3328 33.5 76.4303 34.2C75.8287 34.7 74.927 34.9 74.1245 34.9C73.222 34.8 72.3195 34.5 71.6178 33.9ZM113.627 34.3L115.331 30.3L112.324 23.4H114.028L116.134 28.3L118.239 23.4H119.944L115.331 34.3H113.627ZM105.506 30.5C105.004 30 104.804 29.3 104.804 28.6C104.804 28 105.004 27.4 105.406 27C106.108 26.3 107.11 26 108.213 26C108.914 26 109.516 26.1 110.018 26.4C110.018 25.2 109.015 24.7 108.213 24.7C107.511 24.7 106.809 25.1 106.509 25.8L105.004 25.2C105.305 24.5 106.108 23.2 108.113 23.2C109.115 23.2 110.118 23.5 110.719 24.2C111.321 24.9 111.522 25.7 111.522 26.8V31H109.817V30.3C109.617 30.6 109.215 30.8 108.914 31C108.514 31.2 108.013 31.3 107.511 31.3C106.909 31.2 106.007 31 105.506 30.5ZM52.0662 26.9C52.0662 24.9 53.5703 22.7 56.277 22.7C58.8845 22.7 60.4878 24.9 60.4878 26.9C60.4878 28.9 58.9845 31.1 56.277 31.1C53.5703 31.1 52.0662 28.9 52.0662 26.9ZM61.0895 26.9C61.0895 24.9 62.5937 22.7 65.3003 22.7C67.9078 22.7 69.512 24.9 69.512 26.9C69.512 28.9 68.0078 31.1 65.3012 31.1C62.6937 31.1 61.0895 28.9 61.0895 26.9ZM40.737 29.1C38.2303 26.6 38.3303 22.5 40.837 19.9C42.1403 18.6 43.7453 18 45.4495 18C47.0537 18 48.6578 18.6 49.8603 19.8L48.6578 21.1C46.8528 19.3 43.9453 19.4 42.2412 21.2C40.4362 23.1 40.4362 26 42.2412 27.9C44.0453 29.8 47.0537 29.9 48.8578 28C49.4595 27.4 49.6603 26.6 49.7603 25.8H45.5495V24H51.4645C51.5645 24.4 51.5645 24.9 51.5645 25.4C51.5645 26.9 50.9637 28.4 49.9612 29.4C48.8578 30.5 47.2537 31.1 45.6495 31.1C43.8453 31 42.0403 30.4 40.737 29.1ZM83.147 29.8C81.6428 28.2 81.6428 25.5 83.147 23.8C84.6512 22.2 87.1578 22.2 88.5612 23.8C89.0628 24.3 89.3637 25 89.6637 25.7L84.1495 28C84.4503 28.7 85.152 29.3 86.1545 29.3C87.057 29.3 87.6587 29 88.2603 28.1L89.7645 29.1C89.5645 29.3 89.3637 29.5 89.2628 29.7C87.5587 31.4 84.6512 31.4 83.147 29.8ZM93.5745 31V19.9H97.1828C99.2887 19.9 100.994 21.4 100.994 23.2C100.994 25 99.4895 26.5 97.5853 26.5H95.3787V30.9H93.5745V31ZM101.996 31V19.9H103.7V31H101.996ZM79.3378 30.8V18.4H81.142V30.8H79.3378ZM109.917 27.7C109.515 27.4 108.914 27.3 108.313 27.3C107.109 27.3 106.408 27.9 106.408 28.6C106.408 29.3 107.109 29.7 107.811 29.7C108.814 29.7 109.917 28.9 109.917 27.7ZM58.5837 26.9C58.5837 25.7 57.7812 24.4 56.277 24.4C54.7737 24.4 53.9712 25.7 53.9712 26.9C53.9712 28.1 54.7737 29.4 56.277 29.4C57.6812 29.4 58.5837 28.1 58.5837 26.9ZM67.607 26.9C67.607 25.7 66.8045 24.4 65.3012 24.4C63.797 24.4 62.9945 25.7 62.9945 26.9C62.9945 28.1 63.797 29.4 65.3012 29.4C66.8045 29.4 67.607 28.1 67.607 26.9ZM76.5295 27.6C76.5295 27.5 76.5295 27.4 76.6295 27.3V26.4C76.6295 26.3 76.5295 26.1 76.5295 26C76.2295 25 75.327 24.3 74.4245 24.3C73.2212 24.3 72.2187 25.5 72.2187 26.8C72.2187 28.2 73.2212 29.3 74.5245 29.3C75.327 29.4 76.1287 28.7 76.5295 27.6ZM83.8487 26.7L87.5587 25.1C87.1578 24.4 86.5562 24.2 86.0545 24.2C84.5503 24.3 83.6487 25.9 83.8487 26.7ZM99.1887 23.3C99.1887 22.3 98.387 21.6 97.2837 21.6H95.2787V25.1H97.3837C98.387 25.1 99.1887 24.3 99.1887 23.3Z" fill="white"/>
<path d="M114.83 32.2992H114.93V32.1992H114.83V32.2992Z" fill="white"/>
<path d="M39.3348 10.0992C39.3348 8.29922 40.6382 7.19922 42.2423 7.19922C43.3448 7.19922 44.0465 7.69922 44.5482 8.39922L43.7457 8.89922C43.4457 8.49922 42.944 8.19922 42.2423 8.19922C41.139 8.19922 40.3373 8.99922 40.3373 10.1992C40.3373 11.3992 41.139 12.1992 42.2423 12.1992C42.844 12.1992 43.3448 11.8992 43.5457 11.6992V10.7992H41.9415V9.89922H44.6482V11.9992C44.1473 12.5992 43.3448 12.9992 42.3423 12.9992C40.6382 12.9992 39.3348 11.7992 39.3348 10.0992ZM45.8515 12.8992V7.29922H49.6615V8.19922H46.7532V9.59922H49.5615V10.4992H46.7532V12.0992H49.6615V12.9992L45.8515 12.8992ZM52.469 12.8992V8.19922H50.764V7.29922H55.1756V8.19922H53.4715V12.8992H52.469ZM58.5848 12.8992V7.29922H59.5873V12.8992H58.5848ZM62.294 12.8992V8.19922H60.5898V7.29922H65.0015V8.19922H63.2965V12.8992H62.294ZM68.2098 10.0992C68.2098 8.39922 69.4123 7.19922 71.1173 7.19922C72.8215 7.19922 74.0248 8.39922 74.0248 10.0992C74.0248 11.7992 72.8215 12.9992 71.1165 12.9992C69.4123 12.9992 68.2098 11.6992 68.2098 10.0992ZM72.9215 10.0992C72.9215 8.89922 72.2198 8.09922 71.0165 8.09922C69.914 8.09922 69.1115 8.99922 69.1115 10.0992C69.1115 11.2992 69.814 12.0992 71.0165 12.0992C72.2198 12.0992 72.9215 11.1992 72.9215 10.0992ZM79.0373 12.8992L76.1298 8.89922V12.8992H75.1273V7.29922H76.1298L79.0381 11.1992V7.29922H80.0398V12.8992H79.0373Z" fill="white"/>
</g>
<defs>
<linearGradient id="paint0_linear_90_3473" x1="712.315" y1="-134.646" x2="1269.81" y2="2149" gradientUnits="userSpaceOnUse">
<stop stop-color="#006884"/>
<stop offset="1" stop-color="#8AD1D0"/>
</linearGradient>
<linearGradient id="paint1_linear_90_3473" x1="-105.271" y1="362.955" x2="1277.6" y2="1108.6" gradientUnits="userSpaceOnUse">
<stop stop-color="#24BBB6"/>
<stop offset="1" stop-color="#DBE692"/>
</linearGradient>
<linearGradient id="paint2_linear_90_3473" x1="493.334" y1="787.912" x2="493.334" y2="-6.92673" gradientUnits="userSpaceOnUse">
<stop stop-color="#FCC072"/>
<stop offset="1" stop-color="#F58A5B"/>
</linearGradient>
<linearGradient id="paint3_linear_90_3473" x1="180.962" y1="1055.53" x2="1131.36" y2="90.8368" gradientUnits="userSpaceOnUse">
<stop stop-color="#712B8F"/>
<stop offset="1" stop-color="#EA1D27"/>
</linearGradient>
<clipPath id="clip0_90_3473">
<rect width="128.333" height="40" fill="white" transform="translate(0.333008)"/>
</clipPath>
</defs>
</svg>
