<svg width="20" height="20" viewBox="0 0 20 20" fill="none" xmlns="http://www.w3.org/2000/svg">
<path fill-rule="evenodd" clip-rule="evenodd" d="M6.51963 12.5273H7.47434C8.1673 13.1599 9.04521 13.5382 10.0004 13.5382C10.8079 13.5382 11.5603 13.1247 12.1924 12.5273H13.4811C15.6109 12.5273 17.3533 14.2483 17.3533 16.3518V18.8212H2.64746V16.3518C2.64746 14.2483 4.38993 12.5273 6.51963 12.5273Z" fill="#2F2F2F"/>
<path d="M13.8668 6.14844C13.9866 6.77715 14.0048 7.85197 13.9144 8.51212C13.7799 9.49523 13.3899 10.3774 12.8291 11.0561C12.109 11.9274 11.1091 12.4664 9.99985 12.4664C8.89062 12.4664 7.89064 11.9274 7.1706 11.0561C6.60938 10.3769 6.21917 9.49395 6.08496 8.51C5.99496 7.85034 6.01314 6.77658 6.13289 6.14844L6.86283 6.28343C6.75093 6.87018 6.74148 7.9255 6.84145 8.53932C6.97113 9.33572 7.29333 10.0453 7.74641 10.5936C8.32712 11.2964 9.12416 11.7311 9.99985 11.7311C10.8755 11.7311 11.6726 11.2964 12.2533 10.5936C12.7095 10.0416 13.033 9.32594 13.1609 8.52284C13.258 7.9129 13.2479 6.86559 13.1369 6.28343L13.8668 6.14844Z" fill="#2F2F2F"/>
<path fill-rule="evenodd" clip-rule="evenodd" d="M10.0003 1.17578L16.7037 3.07506L15.0259 3.55043C14.9742 3.42295 14.8523 3.33002 14.7058 3.32004L10.3851 2.72675C10.2799 2.64255 10.1395 2.5953 10.0003 2.5953C9.72336 2.5953 9.44193 2.78219 9.44193 3.07506C9.44193 3.36792 9.72336 3.55481 10.0003 3.55481C10.1175 3.55481 10.2354 3.52135 10.3326 3.46056L13.6835 3.93077L10.0003 4.97433L3.29688 3.07506L10.0003 1.17578Z" fill="#2F2F2F"/>
<path fill-rule="evenodd" clip-rule="evenodd" d="M14.0318 4.12109V6.38276C14.0318 6.56886 13.8179 6.70249 13.5595 6.72123L9.99621 6.99203L6.44302 6.72123C6.18479 6.70155 5.9707 6.56894 5.9707 6.38276V4.12109L10.0012 5.26308L14.0318 4.12109Z" fill="#2F2F2F"/>
<path d="M10.0011 3.36923C10.2067 3.36923 10.3734 3.23673 10.3734 3.07329C10.3734 2.90984 10.2067 2.77734 10.0011 2.77734C9.79556 2.77734 9.62891 2.90984 9.62891 3.07329C9.62891 3.23673 9.79556 3.36923 10.0011 3.36923Z" fill="#2F2F2F"/>
<path d="M10.2365 2.89099C10.1341 2.88465 10.0458 2.96148 10.0394 3.06261C10.033 3.16373 10.1108 3.25087 10.2132 3.25721L14.4939 3.8579V7.05437C14.4939 7.15588 14.5773 7.23819 14.6801 7.23819C14.7828 7.23819 14.8662 7.15588 14.8662 7.05437V3.68586C14.8663 3.58964 14.7906 3.50866 14.692 3.50241L10.2365 2.89099Z" fill="#2F2F2F"/>
<path d="M14.6591 7.31711C14.8166 7.31711 14.9443 7.19103 14.9443 7.03551C14.9443 6.87998 14.8166 6.75391 14.6591 6.75391C14.5017 6.75391 14.374 6.87998 14.374 7.03551C14.374 7.19103 14.5017 7.31711 14.6591 7.31711Z" fill="#2F2F2F"/>
<path fill-rule="evenodd" clip-rule="evenodd" d="M14.3096 8.66736L14.6601 6.76172L15.0106 8.66736H14.3096Z" fill="#2F2F2F"/>
</svg>
