<svg width="30" height="30" viewBox="0 0 30 30" fill="none" xmlns="http://www.w3.org/2000/svg">
<path fill-rule="evenodd" clip-rule="evenodd" d="M15.4515 10.2374C18.0809 9.61848 26.5585 5.67047 25.9288 14.7149C24.5612 34.299 15.0009 25.9049 15.0009 25.9049C15.0009 25.9049 5.44056 34.2978 4.07411 14.7137C3.44812 5.73937 11.3813 9.57376 13.9998 10.2362C14.3505 10.3256 15.0569 10.3305 15.4515 10.2374ZM10.4923 5.98114C12.0366 6.79105 14.1277 5.76839 14.1277 5.76839C14.1277 5.76839 13.716 3.43174 12.1717 2.62062C10.6299 1.81071 8.5364 2.83337 8.5364 2.83337C8.5364 2.83337 8.94682 5.17002 10.4923 5.98114Z" stroke="#181818" stroke-width="2" stroke-linecap="round" stroke-linejoin="round"/>
<path d="M19.5452 12.8009C19.5452 12.8009 22.8286 13.1514 21.4451 18.0302M18.471 5.78004C18.471 5.78004 15.3167 4.78881 14.7285 9.83443" stroke="#181818" stroke-width="2" stroke-linecap="round" stroke-linejoin="round"/>
</svg>
