<svg width="30" height="30" viewBox="0 0 30 30" fill="none" xmlns="http://www.w3.org/2000/svg">
<path d="M10.9625 15.4828C10.9625 15.4828 10.7701 12.8654 10.9625 12.0195C11.1354 11.2553 12.6516 9.11479 14.1425 12.0195C14.608 12.9268 14.3614 14.336 14.3891 15.6191C14.4375 17.8448 14.3661 20.025 13.4339 20.9447L6.59467 27.6853L2.30859 23.4123L7.16038 18.6317C7.16038 18.6317 6.29741 12.8689 7.16038 11.1076C8.15586 9.07505 10.1537 4.98714 11.3635 3.06582C12.2391 1.6748 14.8465 2.23461 14.3891 4.46252C13.9317 6.6893 12.3083 10.5058 12.3083 10.5058M19.0393 15.4908C19.0393 15.4908 19.2317 12.8734 19.0393 12.0274C18.8653 11.2632 17.349 9.12388 15.8593 12.0274C15.3938 12.9359 15.6404 14.3439 15.6127 15.6282C15.5643 17.8538 15.6357 20.0341 16.5667 20.9527L23.4071 27.6932L27.6932 23.4213L22.8403 18.6396C22.8403 18.6396 23.7044 12.8768 22.8403 11.1156C21.8459 9.083 19.8492 4.99509 18.6383 3.07377C17.7627 1.68388 15.1553 2.2437 15.6127 4.47047C16.0701 6.69838 17.6935 10.5138 17.6935 10.5138" stroke="#181818" stroke-width="2" stroke-linecap="round" stroke-linejoin="round"/>
</svg>
