<svg width="30" height="30" viewBox="0 0 30 30" fill="none" xmlns="http://www.w3.org/2000/svg">
<path fill-rule="evenodd" clip-rule="evenodd" d="M23.9803 27.6919H6.01814C5.82429 27.6948 5.63586 27.627 5.48711 27.5007C5.33837 27.3744 5.23919 27.1981 5.20763 27.0038L3.56272 15.0003C3.12165 11.7965 4.12769 8.56611 6.31711 6.13353C8.50767 3.70326 11.6724 2.30859 14.9986 2.30859C18.3248 2.30859 21.4919 3.70326 23.6813 6.13584C25.8719 8.56726 26.8756 11.7988 26.4368 15.0014L24.7908 27.005C24.7597 27.1995 24.6606 27.3761 24.5118 27.5024C24.3629 27.6288 24.1742 27.6953 23.9803 27.6919Z" stroke="#181818" stroke-width="2"/>
<path d="M15.5451 11.7053L16.9558 9.64327M14.9983 17.1373V24.5539L12.1768 21.6896M14.9983 24.5551L17.8209 21.6896M21.6314 9.33271C14.4526 1.53968 8.36523 9.33271 8.36523 9.33271L12.2018 13.1103C12.2018 13.1103 14.7675 9.82453 17.7948 13.1103L21.6314 9.33271Z" stroke="#181818" stroke-width="2" stroke-linecap="round" stroke-linejoin="round"/>
</svg>
