<svg width="30" height="30" viewBox="0 0 30 30" fill="none" xmlns="http://www.w3.org/2000/svg">
<path fill-rule="evenodd" clip-rule="evenodd" d="M16.9234 11.9671L18.0373 12.5406C18.0373 12.5406 19.3908 10.102 21.032 12.2517C21.032 12.2517 21.411 11.9577 22.0827 11.7042C22.8728 11.406 23.6959 11.6834 24.2714 12.4336C24.2714 12.4336 23.8894 11.6938 24.0799 10.5592C24.1491 10.1508 24.2714 9.85782 23.8042 8.44993C23.4874 8.27329 22.581 9.21466 21.1182 8.14445C21.1182 8.14445 20.5638 7.19478 21.7308 6.10587C22.4467 5.43778 24.7937 4.80293 25.266 7.05763C25.266 7.05763 27.6922 9.4713 27.6922 13.828C27.6922 13.828 25.9447 17.4853 21.7198 15.9154C21.7198 15.9154 21.7559 18.2376 19.3477 19.8356C19.3477 19.8356 18.5376 23.7507 18.5907 25.3851H11.4091C11.4613 23.7507 10.6502 19.8367 10.6502 19.8367C8.24396 18.2376 8.28005 15.9154 8.28005 15.9154C4.05513 17.4843 2.30762 13.828 2.30762 13.828C2.30762 9.4713 4.73389 7.05763 4.73389 7.05763C5.20511 4.80293 7.55117 5.43778 8.26802 6.10587C9.43504 7.19478 8.8796 8.14445 8.8796 8.14445C7.41682 9.21466 6.51249 8.27329 6.19567 8.44993C5.72746 9.85782 5.85078 10.1508 5.91895 10.5592C6.10944 11.6938 5.72846 12.4336 5.72846 12.4336C6.30294 11.6834 7.12607 11.406 7.91611 11.7042C8.58785 11.9577 8.96683 12.2517 8.96683 12.2517C10.6081 10.102 11.9616 12.5406 11.9616 12.5406L13.0765 11.9671H16.9234Z" stroke="#181818" stroke-width="1.5" stroke-linecap="round" stroke-linejoin="round"/>
<path fill-rule="evenodd" clip-rule="evenodd" d="M17.5104 7.1619C17.5104 7.83732 17.2515 8.48507 16.7907 8.96267C16.3298 9.44026 15.7048 9.70857 15.0531 9.70857C14.4013 9.70857 13.7763 9.44026 13.3154 8.96267C12.8546 8.48507 12.5957 7.83732 12.5957 7.1619C12.5957 6.48648 12.8546 5.83873 13.3154 5.36114C13.7763 4.88354 14.4013 4.61523 15.0531 4.61523C15.7048 4.61523 16.3298 4.88354 16.7907 5.36114C17.2515 5.83873 17.5104 6.48648 17.5104 7.1619Z" stroke="#181818" stroke-width="1.5" stroke-linecap="round" stroke-linejoin="round"/>
</svg>
