<svg width="30" height="30" viewBox="0 0 30 30" fill="none" xmlns="http://www.w3.org/2000/svg">
<path d="M13.5421 12.1721V13.908L16.7922 16.9921C16.7922 16.9921 17.2519 17.6694 16.5023 18.3802C15.8361 19.0132 15.0941 18.6027 15.0941 18.6027L11.6007 15.2864L11.0264 14.743V10.9147C11.0264 9.40448 11.9998 9.30078 11.9998 9.30078H15.2099L20.33 14.1576C20.33 14.1576 23.592 17.1261 18.4308 19.966L19.0256 22.079H16.1876V27.693" stroke="#181818" stroke-width="1.5" stroke-linecap="round" stroke-linejoin="round"/>
<path d="M11.5204 15.2866L8.6543 22.0792H12.6885V27.6932M12.5642 6.88882H13.6966C15.0453 6.88882 16.0317 6.09376 16.0317 4.74778C16.0318 4.42742 15.9687 4.11018 15.846 3.81418C15.7234 3.51818 15.5435 3.24923 15.3167 3.0227C15.0899 2.79617 14.8206 2.61651 14.5242 2.49398C14.2279 2.37145 13.9102 2.30845 13.5895 2.30859C12.2408 2.30859 11.3377 2.34532 10.7731 4.19362C10.5113 5.04701 10.1382 7.73249 10.1382 7.73249C10.1382 7.73249 12.231 6.88882 12.5631 6.88882H12.5642Z" stroke="#181818" stroke-width="1.5" stroke-linecap="round" stroke-linejoin="round"/>
<path d="M16.1864 27.6934H12.6875" stroke="#181818" stroke-width="1.5"/>
</svg>
