<svg width="30" height="30" viewBox="0 0 30 30" fill="none" xmlns="http://www.w3.org/2000/svg">
<path d="M3.58398 9.56571C7.43356 8.42213 12.4597 9.60505 16.5809 13.0117C20.7668 16.4703 22.8763 21.2769 22.394 25.3131" stroke="#181818" stroke-width="2"/>
<path d="M12.5927 27.4394C11.6243 24.3412 12.4772 19.5879 15.1007 15.0428C17.7153 10.5129 21.3923 7.40329 24.5527 6.68109M14.2935 2.30859C14.065 4.77598 13.1182 7.67744 11.4796 10.5142C9.02617 14.7661 5.67032 17.745 2.81836 18.5357" stroke="#181818" stroke-width="2"/>
<path d="M15.0009 27.6932C22.0107 27.6932 27.6932 22.0107 27.6932 15.0009C27.6932 7.99113 22.0107 2.30859 15.0009 2.30859C7.99113 2.30859 2.30859 7.99113 2.30859 15.0009C2.30859 22.0107 7.99113 27.6932 15.0009 27.6932Z" stroke="#181818" stroke-width="2" stroke-linecap="square"/>
</svg>
