<svg width="48" height="40" viewBox="0 0 48 40" fill="none" xmlns="http://www.w3.org/2000/svg">
<path opacity="0.2" d="M47.6693 0V9.20347H44.8375C42.5563 9.20347 40.747 9.55746 39.4098 10.2654C38.0725 10.9734 37.0892 12.1926 36.4599 13.9232C35.8306 15.5751 35.516 17.817 35.516 20.6488V29.3803L32.0942 22.7727C32.6448 22.3794 33.4314 22.0648 34.4541 21.8288C35.4767 21.5141 36.5386 21.3568 37.6399 21.3568C40.2357 21.3568 42.3989 22.1827 44.1295 23.8347C45.8601 25.4079 46.7254 27.6104 46.7254 30.4423C46.7254 33.1168 45.8994 35.398 44.2475 37.2859C42.5956 39.0951 40.2357 39.9997 37.1679 39.9997C35.2013 39.9997 33.3528 39.5671 31.6222 38.7018C29.9703 37.7579 28.6331 36.1846 27.6104 33.9821C26.5878 31.7009 26.0765 28.5937 26.0765 24.6606V22.6547C26.0765 17.0697 26.8238 12.6253 28.3184 9.32147C29.8916 6.01766 32.1335 3.65779 35.044 2.24187C37.9545 0.747291 41.4943 0 45.6634 0H47.6693ZM21.5928 0V9.20347H18.7609C16.4797 9.20347 14.6705 9.55746 13.3332 10.2654C11.996 10.9734 11.0127 12.1926 10.3834 13.9232C9.75412 15.5751 9.43947 17.817 9.43947 20.6488V29.3803L6.01766 22.7727C6.5683 22.3794 7.35492 22.0648 8.37753 21.8288C9.40014 21.5141 10.4621 21.3568 11.5633 21.3568C14.1592 21.3568 16.3224 22.1827 18.053 23.8347C19.7836 25.4079 20.6488 27.6104 20.6488 30.4423C20.6488 33.1168 19.8229 35.398 18.171 37.2859C16.5191 39.0951 14.1592 39.9997 11.0914 39.9997C9.12482 39.9997 7.27626 39.5671 5.54569 38.7018C3.89378 37.7579 2.55652 36.1846 1.53391 33.9821C0.511305 31.7009 0 28.5937 0 24.6606V22.6547C0 17.0697 0.747291 12.6253 2.24187 9.32147C3.81512 6.01766 6.05699 3.65779 8.96749 2.24187C11.878 0.747291 15.4178 0 19.5869 0H21.5928Z" fill="#181818"/>
</svg>
