<svg width="76" height="76" viewBox="0 0 76 76" fill="none" xmlns="http://www.w3.org/2000/svg">
<circle cx="38" cy="38" r="38" fill="#BFDF03"/>
<path fill-rule="evenodd" clip-rule="evenodd" d="M37.9997 21C33.645 20.9999 29.2903 22.6578 25.9742 25.9739C19.342 32.6061 19.3419 43.3936 25.9742 50.0258C32.6064 56.6581 43.394 56.658 50.0262 50.0258C56.6583 43.3936 56.6575 32.607 50.0253 25.9747C46.7091 22.6586 42.3545 21.0001 37.9997 21ZM45.8459 30.1374C45.9937 30.1479 46.1379 30.1874 46.2704 30.2537C46.5377 30.3875 46.741 30.6219 46.8354 30.9055C46.9299 31.1891 46.9079 31.4986 46.7742 31.766L41.4815 42.3532C41.4016 42.513 41.2849 42.6515 41.141 42.7573C40.9971 42.8632 40.8301 42.9333 40.6538 42.962C40.4774 42.9906 40.2968 42.9769 40.1268 42.9221C39.9568 42.8672 39.8022 42.7728 39.6759 42.6465L35.3547 38.3253L30.8239 45.1207C30.658 45.3694 30.4001 45.5421 30.1069 45.6008C29.8137 45.6594 29.5092 45.5992 29.2604 45.4333C29.0117 45.2675 28.839 45.0096 28.7803 44.7164C28.7217 44.4232 28.7819 44.1187 28.9477 43.8699L34.2414 35.9304C34.3339 35.7917 34.4561 35.6752 34.5991 35.5893C34.7421 35.5035 34.9023 35.4505 35.0683 35.434C35.2343 35.4176 35.4018 35.4382 35.5589 35.4943C35.7159 35.5505 35.8586 35.6407 35.9765 35.7587L40.1638 39.9451L44.7581 30.7575C44.892 30.4904 45.1264 30.2873 45.4099 30.1929C45.5502 30.146 45.6983 30.1271 45.8459 30.1374Z" fill="#181818"/>
</svg>
