<svg width="76" height="76" viewBox="0 0 76 76" fill="none" xmlns="http://www.w3.org/2000/svg">
<circle cx="38" cy="38" r="38" fill="#BFDF03"/>
<path d="M50.3821 27.356C48.2287 27.2132 46.0754 27.0703 43.922 27.0703L42.9889 37.2846C42.9171 38.2132 42.1276 38.9275 41.1944 38.9275C41.1227 38.9275 41.1227 38.9275 41.0509 38.9275C38.8258 38.7132 36.5288 38.6417 34.3037 38.6417V40.9275C34.3037 41.5703 34.8062 41.9989 35.4522 41.9989C39.9742 41.6417 44.568 41.6417 49.0901 42.0703C49.7361 42.1417 50.2385 41.6417 50.3103 41.0703C50.6692 36.9275 51.0999 32.7846 51.4588 28.6417C51.4588 27.9275 51.0281 27.356 50.3821 27.356Z" fill="#181818"/>
<path d="M41.051 38.2125C41.697 38.2839 42.1995 37.8554 42.2712 37.2125C42.6301 33.0697 43.0608 28.9268 43.4197 24.7125C43.4915 24.0697 42.989 23.5697 42.4148 23.4982C37.5339 23.0697 32.7247 23.0697 27.8438 23.3554V38.1411C32.2222 37.8554 36.6725 37.8554 41.051 38.2125Z" fill="#181818"/>
<path d="M25.834 21C25.1162 21 24.542 21.5714 24.542 22.2857V53.708C24.542 54.4215 25.1204 55 25.834 55C26.5476 55 27.126 54.4215 27.126 53.708V22.2857C27.126 21.5714 26.5518 21 25.834 21Z" fill="#181818"/>
</svg>
