<svg width="76" height="76" viewBox="0 0 76 76" fill="none" xmlns="http://www.w3.org/2000/svg">
<circle cx="38" cy="38" r="38" fill="#BFDF03"/>
<path d="M48.4463 21.1077L42.4589 27.0915C42.2673 27.283 42.411 27.666 42.6984 27.666H45.3808C45.5724 27.666 45.7161 27.8574 45.7161 28.0489C44.1833 40.4474 25.1672 43.3196 21.2874 43.7504C21.1437 43.7504 21 43.8941 21 44.0855V45.9046C21 46.0961 21.1437 46.2397 21.3832 46.2397C23.2513 46.0482 29.3824 45.3302 35.6093 43.0803C44.9497 39.7772 51.0329 34.5593 51.7993 27.9532C51.7993 27.8096 51.943 27.666 52.1346 27.666H54.6733C54.9607 27.666 55.1044 27.3309 54.9128 27.0915L48.9253 21.1077C48.7816 20.9641 48.59 20.9641 48.4463 21.1077Z" fill="#181818"/>
<path d="M21 49.9727V54.4725C21 54.7597 21.2395 54.9991 21.5269 54.9991H25.5025C25.7899 54.9991 26.0294 54.7597 26.0294 54.4725V49.3503C26.0294 49.1589 25.8378 48.9674 25.6462 49.0153C23.6345 49.3503 22.0538 49.5418 21.2874 49.5897C21.1437 49.6376 21 49.7812 21 49.9727Z" fill="#181818"/>
<path d="M37.4775 46.0016V54.4747C37.4775 54.7619 37.717 55.0012 38.0044 55.0012H41.9801C42.2675 55.0012 42.507 54.7619 42.507 54.4747V43.8953C42.507 43.6559 42.2196 43.4645 42.028 43.6081C40.6868 44.374 39.2498 45.0442 37.6691 45.7144C37.5254 45.7622 37.4775 45.858 37.4775 46.0016Z" fill="#181818"/>
<path d="M45.7158 41.3582V54.4747C45.7158 54.7619 45.9553 55.0013 46.2427 55.0013H50.2184C50.5058 55.0013 50.7453 54.7619 50.7453 54.4747V36.4275C50.7453 36.0924 50.3142 35.9488 50.1226 36.236C49.1167 38.0072 47.6318 39.587 45.8116 41.071C45.7158 41.1667 45.7158 41.2624 45.7158 41.3582Z" fill="#181818"/>
<path d="M29.2383 48.584V54.4721C29.2383 54.7593 29.4778 54.9986 29.7652 54.9986H33.7408C34.0282 54.9986 34.2677 54.7593 34.2677 54.4721V47.3872C34.2677 47.1479 34.0282 47.0043 33.8366 47.0521C32.3517 47.5308 30.8669 47.9138 29.4778 48.2489C29.3341 48.2968 29.2383 48.4404 29.2383 48.584Z" fill="#181818"/>
</svg>
