<svg width="92" height="81" viewBox="0 0 92 81" fill="none" xmlns="http://www.w3.org/2000/svg">
<path d="M42.1517 4.54222C38.3839 6.79678 36.2175 8.37186 29.8128 13.4022C26.7105 15.8232 23.1661 18.6044 21.9088 19.5176C17.265 23.0068 11.9493 28.5418 4.80856 37.1986C0.661924 42.272 -0.100242 43.5275 0.346616 44.5807C0.756232 45.5461 1.54181 45.0057 3.35305 42.5111C4.36971 41.1131 7.63763 37.1029 10.58 33.6451C14.5418 28.9608 16.8675 26.5241 19.5298 24.2208C23.5529 20.7532 38.252 9.37283 41.0067 7.6172C43.0572 6.26389 48.3699 3.52646 48.4692 3.76051C48.5513 4.03639 45.9634 7.99972 44.9833 9.07148C44.4253 9.65345 43.677 10.2817 43.2914 10.4452C41.9569 11.0115 35.7095 15.4228 31.4043 18.8029C21.8332 26.3505 15.6609 32.8357 7.08549 44.3797C3.74168 48.8709 0.154282 55.6748 0.588726 56.6988C0.688027 56.9328 1.18803 57.204 1.71494 57.2911C2.65497 57.4446 2.8205 57.3399 5.5621 55.141C8.54578 52.7704 15.3485 46.1212 23.0023 38.1788C27.4661 33.5231 33.2129 26.9422 40.7385 17.7078C43.0933 14.8446 45.6632 11.9936 46.5129 11.3569C48.1061 10.1631 52.0774 8.3055 53.5609 8.09034L54.4485 7.95538L54.3332 10.0756C54.2041 12.8231 53.3129 15.3416 51.4824 18.1206C49.5876 20.9958 49.5111 21.0628 44.2762 24.5612C36.855 29.505 21.544 43.3199 14.8247 51.0729C11.5885 54.828 6.02863 62.2617 5.27196 63.8601C4.75188 64.9438 4.75463 65.1153 5.37876 65.679C5.7429 66.0423 6.29463 66.188 6.5912 66.0621C6.91743 65.9237 8.27548 64.588 9.63078 63.0809C12.5883 59.8238 17.1666 55.6028 28.9863 45.2716C39.3216 36.2259 40.2327 35.3215 47.4065 27.2376L52.8374 21.0669L56.139 19.528C59.7372 17.8633 62.7849 16.8808 62.9711 17.3197C63.1325 17.7 60.4004 22.7257 58.0987 26.2914L56.0288 29.4135L49.2483 34.4653C42.9099 39.1569 34.7844 45.9875 29.4729 51.0374C28.2259 52.2224 25.8042 55.0105 24.0544 57.2374C18.6 64.1775 18.4152 64.5667 20.3076 64.9029C21.1759 65.0524 21.2946 65.002 22.1388 64.0224C22.625 63.4364 23.6251 62.4942 24.3142 61.8912C25.0328 61.2756 28.3324 58.4947 31.6368 55.6428C34.9537 52.8201 39.2906 49.1849 41.259 47.5557C45.6504 43.9664 47.2085 42.4423 53.3608 35.8274C57.8515 30.9877 58.3578 30.5312 61.5449 28.5576C63.3954 27.3927 66.4618 25.7119 68.3399 24.777C73.2995 22.362 73.2705 22.7886 67.8036 31.184C63.8811 37.198 64.1156 36.9259 58.1869 41.0984C54.2418 43.8425 53.7107 44.2404 48.0102 48.8684C38.5136 56.5916 35.0271 60.0041 29.8465 66.5174C23.6714 74.3157 22.3692 76.5253 23.3526 77.5234C23.9174 78.1123 25.4858 76.86 32.0443 70.6251C35.526 67.2837 39.6353 63.6069 41.1272 62.4216C46.4821 58.2164 47.7981 56.864 50.2921 53.0095C51.9648 50.4357 52.7869 49.569 54.1215 49.0028C55.8416 48.273 58.499 46.0407 61.7876 42.5741C63.7899 40.4473 65.9852 38.4456 67.4798 37.4318C70.5628 35.2952 75.4728 32.7631 75.6714 33.2312C75.8576 33.6701 72.2619 39.9597 70.8156 41.7471C70.0134 42.7434 67.7657 44.4565 62.6149 47.9883C58.7167 50.6779 54.2433 53.9913 52.6949 55.3732C47.7779 59.7034 38.1521 71.6585 38.8879 72.4855C39.0341 72.6651 39.5686 72.8526 40.0831 72.9105C40.9562 72.9888 41.4528 72.6746 46.2594 68.9091C58.9701 59.0283 63.9139 54.5141 68.8303 48.2856C70.2174 46.5233 72.032 44.6141 72.8521 43.99C74.7764 42.5867 79.0587 40.39 79.2077 40.7411C79.3815 41.1507 77.9343 44.0086 76.4935 46.1389C74.3691 49.2151 71.9027 51.8151 68.8645 54.1398C64.3814 57.5954 56.5552 64.4717 53.5308 67.6536C51.2692 69.9941 44.3127 77.8478 44.1106 78.2787C44.0933 78.3206 44.3312 78.6339 44.6533 78.9805C45.4064 79.7657 46.1581 79.7229 47.0348 78.9022C47.4051 78.5379 49.6205 76.6659 51.9717 74.7017C56.6224 70.8988 60.998 66.6948 66.3185 61.0888C68.1801 59.1252 70.523 56.6467 71.5328 55.5623C72.555 54.5072 74.1503 53.0709 75.089 52.3964C77.3271 50.8254 81.5328 48.6958 81.6818 49.0468C81.7439 49.1931 81.3914 49.9295 80.8955 50.6578C79.2201 53.0602 67.1244 67.0299 65.6746 68.2318C64.2076 69.4757 63.9938 70.2914 65.011 70.7919C65.86 71.2257 66.5814 70.7815 70.6563 67.1884C74.4545 63.8508 77.9375 61.3373 79.717 60.5823L80.6487 60.2215L79.6382 62.3764C77.9918 65.8367 75.8205 68.9673 72.4657 72.7727C68.4418 77.3108 68.3432 77.4907 69.1949 78.096C69.5811 78.3464 70.086 78.5465 70.3605 78.5336C70.635 78.5207 72.0868 77.0761 73.558 75.3472C76.6287 71.6969 78.6116 69.8544 81.1242 68.2706C84.6127 66.1 84.8134 66.3255 82.2986 69.6364C79.4038 73.4538 78.8389 74.3494 78.7561 75.144C78.6878 75.7254 78.8513 75.8631 79.6058 75.9918C80.4865 76.1705 80.6817 76.0532 82.4598 74.4702C84.2551 72.8454 85.7869 71.9193 85.9483 72.2996C85.9979 72.4167 85.5254 73.8599 84.8653 75.5209C83.6734 78.6503 83.6975 79.7793 84.9395 80.1499C85.4196 80.2914 85.8051 80.1279 86.9142 79.2776C87.6873 78.7079 88.9005 78.0205 89.6419 77.7059C91.4882 77.0261 91.8138 76.4738 90.9593 75.6971C90.4862 75.2419 89.9717 75.184 89.02 75.4152C88.3178 75.575 87.722 75.6552 87.6971 75.5967C87.6599 75.5089 87.8834 74.5511 88.2007 73.4843C88.9754 70.7736 88.5933 70.0382 86.4615 70.0451L85.3091 70.0507L86.1989 68.1888C87.4287 65.5611 87.5094 65.009 86.8805 64.5164C85.9915 63.8234 84.3942 64.0178 82.363 65.0867C81.3202 65.5982 80.4726 65.9924 80.4601 65.9631C80.4353 65.9046 81.0837 64.6284 81.8776 63.1178C83.3371 60.2891 83.5089 59.4568 82.773 58.6298C82.2006 57.9405 81.491 58 78.7177 58.9695L76.2707 59.8006L79.1365 56.4098C83.8438 50.9258 85.442 48.1764 84.5599 47.1698C83.9082 46.3761 83.0847 46.4148 80.3584 47.3299L77.899 48.1317L80.0344 44.2568C81.2008 42.1394 82.1644 40.039 82.1934 39.6124C82.2424 37.831 80.8127 37.6781 77.4615 39.1L75.0889 40.1066L76.9251 36.186C78.0342 33.8513 78.6743 32.0607 78.5378 31.7389C78.1033 30.7149 76.2488 30.8804 72.6155 32.2148L69.2787 33.4234L70.5741 31.5275C72.3481 28.9451 74.4635 24.9406 74.7705 23.6021C75.1168 22.1088 74.4403 21.2566 72.9961 21.317C71.2601 21.4321 67.2537 22.9594 64.1701 24.682C62.6306 25.5078 61.2864 26.2162 61.2319 26.1703C61.1478 26.1369 61.6113 25.2498 62.2328 24.1576C64.1565 20.8558 66.2306 15.7641 65.7996 15.3256C65.1927 14.72 61.6077 15.3435 57.9572 16.7198L54.6156 17.9995L55.3102 16.2548C56.2807 13.8408 56.9286 7.69711 56.2818 6.83235C55.5011 5.81721 54.1928 5.78544 51.5085 6.7172L49.0911 7.53573L50.2402 5.46016C51.6804 2.91588 51.7777 1.90798 50.7157 1.21937C50.0274 0.751911 49.795 0.78148 47.3755 1.84254C45.9644 2.47578 43.607 3.68312 42.1517 4.54222ZM39.2144 15.7653C39.2517 15.8531 37.5784 18.013 35.5423 20.6375C31.0701 26.2633 24.9233 33.2211 19.0841 39.2543C14.4672 44.0441 3.9752 54.1227 3.75244 54.0101C3.47036 53.9227 5.52926 50.1147 7.2267 47.5994C13.6537 38.0026 26.5073 24.7471 36.0646 17.8267C39.0041 15.682 39.14 15.5898 39.2144 15.7653ZM44.9699 26.856C45.0816 27.1193 40.5957 31.888 37.0892 35.1709C32.6419 39.3707 16.0805 53.7852 15.7046 53.8066C15.2398 53.8657 21.2486 47.2427 25.6166 42.9383C29.8784 38.7136 35.8154 33.5709 41.0717 29.5456C44.841 26.6345 44.8706 26.622 44.9699 26.856ZM50.093 36.8686C49.9771 37.0904 49.1598 37.886 48.2287 38.6608C47.2976 39.4356 42.6324 43.4518 37.8437 47.5894C33.055 51.727 29.0071 55.136 28.834 55.1404C28.0229 55.2084 36.4878 47.198 41.8055 42.905C48.8792 37.142 50.4551 35.99 50.093 36.8686ZM48.6335 51.9871C47.3416 54.4685 44.9766 57.06 42.3653 58.8238C39.2106 60.9563 36.9953 62.8283 33.9805 65.8681C32.6397 67.1619 31.6568 68.0622 31.7727 67.8405C32.1004 67.0455 38.1016 60.3221 40.4081 58.1698C42.8379 55.896 48.4936 51.0799 49.0274 50.8534C49.2053 50.7779 49.0108 51.3092 48.6335 51.9871ZM65.1295 49.1308C65.0142 49.7666 59.0689 55.8794 55.7003 58.8276C51.9193 62.1234 45.8554 66.8021 45.4892 66.6813C45.0685 66.5145 51.4774 59.5146 54.3397 57.0229C56.6364 55.0127 63.928 49.4334 64.9412 48.9345C65.0771 48.8423 65.1564 48.9468 65.1295 49.1308ZM62.9763 61.9545C62.7866 62.4147 55.0328 69.7091 54.8225 69.6257C54.6962 69.5757 54.8466 69.2702 55.1577 68.9311C58.629 65.3179 63.3681 61.0633 62.9763 61.9545Z" fill="#181818"/>
</svg>
