<svg width="26" height="26" viewBox="0 0 26 26" fill="none" xmlns="http://www.w3.org/2000/svg">
<path d="M12.0563 2.65237C12.3714 1.76539 13.6258 1.76539 13.9409 2.65236L16.0556 8.60488C16.1973 9.00369 16.5747 9.27011 16.9979 9.27011H22.1458C23.1054 9.27011 23.5141 10.4905 22.748 11.0684L18.4571 14.3053C18.1313 14.5511 17.9875 14.9703 18.094 15.3644L19.7307 21.4234C19.9798 22.3458 18.9175 23.0588 18.1583 22.4789L13.6057 19.0015C13.2473 18.7277 12.7499 18.7277 12.3915 19.0016L7.84157 22.4787C7.08253 23.0588 6.02007 22.3461 6.26887 21.4237L7.90345 15.3642C8.00973 14.9702 7.86596 14.5512 7.54019 14.3055L3.24913 11.0684C2.48306 10.4905 2.89176 9.27011 3.85136 9.27011H8.99923C9.42245 9.27011 9.79984 9.00369 9.94152 8.60488L12.0563 2.65237Z" fill="#F5C74D"/>
</svg>
