<svg width="128" height="80" viewBox="0 0 128 80" fill="none" xmlns="http://www.w3.org/2000/svg">
<path fill-rule="evenodd" clip-rule="evenodd" d="M113.401 10.9922L108.377 13.5428V15.4897H69.0232V13.5428L64.0002 10.9922L58.9762 13.5428V15.4897H19.6232V13.5428L14.5992 10.9922L9.5752 13.5428V20.4209L14.5992 22.9855L19.6232 20.4209V18.488H58.9762V20.4209L59.8692 20.8767L40.2972 57.6081L39.1192 57.0105L34.0952 59.5611V66.4392L39.1192 69.0038L44.1432 66.4392V59.5611L42.9722 58.9664L62.5412 22.2409L64.0002 22.9855L65.1752 22.3848L84.6682 58.9664L83.4972 59.5611V66.4392L88.5202 69.0038L93.5442 66.4392V59.5611L88.5202 57.0105L87.3432 57.6081L67.8472 21.0206L69.0232 20.4209V18.488H108.377V20.4209L113.401 22.9855L118.424 20.4209V13.5428L113.401 10.9922Z" fill="#D7FB00"/>
<path fill-rule="evenodd" clip-rule="evenodd" d="M14.5992 0L0.365234 7.22596V26.7131L14.5992 33.981L28.8322 26.7131V21.488H25.8332V24.8781L14.5992 30.6149L3.36523 24.8781V9.06494L14.5992 3.36312L25.8332 9.06494V12.493H28.8322V7.22596L14.5992 0Z" fill="white"/>
<path fill-rule="evenodd" clip-rule="evenodd" d="M75.2338 24.8784L73.7148 25.654L75.1258 28.3015L78.2338 26.7134V21.4883H75.2338V24.8784Z" fill="white"/>
<path fill-rule="evenodd" clip-rule="evenodd" d="M64.0006 0L49.7666 7.22596V12.493H52.7666V9.06493L64.0006 3.36312L75.2336 9.06493V12.493H78.2336V7.22596L64.0006 0Z" fill="white"/>
<path fill-rule="evenodd" clip-rule="evenodd" d="M64.0004 30.614L62.0194 29.6016L60.6074 32.2491L64.0004 33.9811L67.1094 32.394L65.6984 29.7475L64.0004 30.614Z" fill="white"/>
<path fill-rule="evenodd" clip-rule="evenodd" d="M52.7666 24.8784V21.4883H49.7666V26.7134L52.5916 28.1566L54.0026 25.51L52.7666 24.8784Z" fill="white"/>
<path fill-rule="evenodd" clip-rule="evenodd" d="M24.8857 53.2455V72.7326L39.1197 80.0015L53.3537 72.7326V53.2455L50.2587 51.6744L48.8477 54.3209L50.3527 55.0845V70.8986L39.1197 76.6344L27.8867 70.8986V55.0845L39.1197 49.3827L40.8227 50.2472L42.2327 47.6006L39.1197 46.0195L24.8857 53.2455Z" fill="white"/>
<path fill-rule="evenodd" clip-rule="evenodd" d="M85.4081 47.5996L86.8171 50.2472L88.5201 49.3827L99.7531 55.0845V70.8976L88.5201 76.6334L77.2861 70.8976V55.0845L78.7911 54.3209L77.3811 51.6734L74.2871 53.2445V72.7316L88.5201 80.0005L102.754 72.7316V53.2445L88.5201 46.0195L85.4081 47.5996Z" fill="white"/>
<path fill-rule="evenodd" clip-rule="evenodd" d="M113.401 0L99.167 7.22596V12.493H102.167V9.06494L113.401 3.36312L124.635 9.06494V24.8781L113.401 30.6149L102.167 24.8781V21.488H99.167V26.7131L113.401 33.981L127.634 26.7131V7.22596L113.401 0Z" fill="white"/>
</svg>
