<svg width="116" height="80" viewBox="0 0 116 80" fill="none" xmlns="http://www.w3.org/2000/svg">
<path fill-rule="evenodd" clip-rule="evenodd" d="M30.8121 12.8605V23.6865L21.7421 28.3275V31.7375L18.7421 33.2665V26.4975L27.8121 21.8565V14.7005L18.7421 10.1005L9.66211 14.7115V21.8565L6.66211 23.3865V12.8605L9.66211 11.3405L18.7421 6.73047L27.8121 11.3405L30.8121 12.8605Z" fill="white"/>
<path fill-rule="evenodd" clip-rule="evenodd" d="M18.7371 0L0.664062 9.18V33.938L15.7371 41.639V38.27L3.66406 32.102V11.021L18.7371 3.364L33.8101 11.021V32.102L21.7421 38.267V35.01L18.7421 36.54L18.7371 43.171L36.8111 33.938V9.18L18.7371 0Z" fill="#D7FB00"/>
<path fill-rule="evenodd" clip-rule="evenodd" d="M97.2036 6.73047L84.7656 13.0475V30.0855L97.2036 36.4405L109.642 30.0855V13.0475L97.2036 6.73047Z" fill="#D7FB00"/>
<path fill-rule="evenodd" clip-rule="evenodd" d="M97.1003 0L79.0703 9.267L79.1903 34.025L97.3083 43.171L115.336 33.85L115.217 9.093L104.811 3.871L94.9183 22.712L91.6293 16.592L88.9873 18.014L94.9493 29.106L106.097 7.872L112.225 10.949L112.327 32.028L97.2913 39.803L82.1813 32.174L82.0793 11.093L97.1153 3.366L100.735 5.182L102.13 2.525L97.1003 0Z" fill="white"/>
<path fill-rule="evenodd" clip-rule="evenodd" d="M59.5586 46.0071V70.7651L77.6326 79.9991L95.7046 70.7651V46.0071L77.6326 36.8281L59.5586 46.0071ZM62.5596 68.9291V47.8481L77.6326 40.1931L92.7046 47.8481V68.9291L77.6326 76.6301L62.5596 68.9291Z" fill="#D7FB00"/>
<path fill-rule="evenodd" clip-rule="evenodd" d="M77.6304 52.4141L72.6074 54.9661V61.8481L77.6304 64.4141L82.6544 61.8481V54.9661L77.6304 52.4141ZM77.6304 55.7781L79.6544 56.8071V60.0111L77.6304 61.0451L75.6074 60.0121V56.8071L77.6304 55.7781Z" fill="white"/>
<path fill-rule="evenodd" clip-rule="evenodd" d="M20.4121 46.0071V70.7651L38.4861 79.9991L56.5591 70.7651V46.0071L38.4861 36.8281L20.4121 46.0071ZM23.4121 68.9291V47.8481L38.4861 40.1931L53.5591 47.8481V68.9291L38.4861 76.6301L23.4121 68.9291Z" fill="#D7FB00"/>
<path fill-rule="evenodd" clip-rule="evenodd" d="M38.4859 52.4141L33.4629 54.9661V61.8481L38.4859 64.4141L43.5089 61.8481V54.9661L38.4859 52.4141ZM38.4859 55.7781L40.5089 56.8071V60.0111L38.4859 61.0451L36.4629 60.0121V56.8071L38.4859 55.7781Z" fill="white"/>
<path fill-rule="evenodd" clip-rule="evenodd" d="M58.0584 0L39.9844 9.18V33.938L58.0584 43.171L76.1304 33.938V9.18L58.0584 0ZM42.9854 32.102V11.021L58.0584 3.364L73.1304 11.021V32.102L58.0584 39.803L42.9854 32.102Z" fill="#D7FB00"/>
<path fill-rule="evenodd" clip-rule="evenodd" d="M58.0592 15.5859L53.0352 18.1379V25.0199L58.0592 27.5859L63.0822 25.0199V18.1379L58.0592 15.5859ZM58.0592 18.9509L60.0822 19.9789V23.1839L58.0592 24.2179L56.0352 23.1839V19.9799L58.0592 18.9509Z" fill="white"/>
</svg>
