<svg width="44" height="44" viewBox="0 0 44 44" fill="none" xmlns="http://www.w3.org/2000/svg">
<path d="M36.6576 13.6294C36.4004 13.3451 36.2062 13.0117 36.0874 12.6503C35.9686 12.2889 35.9277 11.9074 35.9673 11.5298C36.079 10.252 35.7131 8.97797 34.9373 7.94381C34.1615 6.90966 33.0286 6.18553 31.7483 5.90565C30.9927 5.72101 30.341 5.25443 29.9329 4.60585C29.2632 3.49723 28.2034 2.665 26.9517 2.26477C25.6999 1.86454 24.3419 1.9237 23.1315 2.43119C22.7758 2.57963 22.3931 2.65616 22.0064 2.65616C21.6197 2.65616 21.237 2.57963 20.8814 2.43119C19.6713 1.92177 18.3126 1.86161 17.0603 2.26201C15.808 2.6624 14.7483 3.49583 14.0799 4.60585C13.8756 4.93023 13.6078 5.21201 13.2919 5.43505C12.976 5.65809 12.6182 5.81801 12.239 5.90565C10.9602 6.19383 9.83126 6.92452 9.06053 7.96282C8.28979 9.00112 7.9293 10.2769 8.04559 11.5548C8.08127 11.9322 8.0385 12.3127 7.91986 12.6735C7.80121 13.0344 7.60915 13.368 7.35522 13.6544C6.48218 14.6154 6 15.8561 6 17.1414C6 18.4267 6.48218 19.6673 7.35522 20.6283C7.60915 20.9147 7.80121 21.2484 7.91985 21.6092C8.03849 21.97 8.08126 22.3506 8.04559 22.728C7.92959 24.0094 8.29336 25.2885 9.06932 26.3275C9.84527 27.3665 10.9807 28.0948 12.2645 28.3771C12.6568 28.475 13.023 28.654 13.3384 28.902V38.8505C13.3377 39.3847 13.4757 39.9103 13.7396 40.3781C14.0035 40.8459 14.3845 41.2405 14.847 41.525C15.3648 41.8292 15.9561 41.9931 16.5602 42C17.0405 42.0024 17.5143 41.8909 17.9409 41.675L21.7252 39.9253C21.8104 39.8762 21.9075 39.8503 22.0064 39.8503C22.1053 39.8503 22.2025 39.8762 22.2877 39.9253L26.072 41.675C26.5579 41.9102 27.0973 42.0199 27.6389 41.9937C28.1804 41.9674 28.7061 41.8061 29.1658 41.525C29.6284 41.2405 30.0094 40.8459 30.2733 40.3781C30.5371 39.9103 30.6752 39.3847 30.6744 38.8505V28.902C30.9962 28.6489 31.3719 28.4695 31.7739 28.3771C33.0527 28.0889 34.1816 27.3582 34.9523 26.3199C35.7231 25.2816 36.0836 24.0058 35.9673 22.728C35.9316 22.3506 35.9744 21.97 36.093 21.6092C36.2117 21.2484 36.4037 20.9147 36.6576 20.6283C37.5231 19.6588 38 18.4156 38 17.1289C38 15.8421 37.5231 14.5989 36.6576 13.6294ZM34.7399 18.9786C34.2573 19.5252 33.891 20.1605 33.6627 20.8472C33.4344 21.534 33.3486 22.2584 33.4103 22.978C33.467 23.6523 33.2734 24.3241 32.8649 24.8703C32.4564 25.4165 31.8603 25.8006 31.1858 25.9523C30.4685 26.1053 29.7915 26.402 29.1974 26.8236C28.6033 27.2452 28.105 27.7827 27.734 28.402C27.3789 28.9829 26.8214 29.4191 26.1637 29.6303C25.5061 29.8415 24.7926 29.8136 24.1543 29.5518C23.4756 29.2673 22.7448 29.1206 22.0064 29.1206C21.2679 29.1206 20.5372 29.2673 19.8585 29.5518C19.2202 29.8136 18.5066 29.8415 17.849 29.6303C17.1913 29.4191 16.6338 28.9829 16.2788 28.402C15.9026 27.7818 15.3996 27.2442 14.8013 26.8227C14.203 26.4012 13.5221 26.1049 12.8013 25.9523C12.1283 25.7923 11.5363 25.4016 11.1329 24.8513C10.7294 24.3009 10.5412 23.6274 10.6024 22.9529C10.662 22.2373 10.5752 21.5173 10.3469 20.8349C10.1186 20.1525 9.75345 19.5214 9.27276 18.9786C8.81546 18.471 8.56318 17.8178 8.56318 17.1414C8.56318 16.465 8.81546 15.8118 9.27276 15.3041V15.2791C9.75681 14.7384 10.1241 14.1076 10.3526 13.4246C10.5811 12.7417 10.666 12.0206 10.6024 11.3048C10.542 10.6297 10.7342 9.95619 11.1433 9.40916C11.5524 8.86214 12.1506 8.47878 12.8269 8.33024C13.539 8.16444 14.2106 7.86266 14.803 7.44227C15.3953 7.02188 15.8969 6.49116 16.2788 5.88063C16.6302 5.29605 17.1876 4.85678 17.8466 4.64512C18.5055 4.43346 19.2208 4.46393 19.8585 4.73081C20.5371 5.01535 21.2679 5.16207 22.0064 5.16207C22.7448 5.16207 23.4756 5.01535 24.1543 4.73081C24.7926 4.46898 25.5061 4.44112 26.1637 4.65236C26.8213 4.86359 27.3789 5.29973 27.734 5.88063C28.1152 6.49663 28.6197 7.03109 29.2172 7.45201C29.8147 7.87292 30.493 8.17163 31.2114 8.33024C31.8862 8.48712 32.4803 8.87703 32.8844 9.42819C33.2884 9.97935 33.4752 10.6547 33.4103 11.3298C33.3507 12.0454 33.4375 12.7654 33.6658 13.4478C33.8941 14.1302 34.2593 14.7613 34.7399 15.3041C35.1973 15.8118 35.4496 16.465 35.4496 17.1414C35.4496 17.8178 35.1973 18.471 34.7399 18.9786ZM22.0192 7.09296C20.013 7.09049 18.0511 7.66997 16.3819 8.75805C14.7127 9.84612 13.4113 11.3939 12.6424 13.2054C11.8735 15.0169 11.6716 17.0107 12.0624 18.9344C12.4532 20.8581 13.419 22.6252 14.8376 24.012C16.2563 25.3988 18.0639 26.343 20.0317 26.725C21.9995 27.107 24.039 26.9097 25.8921 26.158C27.7451 25.4063 29.3284 24.1341 30.4414 22.5023C31.5544 20.8706 32.1472 18.9527 32.1447 16.9914C32.1371 14.3685 31.0679 11.855 29.1707 10.0003C27.2734 8.14561 24.7023 7.10035 22.0192 7.09296ZM24.9853 17.5164L24.3716 17.9664L24.6017 18.6663C24.6848 18.9173 24.6851 19.1875 24.6025 19.4387C24.5199 19.6899 24.3586 19.9094 24.1415 20.066C23.9228 20.2331 23.6519 20.3214 23.3744 20.316C23.1054 20.3172 22.844 20.2291 22.6329 20.066L22.0192 19.6411L21.4056 20.066C21.1874 20.2243 20.9229 20.3097 20.6513 20.3097C20.3796 20.3097 20.1151 20.2243 19.897 20.066C19.6798 19.9094 19.5185 19.6899 19.4359 19.4387C19.3533 19.1875 19.3536 18.9173 19.4367 18.6663L19.6668 17.9664L19.0532 17.5164C18.8299 17.3649 18.6638 17.1457 18.5806 16.8927C18.4975 16.6397 18.5018 16.367 18.5929 16.1167C18.6797 15.8715 18.8416 15.6584 19.0566 15.5064C19.2716 15.3543 19.5293 15.2707 19.7947 15.2668H20.5618L20.7919 14.5669C20.8957 14.333 21.0671 14.1338 21.2852 13.9939C21.5033 13.854 21.7584 13.7795 22.0192 13.7795C22.28 13.7795 22.5352 13.854 22.7532 13.9939C22.9713 14.1338 23.1428 14.333 23.2465 14.5669L23.4767 15.2668H24.2437C24.5091 15.2707 24.7668 15.3543 24.9818 15.5064C25.1968 15.6584 25.3587 15.8715 25.4455 16.1167C25.5306 16.3675 25.5319 16.6384 25.4491 16.89C25.3664 17.1416 25.2039 17.361 24.9853 17.5164Z" fill="#181818"/>
</svg>
