<svg width="44" height="44" viewBox="0 0 44 44" fill="none" xmlns="http://www.w3.org/2000/svg">
<path d="M20.772 4.43057H19.9331C19.8153 3.7496 19.4655 3.13267 18.9451 2.68816C18.4248 2.24366 17.7672 2 17.0878 2C16.4085 2 15.7509 2.24366 15.2306 2.68816C14.7102 3.13267 14.3604 3.7496 14.2425 4.43057H13.4036C12.9152 4.43112 12.447 4.62884 12.1017 4.98035C11.7563 5.33186 11.5621 5.80846 11.5615 6.30557V8.875C11.5615 9.04076 11.6262 9.19973 11.7414 9.31694C11.8565 9.43415 12.0127 9.5 12.1756 9.5C12.3384 9.5 12.4946 9.43415 12.6097 9.31694C12.7249 9.19973 12.7896 9.04076 12.7896 8.875V6.30557C12.7898 6.13987 12.8545 5.98101 12.9696 5.86384C13.0848 5.74667 13.2408 5.68076 13.4036 5.68057H14.7954C14.9583 5.68057 15.1144 5.61472 15.2296 5.49751C15.3447 5.3803 15.4094 5.22133 15.4094 5.05557C15.3968 4.82327 15.4308 4.59079 15.5095 4.37233C15.5881 4.15388 15.7097 3.95404 15.8668 3.78504C16.0239 3.61604 16.2132 3.48143 16.4231 3.38943C16.6331 3.29743 16.8593 3.24998 17.0878 3.24998C17.3164 3.24998 17.5426 3.29743 17.7525 3.38943C17.9625 3.48143 18.1518 3.61604 18.3089 3.78504C18.466 3.95404 18.5876 4.15388 18.6662 4.37233C18.7448 4.59079 18.7789 4.82327 18.7662 5.05557C18.7662 5.22133 18.8309 5.3803 18.9461 5.49751C19.0612 5.61472 19.2174 5.68057 19.3803 5.68057H20.772C20.9348 5.68076 21.0909 5.74667 21.206 5.86384C21.3211 5.98101 21.3859 6.13987 21.3861 6.30557V8.875C21.3861 9.04076 21.4508 9.19973 21.5659 9.31694C21.6811 9.43415 21.8373 9.5 22.0001 9.5C22.163 9.5 22.3192 9.43415 22.4343 9.31694C22.5495 9.19973 22.6142 9.04076 22.6142 8.875V6.30557C22.6136 5.80846 22.4194 5.33186 22.074 4.98035C21.7287 4.62884 21.2604 4.43112 20.772 4.43057Z" fill="#181818"/>
<path d="M12.1756 34.5C12.5147 34.5 12.7896 34.2202 12.7896 33.875C12.7896 33.5298 12.5147 33.25 12.1756 33.25C11.8364 33.25 11.5615 33.5298 11.5615 33.875C11.5615 34.2202 11.8364 34.5 12.1756 34.5Z" fill="#181818"/>
<path d="M27.2193 6.375H23.8421V8.875C23.8421 9.37228 23.648 9.84919 23.3026 10.2008C22.9571 10.5525 22.4886 10.75 22 10.75C21.5114 10.75 21.0429 10.5525 20.6974 10.2008C20.352 9.84919 20.1579 9.37228 20.1579 8.875V6.93125H19.3811C19.1378 6.9313 18.8969 6.88216 18.6724 6.78667C18.4479 6.69118 18.2442 6.55125 18.0732 6.375H16.1022C15.9312 6.55125 15.7276 6.69118 15.5031 6.78667C15.2785 6.88216 15.0376 6.9313 14.7943 6.93125H14.0175V8.875C14.0175 9.37228 13.8235 9.84919 13.478 10.2008C13.1325 10.5525 12.664 10.75 12.1754 10.75C11.6869 10.75 11.2183 10.5525 10.8729 10.2008C10.5274 9.84919 10.3333 9.37228 10.3333 8.875V6.375H6.95614C6.305 6.37588 5.68077 6.63955 5.22034 7.1082C4.75991 7.57685 4.50086 8.21223 4.5 8.875V39.5C4.50087 40.1628 4.75992 40.7981 5.22034 41.2668C5.68077 41.7354 6.305 41.9991 6.95614 42H27.2193C27.8704 41.9991 28.4947 41.7354 28.9551 41.2668C29.4155 40.7981 29.6746 40.1628 29.6754 39.5V8.875C29.6746 8.21223 29.4155 7.57685 28.9551 7.1082C28.4947 6.63955 27.8704 6.37588 27.2193 6.375ZM15.8596 12.625H23.2281C23.3909 12.625 23.5471 12.6908 23.6623 12.8081C23.7774 12.9253 23.8421 13.0842 23.8421 13.25C23.8421 13.4158 23.7774 13.5747 23.6623 13.6919C23.5471 13.8092 23.3909 13.875 23.2281 13.875H15.8596C15.6968 13.875 15.5406 13.8092 15.4255 13.6919C15.3103 13.5747 15.2456 13.4158 15.2456 13.25C15.2456 13.0842 15.3103 12.9253 15.4255 12.8081C15.5406 12.6908 15.6968 12.625 15.8596 12.625ZM15.8596 15.125H21.386C21.5488 15.125 21.705 15.1908 21.8202 15.3081C21.9353 15.4253 22 15.5842 22 15.75C22 15.9158 21.9353 16.0747 21.8202 16.1919C21.705 16.3092 21.5488 16.375 21.386 16.375H15.8596C15.6968 16.375 15.5406 16.3092 15.4255 16.1919C15.3103 16.0747 15.2456 15.9158 15.2456 15.75C15.2456 15.5842 15.3103 15.4253 15.4255 15.3081C15.5406 15.1908 15.6968 15.125 15.8596 15.125ZM15.8596 19.5H23.2281C23.3909 19.5 23.5471 19.5658 23.6623 19.6831C23.7774 19.8003 23.8421 19.9592 23.8421 20.125C23.8421 20.2908 23.7774 20.4497 23.6623 20.5669C23.5471 20.6842 23.3909 20.75 23.2281 20.75H15.8596C15.6968 20.75 15.5406 20.6842 15.4255 20.5669C15.3103 20.4497 15.2456 20.2908 15.2456 20.125C15.2456 19.9592 15.3103 19.8003 15.4255 19.6831C15.5406 19.5658 15.6968 19.5 15.8596 19.5ZM15.8596 22H18.3158C18.4786 22 18.6348 22.0658 18.75 22.1831C18.8651 22.3003 18.9298 22.4592 18.9298 22.625C18.9298 22.7908 18.8651 22.9497 18.75 23.0669C18.6348 23.1842 18.4786 23.25 18.3158 23.25H15.8596C15.6968 23.25 15.5406 23.1842 15.4255 23.0669C15.3103 22.9497 15.2456 22.7908 15.2456 22.625C15.2456 22.4592 15.3103 22.3003 15.4255 22.1831C15.5406 22.0658 15.6968 22 15.8596 22ZM15.8596 25.75H23.2281C23.3909 25.75 23.5471 25.8158 23.6623 25.9331C23.7774 26.0503 23.8421 26.2092 23.8421 26.375C23.8421 26.5408 23.7774 26.6997 23.6623 26.8169C23.5471 26.9342 23.3909 27 23.2281 27H15.8596C15.6968 27 15.5406 26.9342 15.4255 26.8169C15.3103 26.6997 15.2456 26.5408 15.2456 26.375C15.2456 26.2092 15.3103 26.0503 15.4255 25.9331C15.5406 25.8158 15.6968 25.75 15.8596 25.75ZM15.8596 28.25H20.7719C20.9348 28.25 21.091 28.3158 21.2061 28.4331C21.3213 28.5503 21.386 28.7092 21.386 28.875C21.386 29.0408 21.3213 29.1997 21.2061 29.3169C21.091 29.4342 20.9348 29.5 20.7719 29.5H15.8596C15.6968 29.5 15.5406 29.4342 15.4255 29.3169C15.3103 29.1997 15.2456 29.0408 15.2456 28.875C15.2456 28.7092 15.3103 28.5503 15.4255 28.4331C15.5406 28.3158 15.6968 28.25 15.8596 28.25ZM15.8596 32H23.2281C23.3909 32 23.5471 32.0658 23.6623 32.1831C23.7774 32.3003 23.8421 32.4592 23.8421 32.625C23.8421 32.7908 23.7774 32.9497 23.6623 33.0669C23.5471 33.1842 23.3909 33.25 23.2281 33.25H15.8596C15.6968 33.25 15.5406 33.1842 15.4255 33.0669C15.3103 32.9497 15.2456 32.7908 15.2456 32.625C15.2456 32.4592 15.3103 32.3003 15.4255 32.1831C15.5406 32.0658 15.6968 32 15.8596 32ZM15.8596 34.5H17.3947C17.5576 34.5 17.7138 34.5658 17.8289 34.6831C17.9441 34.8003 18.0088 34.9592 18.0088 35.125C18.0088 35.2908 17.9441 35.4497 17.8289 35.5669C17.7138 35.6841 17.5576 35.75 17.3947 35.75H15.8596C15.6968 35.75 15.5406 35.6841 15.4255 35.5669C15.3103 35.4497 15.2456 35.2908 15.2456 35.125C15.2456 34.9592 15.3103 34.8003 15.4255 34.6831C15.5406 34.5658 15.6968 34.5 15.8596 34.5ZM10.4746 14.2469C10.5263 14.1838 10.5898 14.1317 10.6613 14.0936C10.7329 14.0556 10.8111 14.0322 10.8915 14.025C10.972 14.0177 11.053 14.0267 11.13 14.0514C11.207 14.076 11.2785 14.1159 11.3404 14.1687L11.7978 14.5562L12.9307 13.1625C13.0349 13.0349 13.1847 12.9546 13.3471 12.9394C13.5094 12.9241 13.6711 12.9752 13.7965 13.0812C13.9219 13.1873 14.0007 13.3398 14.0157 13.505C14.0307 13.6703 13.9805 13.8349 13.8763 13.9625L12.3535 15.8375C12.2484 15.9647 12.0982 16.0446 11.9355 16.0599C11.7728 16.0751 11.6108 16.0244 11.4846 15.9187L10.5544 15.1281C10.4295 15.0217 10.351 14.8693 10.3361 14.7042C10.3211 14.5392 10.3709 14.3747 10.4746 14.2469ZM10.4746 21.1219C10.5263 21.0588 10.5898 21.0067 10.6613 20.9686C10.7329 20.9306 10.8111 20.9072 10.8915 20.9C10.972 20.8927 11.053 20.9017 11.13 20.9264C11.207 20.951 11.2785 20.9909 11.3404 21.0437L11.7978 21.4312L12.9307 20.0375C12.9823 19.9743 13.0456 19.9221 13.1171 19.8838C13.1885 19.8455 13.2667 19.8219 13.3471 19.8144C13.4275 19.8068 13.5085 19.8155 13.5856 19.8398C13.6628 19.8642 13.7344 19.9037 13.7965 19.9562C13.8586 20.0088 13.9099 20.0732 13.9475 20.146C13.9851 20.2187 14.0083 20.2982 14.0157 20.38C14.0231 20.4619 14.0146 20.5444 13.9907 20.6229C13.9668 20.7014 13.9279 20.7743 13.8763 20.8375L12.3535 22.7125C12.2945 22.7823 12.2215 22.8385 12.1395 22.8773C12.0574 22.9161 11.9681 22.9366 11.8776 22.9375C11.7343 22.937 11.5955 22.8862 11.4846 22.7937L10.5544 22.0031C10.4295 21.8967 10.351 21.7443 10.3361 21.5792C10.3211 21.4142 10.3709 21.2497 10.4746 21.1219ZM10.4746 27.3719C10.5263 27.3088 10.5898 27.2567 10.6613 27.2186C10.7329 27.1806 10.8111 27.1572 10.8915 27.15C10.972 27.1427 11.053 27.1517 11.13 27.1764C11.207 27.201 11.2785 27.2409 11.3404 27.2937L11.7978 27.6812L12.9307 26.2875C13.0349 26.1599 13.1847 26.0796 13.3471 26.0644C13.5094 26.0491 13.6711 26.1002 13.7965 26.2062C13.9219 26.3123 14.0007 26.4648 14.0157 26.63C14.0307 26.7953 13.9805 26.9599 13.8763 27.0875L12.3535 28.9625C12.2484 29.0897 12.0982 29.1696 11.9355 29.1849C11.7728 29.2001 11.6108 29.1494 11.4846 29.0437L10.5544 28.2531C10.4295 28.1467 10.351 27.9943 10.3361 27.8292C10.3211 27.6642 10.3709 27.4997 10.4746 27.3719ZM12.1754 32C12.5398 32 12.8959 32.11 13.1989 32.316C13.5018 32.522 13.7379 32.8149 13.8773 33.1575C14.0167 33.5001 14.0532 33.8771 13.9821 34.2408C13.9111 34.6045 13.7356 34.9386 13.478 35.2008C13.2204 35.463 12.8921 35.6416 12.5348 35.714C12.1775 35.7863 11.8071 35.7492 11.4705 35.6073C11.1339 35.4654 10.8462 35.225 10.6438 34.9167C10.4414 34.6083 10.3333 34.2458 10.3333 33.875C10.3337 33.3778 10.5279 32.9012 10.8733 32.5496C11.2187 32.1981 11.687 32.0004 12.1754 32ZM28.4474 39.5C28.4474 39.6642 28.4157 39.8267 28.354 39.9784C28.2923 40.1301 28.2018 40.2679 28.0878 40.384C27.9737 40.5001 27.8383 40.5921 27.6893 40.6549C27.5403 40.7177 27.3806 40.75 27.2193 40.75H6.95614C6.79486 40.75 6.63514 40.7177 6.48613 40.6549C6.33711 40.5921 6.20171 40.5001 6.08767 40.384C5.97362 40.2679 5.88316 40.1301 5.82146 39.9784C5.75976 39.8267 5.72803 39.6642 5.72807 39.5V8.875C5.72802 8.71083 5.75976 8.54827 5.82146 8.39659C5.88316 8.24491 5.97362 8.1071 6.08766 7.99101C6.20171 7.87493 6.33711 7.78286 6.48612 7.72006C6.63514 7.65725 6.79486 7.62495 6.95614 7.625H7.57018V37C7.57056 37.4972 7.76477 37.9738 8.11014 38.3254C8.45552 38.6769 8.92384 38.8746 9.41228 38.875H24.7632C25.2516 38.8746 25.7199 38.6769 26.0653 38.3254C26.4107 37.9738 26.6049 37.4972 26.6053 37V7.625H27.2193C27.3806 7.62495 27.5403 7.65725 27.6893 7.72006C27.8383 7.78286 27.9737 7.87493 28.0878 7.99101C28.2018 8.1071 28.2923 8.24491 28.354 8.39659C28.4157 8.54827 28.4474 8.71083 28.4474 8.875V39.5Z" fill="#181818"/>
<path d="M34.8948 10.125H33.6667V8.875H34.8948V10.125ZM31.5176 34.1875H37.0439V32.3125H31.5176V34.1875ZM31.5176 36.275C31.5174 36.3555 31.5331 36.4352 31.5636 36.5094L33.0987 40.3594C33.1441 40.4749 33.2224 40.5739 33.3237 40.6436C33.425 40.7132 33.5445 40.7503 33.6667 40.75V41.375C33.6667 41.5408 33.7314 41.6997 33.8465 41.8169C33.9617 41.9342 34.1179 42 34.2807 42C34.4436 42 34.5998 41.9342 34.7149 41.8169C34.8301 41.6997 34.8948 41.5408 34.8948 41.375V40.75C35.017 40.7503 35.1365 40.7132 35.2378 40.6436C35.339 40.5739 35.4174 40.4749 35.4628 40.3594L36.9978 36.5094C37.0284 36.4352 37.0441 36.3555 37.0439 36.275V35.4375H31.5176V36.275ZM31.5176 15.125V16.375H37.0439V15.125H31.5176ZM39.2728 13.5562L37.0439 11.7031V10.75C37.0434 10.5844 36.9786 10.4257 36.8635 10.3086C36.7485 10.1915 36.5926 10.1255 36.4299 10.125H36.1228V8.875C36.1229 8.71083 36.0912 8.54827 36.0295 8.39659C35.9678 8.24491 35.8773 8.1071 35.7633 7.99101C35.6492 7.87493 35.5138 7.78286 35.3648 7.72006C35.2158 7.65725 35.0561 7.62495 34.8948 7.625H33.6667C33.5054 7.62495 33.3457 7.65725 33.1967 7.72006C33.0477 7.78286 32.9123 7.87493 32.7982 7.99101C32.6842 8.1071 32.5937 8.24491 32.532 8.39659C32.4703 8.54827 32.4386 8.71083 32.4386 8.875V10.125H32.1316C31.9689 10.1255 31.813 10.1915 31.698 10.3086C31.5829 10.4257 31.5181 10.5844 31.5176 10.75V13.875H37.0439V13.3187L38.272 14.3375V20.75C38.272 20.9158 38.3367 21.0747 38.4518 21.1919C38.567 21.3092 38.7231 21.375 38.886 21.375C39.0489 21.375 39.205 21.3092 39.3202 21.1919C39.4353 21.0747 39.5 20.9158 39.5 20.75V14.0406C39.5001 13.9478 39.4797 13.8561 39.4404 13.7722C39.401 13.6884 39.3438 13.6146 39.2728 13.5562ZM31.5176 17.625V31.0625H37.0439V17.625H31.5176Z" fill="#181818"/>
</svg>
