<svg width="44" height="44" viewBox="0 0 44 44" fill="none" xmlns="http://www.w3.org/2000/svg">
<path d="M10.069 42.0008H32.9315L35.7648 30.7188H8.18359L10.069 42.0008Z" fill="#181818"/>
<path d="M11.1816 25.0778V25.5906H32.818V25.0778C32.818 19.1394 27.9653 14.3086 21.9998 14.3086C16.0344 14.3086 11.1816 19.1394 11.1816 25.0778Z" fill="#181818"/>
<path d="M21.9997 13.2821C25.1293 13.2821 27.6663 10.7565 27.6663 7.64103C27.6663 4.52557 25.1293 2 21.9997 2C18.8701 2 16.333 4.52557 16.333 7.64103C16.333 10.7565 18.8701 13.2821 21.9997 13.2821Z" fill="#181818"/>
<path d="M10.6667 26.6172H5V29.6941H39V26.6172H33.3333H10.6667Z" fill="#181818"/>
</svg>
