<svg width="44" height="44" viewBox="0 0 44 44" fill="none" xmlns="http://www.w3.org/2000/svg">
<path d="M21.9997 10C16.6636 10 12.3223 14.486 12.3223 20C12.3223 23.2 13.7984 26.402 16.1739 28.3567C17.1023 29.12 17.7332 30.162 17.9939 31.3333H20.0642V27.872C20.0642 27.5747 19.8307 27.3333 19.5436 27.3333C17.9145 27.3333 16.4939 26.1447 16.239 24.5693C16.1416 23.9667 16.201 23.3607 16.4061 22.8067C15.4855 22.2053 14.9029 21.152 14.9029 20C14.9029 18.84 15.4919 17.7887 16.4145 17.1873C16.2771 16.8173 16.1932 16.4193 16.1932 16C16.1932 14.162 17.6403 12.6667 19.419 12.6667C20.4732 12.6667 21.4107 13.192 21.9997 14.002C22.5887 13.192 23.5261 12.6667 24.5803 12.6667C26.359 12.6667 27.8061 14.162 27.8061 16C27.8061 16.412 27.7332 16.8153 27.5926 17.1933C28.5139 17.7947 29.0965 18.848 29.0965 20C29.0965 21.1613 28.5061 22.214 27.5816 22.8153C27.7578 23.292 27.839 23.806 27.7913 24.3253C27.6352 26.012 26.1765 27.3333 24.4694 27.3333C24.1687 27.3333 23.9352 27.5747 23.9352 27.872V31.3333H26.0055C26.2661 30.1627 26.8971 29.1207 27.8255 28.3567C30.201 26.402 31.6771 23.2 31.6771 20C31.6771 14.486 27.3358 10 21.9997 10Z" fill="#181818"/>
<path d="M17.5121 24.3487C17.6643 25.2907 18.5372 26 19.5437 26C20.5424 26 21.3547 26.84 21.3547 27.872V31.3333H22.645V27.872C22.645 26.84 23.4572 26 24.4559 26C25.5185 26 26.4134 25.208 26.5069 24.1987C26.5598 23.6253 26.3843 23.0773 26.0127 22.6553C25.6463 22.2387 25.1243 22 24.5805 22V20.6667C25.454 20.6667 26.2882 21.0433 26.8947 21.6907C27.4508 21.3307 27.8063 20.698 27.8063 20C27.8063 19.158 27.2837 18.4033 26.5056 18.122L25.7147 17.836L26.1843 17.1187C26.4011 16.788 26.5159 16.4013 26.5159 16C26.5159 14.8973 25.6476 14 24.5805 14C23.5134 14 22.645 14.8973 22.645 16H21.3547C21.3547 14.8973 20.4863 14 19.4192 14C18.3521 14 17.4837 14.8973 17.4837 16C17.4837 17.1027 18.3521 18 19.4192 18V19.3333C18.5095 19.3333 17.6901 18.9387 17.103 18.3107C16.5482 18.6707 16.1934 19.3027 16.1934 20C16.1934 20.842 16.7159 21.5967 17.494 21.878L18.285 22.164L17.8153 22.8813C17.5353 23.3073 17.4282 23.8287 17.5121 24.3487Z" fill="#181818"/>
<path d="M27.8069 32.668H16.194C15.8385 32.668 15.5488 32.9666 15.5488 33.3346C15.5488 33.7026 15.8385 34.0013 16.194 34.0013H27.8069C28.1624 34.0013 28.4521 33.7026 28.4521 33.3346C28.4521 32.9666 28.1624 32.668 27.8069 32.668Z" fill="#181818"/>
<path d="M27.8069 35.332H16.194C15.8385 35.332 15.5488 35.6307 15.5488 35.9987C15.5488 36.3667 15.8385 36.6654 16.194 36.6654H27.8069C28.1624 36.6654 28.4521 36.3667 28.4521 35.9987C28.4521 35.6307 28.1624 35.332 27.8069 35.332Z" fill="#181818"/>
<path d="M21.9999 42C24.1347 42 25.8708 40.206 25.8708 38H18.1289C18.1289 40.206 19.865 42 21.9999 42Z" fill="#181818"/>
<path d="M37.4836 35.332C35.7049 35.332 34.2578 36.8274 34.2578 38.6654C34.2578 40.5034 35.7049 41.9987 37.4836 41.9987C39.2623 41.9987 40.7094 40.5034 40.7094 38.6654C40.7094 36.8274 39.2623 35.332 37.4836 35.332ZM37.4836 40.6654C36.4165 40.6654 35.5481 39.768 35.5481 38.6654C35.5481 37.5627 36.4165 36.6654 37.4836 36.6654C38.5507 36.6654 39.4191 37.5627 39.4191 38.6654C39.4191 39.768 38.5507 40.6654 37.4836 40.6654Z" fill="#181818"/>
<path d="M37.484 39.3333C37.8403 39.3333 38.1292 39.0349 38.1292 38.6667C38.1292 38.2985 37.8403 38 37.484 38C37.1277 38 36.8389 38.2985 36.8389 38.6667C36.8389 39.0349 37.1277 39.3333 37.484 39.3333Z" fill="#181818"/>
<path d="M6.51626 35.3333C6.87257 35.3333 7.16142 35.0349 7.16142 34.6667C7.16142 34.2985 6.87257 34 6.51626 34C6.15994 34 5.87109 34.2985 5.87109 34.6667C5.87109 35.0349 6.15994 35.3333 6.51626 35.3333Z" fill="#181818"/>
<path d="M6.51585 31.332C4.73714 31.332 3.29004 32.8274 3.29004 34.6654C3.29004 36.5034 4.73714 37.9987 6.51585 37.9987C8.29456 37.9987 9.74165 36.5034 9.74165 34.6654C9.74165 32.8274 8.29456 31.332 6.51585 31.332ZM6.51585 36.6654C5.44875 36.6654 4.58036 35.768 4.58036 34.6654C4.58036 33.5627 5.44875 32.6654 6.51585 32.6654C7.58294 32.6654 8.45133 33.5627 8.45133 34.6654C8.45133 35.768 7.58294 36.6654 6.51585 36.6654Z" fill="#181818"/>
<path d="M21.3548 5.87733V8.70067C21.5696 8.68733 21.7819 8.66667 21.9999 8.66667C22.218 8.66667 22.4303 8.68733 22.6451 8.70067V5.87733C23.3941 5.60133 23.9354 4.868 23.9354 4C23.9354 2.89733 23.067 2 21.9999 2C20.9328 2 20.0645 2.89733 20.0645 4C20.0645 4.868 20.6057 5.60133 21.3548 5.87733Z" fill="#181818"/>
<path d="M40.0642 18C39.2242 18 38.5146 18.5593 38.2475 19.3333H32.9346C32.9475 19.5553 32.9675 19.7747 32.9675 20C32.9675 20.222 32.961 20.4447 32.9481 20.6667H38.2475C38.5146 21.4407 39.2242 22 40.0642 22C41.1313 22 41.9997 21.1027 41.9997 20C41.9997 18.8973 41.1313 18 40.0642 18Z" fill="#181818"/>
<path d="M5.75226 20.6667H11.0516C11.0387 20.4447 11.0323 20.222 11.0323 20C11.0323 19.7747 11.0523 19.5553 11.0652 19.3333H5.75226C5.48516 18.5593 4.77548 18 3.93548 18C2.86839 18 2 18.8973 2 20C2 21.1027 2.86839 22 3.93548 22C4.77548 22 5.48516 21.4407 5.75226 20.6667Z" fill="#181818"/>
<path d="M6.51585 9.9987C8.29741 9.9987 9.74165 8.50631 9.74165 6.66536C9.74165 4.82442 8.29741 3.33203 6.51585 3.33203C4.73428 3.33203 3.29004 4.82442 3.29004 6.66536C3.29004 8.50631 4.73428 9.9987 6.51585 9.9987Z" fill="#181818"/>
<path d="M38.7746 11.9987C40.5562 11.9987 42.0004 10.5063 42.0004 8.66536C42.0004 6.82442 40.5562 5.33203 38.7746 5.33203C36.9931 5.33203 35.5488 6.82442 35.5488 8.66536C35.5488 10.5063 36.9931 11.9987 38.7746 11.9987Z" fill="#181818"/>
<path d="M6.51626 11.3346C6.2969 11.3346 6.08271 11.3126 5.87109 11.2812V12.0012C5.87109 13.1039 6.73948 14.0013 7.80658 14.0013H12.7124C12.9963 13.5333 13.3079 13.0866 13.653 12.6679H7.80658C7.45109 12.6679 7.16142 12.3686 7.16142 12.0012V11.2812C6.9498 11.3126 6.73561 11.3346 6.51626 11.3346Z" fill="#181818"/>
<path d="M33.7228 14.001C34.2396 14.001 34.726 13.793 35.0918 13.415L36.0744 12.3997C35.7286 12.1317 35.4215 11.8144 35.1622 11.457L34.1796 12.4724C34.0576 12.5984 33.8951 12.6677 33.7228 12.6677H30.3467C30.6918 13.0864 31.0028 13.533 31.2873 14.001H33.7228Z" fill="#181818"/>
<path d="M36.8391 27.332V34.052C37.0508 34.0207 37.265 33.9987 37.4843 33.9987C37.7037 33.9987 37.9179 34.0207 38.1295 34.052V27.332C38.1295 26.2294 37.2611 25.332 36.194 25.332H31.7475C31.5295 25.7927 31.283 26.2374 31.0127 26.6654H36.194C36.5495 26.6654 36.8391 26.964 36.8391 27.332Z" fill="#181818"/>
<path d="M7.80658 26C6.73948 26 5.87109 26.8973 5.87109 28V30.0533C6.08271 30.022 6.2969 30 6.51626 30C6.73561 30 6.9498 30.022 7.16142 30.0533V28C7.16142 27.632 7.45109 27.3333 7.80658 27.3333H13.4395C13.1304 26.9093 12.8485 26.464 12.5943 26H7.80658Z" fill="#181818"/>
</svg>
