<svg width="220" height="40" viewBox="0 0 220 40" fill="none" xmlns="http://www.w3.org/2000/svg">
<path d="M70.4236 35.7351C67.2566 35.7351 64.4572 35.113 62.0254 33.8688C59.5936 32.5963 57.7132 30.8008 56.3841 28.482C55.0551 26.1633 54.3906 23.4346 54.3906 20.2959C54.3906 17.1572 55.0551 14.4284 56.3841 12.1097C57.7132 9.76275 59.5936 7.96716 62.0254 6.72298C64.4572 5.45052 67.2566 4.81429 70.4236 4.81429C72.5727 4.81429 74.4672 5.0405 76.1073 5.49294C77.7756 5.91709 79.3026 6.59573 80.6881 7.52887V13.6791C79.4439 12.6611 78.016 11.9259 76.4042 11.4735C74.8207 10.9928 73.011 10.7524 70.975 10.7524C69.0805 10.7524 67.3697 11.1483 65.8428 11.9401C64.3441 12.7035 63.1565 13.8063 62.2799 15.2485C61.4033 16.6906 60.965 18.3731 60.965 20.2959C60.965 22.247 61.3609 23.9577 62.1526 25.4281C62.9727 26.8703 64.1179 27.9872 65.5883 28.779C67.0587 29.5707 68.7553 29.9666 70.6781 29.9666C72.4313 29.9666 73.9582 29.6555 75.259 29.0334V23.3074H70.466V18.5569H81.494V32.8508C78.6946 34.7737 75.0045 35.7351 70.4236 35.7351Z" fill="#181818"/>
<path d="M82.9829 14.7395H89.1755V17.6661C89.9955 16.6764 91.1408 15.9271 92.6112 15.4181C94.0816 14.8809 95.7499 14.6122 97.6162 14.6122V19.49C95.6651 19.49 93.9402 19.7869 92.4415 20.3807C90.9711 20.9745 89.9531 21.8794 89.3876 23.0953V35.0988H82.9829V14.7395Z" fill="#181818"/>
<path d="M109.924 35.7351C106.022 35.7351 102.954 34.8019 100.72 32.9357C98.4862 31.0411 97.3693 28.3972 97.3693 25.004C97.3693 21.639 98.359 18.981 100.338 17.0299C102.346 15.0788 105.202 14.1032 108.906 14.1032C111.338 14.1032 113.402 14.5557 115.099 15.4605C116.796 16.3654 118.082 17.6237 118.959 19.2355C119.835 20.819 120.274 22.6146 120.274 24.6223V27.2096H103.477C103.93 29.8111 106.361 31.1118 110.773 31.1118C112.073 31.1118 113.416 30.9987 114.802 30.7725C116.188 30.5463 117.389 30.2352 118.407 29.8393V34.3354C117.418 34.7595 116.145 35.0988 114.59 35.3533C113.035 35.6078 111.479 35.7351 109.924 35.7351ZM114.208 23.0529C114.123 21.6956 113.614 20.6493 112.681 19.9142C111.748 19.1507 110.461 18.7689 108.821 18.7689C107.21 18.7689 105.937 19.1507 105.004 19.9142C104.071 20.6776 103.562 21.7239 103.477 23.0529H114.208Z" fill="#181818"/>
<path d="M133.402 35.7351C129.5 35.7351 126.432 34.8019 124.198 32.9357C121.964 31.0411 120.847 28.3972 120.847 25.004C120.847 21.639 121.837 18.981 123.816 17.0299C125.824 15.0788 128.68 14.1032 132.384 14.1032C134.816 14.1032 136.88 14.5557 138.576 15.4605C140.273 16.3654 141.56 17.6237 142.436 19.2355C143.313 20.819 143.751 22.6146 143.751 24.6223V27.2096H126.955C127.407 29.8111 129.839 31.1118 134.25 31.1118C135.551 31.1118 136.894 30.9987 138.28 30.7725C139.665 30.5463 140.867 30.2352 141.885 29.8393V34.3354C140.895 34.7595 139.623 35.0988 138.067 35.3533C136.512 35.6078 134.957 35.7351 133.402 35.7351ZM137.686 23.0529C137.601 21.6956 137.092 20.6493 136.159 19.9142C135.226 19.1507 133.939 18.7689 132.299 18.7689C130.687 18.7689 129.415 19.1507 128.482 19.9142C127.548 20.6776 127.039 21.7239 126.955 23.0529H137.686Z" fill="#181818"/>
<path d="M145.173 14.7395H151.365V17.242C152.298 16.1957 153.401 15.4181 154.674 14.9091C155.974 14.3719 157.332 14.1032 158.746 14.1032C161.517 14.1032 163.581 14.8526 164.938 16.3513C166.324 17.8217 167.017 19.8152 167.017 22.3318V35.0988H160.612V23.0529C160.612 20.4231 159.396 19.1083 156.964 19.1083C155.89 19.1083 154.886 19.3769 153.953 19.9142C153.02 20.4231 152.228 21.1866 151.577 22.2046V35.0988H145.173V14.7395Z" fill="#181818"/>
<path d="M172.668 11.6007C171.678 11.6007 170.844 11.2756 170.165 10.6252C169.487 9.97482 169.147 9.15479 169.147 8.1651C169.147 7.20369 169.487 6.3978 170.165 5.74743C170.844 5.06878 171.678 4.72946 172.668 4.72946C173.657 4.72946 174.492 5.06878 175.17 5.74743C175.849 6.3978 176.188 7.20369 176.188 8.1651C176.188 9.15479 175.849 9.97482 175.17 10.6252C174.492 11.2756 173.657 11.6007 172.668 11.6007ZM169.444 14.7395H175.891V35.0988H169.444V14.7395Z" fill="#181818"/>
<path d="M186.815 35.7351C185.288 35.7351 183.648 35.5654 181.894 35.2261C180.17 34.915 178.812 34.4626 177.823 33.8688V28.8638C178.954 29.5424 180.311 30.0938 181.894 30.518C183.478 30.9421 184.948 31.1542 186.306 31.1542C187.465 31.1542 188.313 31.0552 188.851 30.8573C189.388 30.6594 189.656 30.2918 189.656 29.7545C189.656 29.3304 189.501 28.991 189.19 28.7365C188.879 28.4538 188.398 28.2134 187.748 28.0155C187.126 27.7893 186.079 27.4641 184.609 27.0399C182.884 26.5309 181.527 26.022 180.537 25.513C179.576 24.9757 178.841 24.3112 178.332 23.5195C177.851 22.7277 177.61 21.7097 177.61 20.4655C177.61 18.3448 178.445 16.7613 180.113 15.715C181.81 14.6405 184.1 14.1032 186.984 14.1032C188.398 14.1032 189.854 14.2588 191.353 14.5698C192.88 14.8526 194.053 15.2343 194.874 15.715V20.5928C194.053 20.0555 192.979 19.6172 191.65 19.2779C190.349 18.9386 189.077 18.7689 187.833 18.7689C186.673 18.7689 185.768 18.882 185.118 19.1083C184.496 19.3345 184.185 19.7586 184.185 20.3807C184.185 20.918 184.482 21.328 185.076 21.6108C185.698 21.8935 186.843 22.247 188.511 22.6711L189.36 22.8832C191.141 23.3639 192.527 23.9012 193.516 24.495C194.506 25.0605 195.199 25.7533 195.595 26.5734C196.019 27.3651 196.231 28.3689 196.231 29.5848C196.231 31.4511 195.425 32.9498 193.813 34.0809C192.201 35.1837 189.869 35.7351 186.815 35.7351Z" fill="#181818"/>
<path d="M197.711 3.75391H204.116V17.0723C205.077 16.0826 206.166 15.3474 207.382 14.8667C208.598 14.3577 209.899 14.1032 211.284 14.1032C214.055 14.1032 216.12 14.8526 217.477 16.3513C218.862 17.8217 219.555 19.8152 219.555 22.3318V35.0988H213.151V23.0529C213.151 20.4231 211.935 19.1083 209.503 19.1083C208.428 19.1083 207.424 19.3769 206.491 19.9142C205.558 20.4231 204.766 21.1866 204.116 22.2046V35.0988H197.711V3.75391Z" fill="#181818"/>
<path fill-rule="evenodd" clip-rule="evenodd" d="M32.5189 9.75552C32.5189 15.1433 28.1512 19.511 22.7633 19.511C17.3755 19.511 13.0078 15.1433 13.0078 9.75552C13.0078 4.3677 17.3755 0 22.7633 0C28.1512 0 32.5189 4.3677 32.5189 9.75552ZM0.0709067 18.8021C10.6993 18.0857 19.9623 26.0432 20.8251 36.694C20.9145 37.7977 20.9102 38.8874 20.8189 39.9552C10.1905 40.6716 0.927523 32.7142 0.0647364 22.0633C-0.0246692 20.9596 -0.0203943 19.8699 0.0709067 18.8021ZM27.6956 39.5823C38.3465 38.7196 46.3039 29.4566 45.5875 18.8282C44.5197 18.7369 43.4301 18.7327 42.3264 18.8221C31.6755 19.6848 23.7181 28.9478 24.4345 39.5762C25.5023 39.6675 26.5919 39.6717 27.6956 39.5823Z" fill="#181818"/>
</svg>
