<svg width="605" height="152" viewBox="0 0 605 152" fill="none" xmlns="http://www.w3.org/2000/svg">
<mask id="path-1-inside-1_90_8901" fill="white">
<path fill-rule="evenodd" clip-rule="evenodd" d="M605 10C605 4.47715 600.523 0 595 0H209C203.477 0 199 4.47715 199 10V66C199 71.5229 194.523 76 189 76H10C4.47715 76 0 80.4771 0 86V142C0 147.523 4.47714 152 9.99999 152H308C313.523 152 318 147.523 318 142V86C318 80.4771 322.477 76 328 76H595C600.523 76 605 71.5229 605 66V10Z"/>
</mask>
<path fill-rule="evenodd" clip-rule="evenodd" d="M605 10C605 4.47715 600.523 0 595 0H209C203.477 0 199 4.47715 199 10V66C199 71.5229 194.523 76 189 76H10C4.47715 76 0 80.4771 0 86V142C0 147.523 4.47714 152 9.99999 152H308C313.523 152 318 147.523 318 142V86C318 80.4771 322.477 76 328 76H595C600.523 76 605 71.5229 605 66V10Z" fill="#D7FB00"/>
<path d="M209 1H595V-1H209V1ZM200 66V10H198V66H200ZM10 77H189V75H10V77ZM1 142V86H-1V142H1ZM308 151H9.99999V153H308V151ZM317 86V142H319V86H317ZM595 75H328V77H595V75ZM604 10V66H606V10H604ZM595 77C601.075 77 606 72.0751 606 66H604C604 70.9706 599.971 75 595 75V77ZM319 86C319 81.0294 323.029 77 328 77V75C321.925 75 317 79.9249 317 86H319ZM308 153C314.075 153 319 148.075 319 142H317C317 146.971 312.971 151 308 151V153ZM-1 142C-1 148.075 3.92486 153 9.99999 153V151C5.02943 151 1 146.971 1 142H-1ZM10 75C3.92487 75 -1 79.9249 -1 86H1C1 81.0294 5.02944 77 10 77V75ZM198 66C198 70.9706 193.971 75 189 75V77C195.075 77 200 72.0751 200 66H198ZM595 1C599.971 1 604 5.02944 604 10H606C606 3.92487 601.075 -1 595 -1V1ZM209 -1C202.925 -1 198 3.92487 198 10H200C200 5.02944 204.029 1 209 1V-1Z" fill="#181818" mask="url(#path-1-inside-1_90_8901)"/>
</svg>
