<svg width="38" height="57" viewBox="0 0 38 57" fill="none" xmlns="http://www.w3.org/2000/svg">
<circle cx="19" cy="19" r="19" fill="#D7FB00"/>
<path d="M30.8458 57H7.42412C6.03184 57 4.89844 55.8108 4.89844 54.3489V17.6515C4.89844 16.1896 6.03184 15 7.42412 15H23.83C24.0709 15 24.266 15.2048 24.266 15.4578C24.266 15.7108 24.0709 15.9156 23.83 15.9156H7.42412C6.51211 15.9156 5.77042 16.6944 5.77042 17.6515V54.3489C5.77042 55.3061 6.51211 56.0844 7.42412 56.0844H30.8458C31.757 56.0844 32.4987 55.3061 32.4987 54.3489V25.0177C32.4987 24.7647 32.6937 24.5599 32.9347 24.5599C33.1757 24.5599 33.3707 24.7647 33.3707 25.0177V54.3489C33.3707 55.8108 32.2381 57 30.8458 57Z" fill="#181818"/>
<path d="M32.9352 25.4755H25.9194C24.5271 25.4755 23.3945 24.2863 23.3945 22.8245V15.4578C23.3945 15.2727 23.501 15.1055 23.6636 15.0349C23.8263 14.9638 24.0145 15.0036 24.1388 15.1341L33.2435 24.6941C33.3678 24.8251 33.4053 25.0218 33.338 25.193C33.2707 25.3642 33.1115 25.4755 32.9352 25.4755ZM24.2665 16.5629V22.8245C24.2665 23.7816 25.0082 24.5599 25.9194 24.5599H31.8827L24.2665 16.5629Z" fill="#181818"/>
<path d="M19.0417 23.7203H10.0835C9.84246 23.7203 9.64746 23.5155 9.64746 23.2625C9.64746 23.0094 9.84246 22.8047 10.0835 22.8047H19.0417C19.2827 22.8047 19.4777 23.0094 19.4777 23.2625C19.4777 23.5155 19.2827 23.7203 19.0417 23.7203Z" fill="#181818"/>
<path d="M27.0999 29.4253H10.0835C9.84246 29.4253 9.64746 29.2206 9.64746 28.9676C9.64746 28.7145 9.84246 28.5098 10.0835 28.5098H27.0999C27.3408 28.5098 27.5358 28.7145 27.5358 28.9676C27.5358 29.2206 27.3408 29.4253 27.0999 29.4253Z" fill="#181818"/>
<path d="M27.0999 36.5738H10.0835C9.84246 36.5738 9.64746 36.369 9.64746 36.116C9.64746 35.863 9.84246 35.6582 10.0835 35.6582H27.0999C27.3408 35.6582 27.5358 35.863 27.5358 36.116C27.5358 36.369 27.3408 36.5738 27.0999 36.5738Z" fill="#181818"/>
<path d="M27.0999 43.7203H10.0835C9.84246 43.7203 9.64746 43.5155 9.64746 43.2625C9.64746 43.0094 9.84246 42.8047 10.0835 42.8047H27.0999C27.3408 42.8047 27.5358 43.0094 27.5358 43.2625C27.5358 43.5155 27.3408 43.7203 27.0999 43.7203Z" fill="#181818"/>
<path d="M27.0999 50.8668H10.0835C9.84246 50.8668 9.64746 50.662 9.64746 50.409C9.64746 50.1559 9.84246 49.9512 10.0835 49.9512H27.0999C27.3408 49.9512 27.5358 50.1559 27.5358 50.409C27.5358 50.662 27.3408 50.8668 27.0999 50.8668Z" fill="#181818"/>
</svg>
