<svg width="44" height="60" viewBox="0 0 44 60" fill="none" xmlns="http://www.w3.org/2000/svg">
<circle cx="21.6602" cy="19" r="19" fill="#D7FB00"/>
<path fill-rule="evenodd" clip-rule="evenodd" d="M22.4433 10.8651C18.7646 10.8651 15.7824 13.8472 15.7824 17.526C15.7824 21.2047 18.7646 24.1869 22.4433 24.1869C26.122 24.1869 29.1042 21.2047 29.1042 17.526C29.1042 13.8472 26.122 10.8651 22.4433 10.8651ZM14.9174 17.526C14.9174 13.3695 18.2869 10 22.4433 10C26.5998 10 29.9693 13.3695 29.9693 17.526C29.9693 21.6824 26.5998 25.0519 22.4433 25.0519C18.2869 25.0519 14.9174 21.6824 14.9174 17.526ZM12.1335 34.9423C12.1335 34.9423 12.1335 34.9423 12.1335 34.9423C12.1107 35.0246 12.0641 35.0984 11.9995 35.1542L1.8737 43.907C1.45592 45.0123 1.46353 45.74 1.63843 46.2077C1.81277 46.674 2.18597 46.967 2.68388 47.1329C3.18958 47.3015 3.79171 47.325 4.32776 47.2599C4.59322 47.2276 4.83236 47.1748 5.02421 47.1132C5.22475 47.0488 5.34286 46.9846 5.39109 46.946C5.39868 46.9399 5.40648 46.9341 5.41446 46.9285L15.6221 39.8351C15.7543 39.7432 15.9266 39.7324 16.0693 39.807C16.212 39.8816 16.3014 40.0293 16.3014 40.1903V42.9585C16.3014 43.0693 16.2588 43.176 16.1825 43.2564C15.7013 43.7629 15.0144 44.4162 14.2316 45.1608C13.6697 45.6952 13.0585 46.2765 12.4384 46.8843C10.9366 48.3565 9.35141 50.0127 8.15101 51.6486C6.93714 53.3029 6.17799 54.8564 6.20456 56.1361C6.21744 56.7568 6.41506 57.3181 6.85286 57.816C7.28802 58.3109 7.98052 58.7655 9.02206 59.1349H12.6661C11.8601 57.735 11.5573 56.4469 11.5952 55.2849C11.6391 53.9414 12.1372 52.8077 12.7674 51.9025C13.3961 50.9994 14.1629 50.3138 14.7669 49.8559C15.07 49.6261 15.3349 49.4515 15.5254 49.3337C15.6208 49.2747 15.6977 49.2298 15.7517 49.1991C15.7787 49.1838 15.8 49.172 15.8151 49.1638C15.8226 49.1597 15.8286 49.1565 15.8329 49.1542L15.8381 49.1514L15.8398 49.1505L15.8404 49.1501C15.8406 49.15 15.8409 49.1499 16.0419 49.5329C16.0259 49.1006 16.0259 49.1006 16.026 49.1006L16.0262 49.1006L16.0268 49.1006L16.0798 49.0987C16.0981 49.0981 16.1209 49.0973 16.148 49.0963C16.1728 49.0955 16.2012 49.0945 16.233 49.0935C16.3661 49.0891 16.5587 49.083 16.7974 49.0762C17.2746 49.0626 17.9362 49.0464 18.674 49.0355C20.1385 49.014 21.9199 49.0135 23.151 49.1004C23.8031 49.1024 24.3044 49.2316 24.6801 49.4612C25.0649 49.6963 25.2856 50.0173 25.4017 50.3366C25.515 50.6481 25.5265 50.9499 25.5134 51.1648C25.5068 51.2739 25.4936 51.3656 25.4816 51.4316C25.4755 51.4647 25.4698 51.4917 25.4652 51.5117C25.4629 51.5217 25.4609 51.5299 25.4593 51.5363L25.4572 51.5445L25.4564 51.5475L25.456 51.5487L25.4559 51.5493C25.4558 51.5495 25.4557 51.5498 25.0385 51.436L25.4557 51.5498C25.4044 51.738 25.2335 51.8685 25.0385 51.8685H16.8613C15.5612 52.7189 14.9113 53.5858 14.64 54.3793C14.3622 55.1913 14.4611 55.9842 14.7551 56.6998C15.0513 57.4204 15.5406 58.0476 16.0103 58.4945C16.2444 58.7173 16.4661 58.8881 16.6457 59C16.7357 59.0561 16.809 59.0935 16.8632 59.1156C16.8956 59.1288 16.9137 59.1335 16.9195 59.1349H35.6877C36.7289 58.7453 37.4261 58.278 37.8677 57.7743C38.3129 57.2664 38.5163 56.7018 38.5362 56.0852C38.5771 54.8158 37.8405 53.291 36.6493 51.6705C35.4712 50.0678 33.9083 48.45 32.4226 47.0074C31.8336 46.4355 31.2519 45.8868 30.713 45.3785C29.9088 44.6199 29.1999 43.9513 28.7041 43.4294C28.6277 43.349 28.5852 43.2424 28.5852 43.1315V40.1903C28.5852 40.0258 28.6784 39.8756 28.8258 39.8027C28.9732 39.7297 29.1492 39.7467 29.28 39.8464L39.3944 47.5607C40.6165 47.7027 41.343 47.5259 41.769 47.2543C42.1924 46.9843 42.3876 46.5759 42.4515 46.1015C42.5168 45.6165 42.4382 45.0932 42.3335 44.6745C42.282 44.4685 42.2261 44.2952 42.1834 44.1743C42.1701 44.1367 42.1581 44.1043 42.1481 44.0777L32.1892 35.149C32.1274 35.0936 32.0829 35.0217 32.0609 34.9417C31.1219 31.5272 29.9784 29.5961 29.0953 28.5282C28.6537 27.9943 28.2759 27.6744 28.0184 27.4915C27.8895 27.3999 27.7902 27.3423 27.7274 27.3092C27.7219 27.3063 27.7167 27.3036 27.7118 27.301H16.734C16.725 27.301 16.716 27.3008 16.707 27.3002C16.2368 27.2708 15.6997 27.5963 15.1178 28.3119C14.5523 29.0073 14.0298 29.9682 13.5814 30.9609C13.1353 31.9487 12.7729 32.945 12.5215 33.6964C12.396 34.0715 12.2987 34.3842 12.2328 34.6027C12.1999 34.7119 12.1749 34.7975 12.1582 34.8555C12.1499 34.8844 12.1436 34.9065 12.1395 34.9211L12.1349 34.9375L12.1338 34.9413L12.1335 34.9423ZM27.8066 26.8685C27.9585 26.4635 27.9589 26.4637 27.9593 26.4638L27.9602 26.4642L27.9621 26.4649L27.9667 26.4667C27.9701 26.468 27.9742 26.4697 27.979 26.4716C27.9884 26.4755 28.0005 26.4806 28.015 26.4871C28.0441 26.5002 28.0831 26.5188 28.1311 26.5441C28.2272 26.5948 28.359 26.6723 28.5193 26.7862C28.8403 27.0142 29.2735 27.3863 29.7619 27.977C30.7272 29.1443 31.9029 31.1584 32.8609 34.5895L42.8012 43.5015C42.8481 43.5435 42.8853 43.5953 42.9101 43.6531L42.5125 43.8235C42.9101 43.6531 42.9101 43.6533 42.9102 43.6535L42.9104 43.6541L42.911 43.6554L42.9127 43.6595C42.9136 43.6616 42.9147 43.6642 42.916 43.6674L42.9183 43.6728C42.9228 43.6839 42.9292 43.6995 42.937 43.7194C42.9526 43.759 42.9741 43.8155 42.9991 43.8863C43.049 44.0276 43.1134 44.2274 43.1727 44.4647C43.2897 44.9327 43.3949 45.5773 43.3088 46.2169C43.2213 46.867 42.9299 47.5399 42.2341 47.9836C41.5541 48.4173 40.5606 48.5842 39.17 48.4047C39.0947 48.395 39.0233 48.3657 38.963 48.3197L29.4502 41.0642V42.9574C29.9226 43.4442 30.5533 44.0388 31.276 44.7203C31.8168 45.2301 32.409 45.7885 33.0252 46.3868C34.5185 47.8368 36.1239 49.4953 37.3463 51.1582C38.5556 52.8033 39.4518 54.5332 39.4008 56.1131C39.3747 56.9212 39.101 57.6798 38.5182 58.3445C37.9419 59.0019 37.082 59.5468 35.9135 59.9737C35.866 59.9911 35.8157 60 35.7651 60H16.907C16.7713 60 16.6405 59.9591 16.5363 59.9165C16.4247 59.871 16.3071 59.8082 16.1883 59.7342C15.9503 59.5859 15.6826 59.3769 15.4139 59.1212C14.878 58.6112 14.3076 57.8866 13.955 57.0286C13.6003 56.1654 13.4612 55.1526 13.8215 54.0993C14.1808 53.0486 15.0173 52.0157 16.5017 51.0711C16.5711 51.0269 16.6517 51.0035 16.734 51.0035H24.6525C24.6507 50.8862 24.6339 50.7564 24.5887 50.6322C24.5318 50.4757 24.4281 50.3209 24.229 50.1993C24.0237 50.0739 23.6866 49.9654 23.1353 49.9654C23.1251 49.9654 23.1148 49.965 23.1045 49.9643C21.914 49.8793 20.1573 49.8788 18.6867 49.9005C17.9538 49.9112 17.2963 49.9274 16.8219 49.9409C16.5848 49.9476 16.3935 49.9537 16.2617 49.9581C16.2229 49.9593 16.1893 49.9605 16.1611 49.9615C16.1167 49.9869 16.0555 50.0229 15.9806 50.0693C15.8095 50.1751 15.5676 50.3344 15.2895 50.5452C14.7311 50.9686 14.0381 51.5914 13.4773 52.3968C12.9181 53.2001 12.497 54.1749 12.4598 55.3131C12.4227 56.4483 12.7661 57.7875 13.8051 59.3253C13.8947 59.4579 13.9038 59.6291 13.8287 59.7704C13.7537 59.9117 13.6068 60 13.4468 60H8.94849C8.90033 60 8.85251 59.992 8.807 59.9762C7.63731 59.5713 6.77712 59.04 6.2032 58.3872C5.62254 57.7268 5.35654 56.9662 5.33969 56.1541C5.30678 54.5683 6.22367 52.813 7.45357 51.1369C8.69694 49.4424 10.3232 47.7464 11.8329 46.2666C12.4806 45.6317 13.1014 45.0415 13.6639 44.5067C14.3657 43.8395 14.9768 43.2586 15.4364 42.7845V41.0176L5.91857 47.6317C5.75161 47.7611 5.52401 47.8613 5.28868 47.9368C5.03855 48.0171 4.74514 48.0806 4.4321 48.1186C3.81114 48.194 3.07244 48.1743 2.41032 47.9536C1.74041 47.7303 1.1188 47.2879 0.828172 46.5107C0.543247 45.7487 0.610905 44.7538 1.10646 43.4924C1.13209 43.4271 1.17317 43.3691 1.22619 43.3233L11.3362 34.5842C11.3532 34.5255 11.3761 34.4477 11.4046 34.3531C11.4725 34.1276 11.5725 33.8064 11.7011 33.4219C11.958 32.654 12.3309 31.6283 12.793 30.6048C13.253 29.5863 13.8118 28.5468 14.4466 27.7661C15.0617 27.0097 15.8388 26.3863 16.7466 26.436H27.8066C27.8585 26.436 27.9099 26.4453 27.9585 26.4635L27.8066 26.8685ZM16.0419 49.5329L16.026 49.1006C15.9614 49.103 15.8981 49.1199 15.8409 49.1499L16.0419 49.5329Z" fill="#181818"/>
</svg>
