<svg width="168" height="168" viewBox="0 0 168 168" fill="none" xmlns="http://www.w3.org/2000/svg">
<path d="M66.1692 151.572L66.1643 151.571C64.3747 151.156 62.3809 151.538 60.3657 152.227C58.6191 152.825 56.7954 153.677 55.0085 154.512C54.7293 154.642 54.451 154.772 54.1741 154.9C52.1059 155.86 50.1115 156.74 48.2868 157.177C46.4626 157.613 44.8923 157.587 43.6173 156.839C42.3303 156.083 41.4138 154.644 40.7055 152.728C39.9997 150.819 39.5305 148.521 39.0811 146.141C39.0275 145.857 38.9742 145.572 38.9208 145.287C38.5295 143.195 38.133 141.076 37.5845 139.196C36.9634 137.066 36.1252 135.158 34.8044 133.913C33.4817 132.668 31.5937 131.992 29.5282 131.565C27.7497 131.197 25.7771 131.002 23.8323 130.809C23.5142 130.778 23.1969 130.746 22.8813 130.714C20.6165 130.484 18.4364 130.219 16.5952 129.66C14.7586 129.103 13.3298 128.273 12.4873 126.964C11.7153 125.653 11.5941 123.953 11.879 121.956C12.1637 119.959 12.8412 117.746 13.5784 115.462C13.6661 115.19 13.7547 114.917 13.8435 114.644C14.4953 112.636 15.1584 110.594 15.5789 108.666C16.055 106.483 16.2385 104.372 15.7017 102.565C15.2345 100.827 13.9911 99.2193 12.4685 97.7003C11.1991 96.4339 9.69097 95.1874 8.19558 93.9513C7.89049 93.6992 7.58593 93.4474 7.28404 93.1961C5.48783 91.7004 3.7814 90.2141 2.523 88.6749C1.26434 87.1353 0.5 85.5977 0.5 84C0.5 82.4023 1.26434 80.8647 2.523 79.3251C3.7814 77.7859 5.48783 76.2996 7.28404 74.8039C7.5859 74.5526 7.89042 74.3009 8.19547 74.0488C9.69089 72.8127 11.1991 71.5661 12.4685 70.2997C13.9911 68.7807 15.2345 67.173 15.7017 65.4354C16.2393 63.6248 16.0361 61.512 15.5374 59.3295C15.1087 57.453 14.4464 55.4667 13.7943 53.5112C13.6854 53.1846 13.5768 52.8589 13.4696 52.5346C12.7147 50.2513 12.0294 48.041 11.7583 46.0473C11.4868 44.0513 11.6426 42.354 12.4825 41.0435L12.4873 41.036L12.4919 41.0283C13.2619 39.7268 14.6483 38.898 16.475 38.3395C18.3018 37.7809 20.4901 37.5161 22.7733 37.2858C23.0965 37.2532 23.4218 37.2213 23.7479 37.1893C25.7049 36.9972 27.6941 36.802 29.4868 36.4351C31.5733 36.0081 33.4807 35.3334 34.8044 34.0866C36.1273 32.8405 36.947 30.929 37.5455 28.7995C38.0591 26.9718 38.4261 24.9177 38.7893 22.8845C38.8508 22.5405 38.9121 22.1972 38.974 21.8556C39.4054 19.4766 39.8655 17.1812 40.5833 15.2747C41.3018 13.3665 42.2498 11.9278 43.6038 11.1687C44.8759 10.4917 46.4656 10.5178 48.3192 10.9939C50.1713 11.4695 52.1957 12.3695 54.2833 13.3301C54.4754 13.4185 54.6681 13.5074 54.8611 13.5965C56.7477 14.4672 58.6715 15.3551 60.4941 15.9477C62.4927 16.5974 64.4563 16.923 66.1803 16.4248C67.9041 16.0027 69.4744 14.7242 70.9369 13.1436C72.2294 11.7468 73.4886 10.0555 74.7304 8.38774C74.9028 8.15621 75.0749 7.92513 75.2466 7.69535C76.6674 5.79465 78.069 3.98156 79.5159 2.64226C80.9669 1.29921 82.3926 0.5 83.8564 0.5C85.3218 0.5 86.766 1.30065 88.2451 2.64528C89.7193 3.98557 91.1568 5.79967 92.6134 7.70014C92.7934 7.93502 92.9738 8.17125 93.1544 8.40791C94.4238 10.0707 95.7096 11.7551 97.0214 13.147C98.5131 14.7298 100.105 16.0087 101.831 16.4275L101.836 16.4287C103.625 16.844 105.619 16.4624 107.634 15.7728C109.381 15.1751 111.204 14.3233 112.991 13.4885C113.271 13.3581 113.549 13.2281 113.826 13.0995C115.894 12.1396 117.889 11.2604 119.713 10.8234C121.537 10.3865 123.108 10.4125 124.383 11.1611C125.67 11.9167 126.586 13.3559 127.294 15.2719C128 17.1813 128.469 19.4792 128.919 21.8592C128.973 22.143 129.026 22.4279 129.079 22.7134C129.471 24.8047 129.867 26.9237 130.416 28.8042C131.037 30.9337 131.875 32.8424 133.196 34.0866C134.518 35.3324 136.406 36.0075 138.472 36.4349C140.25 36.8029 142.223 36.9982 144.168 37.1908C144.486 37.2223 144.803 37.2537 145.119 37.2858C147.384 37.516 149.564 37.7809 151.405 38.3398C153.241 38.8973 154.67 39.727 155.513 41.036C156.285 42.3468 156.406 44.0466 156.121 46.0442C155.836 48.0413 155.159 50.254 154.422 52.538C154.334 52.8098 154.245 53.0825 154.157 53.356C153.505 55.3638 152.842 57.4064 152.421 59.3344C151.945 61.5173 151.762 63.6278 152.298 65.4354C152.766 67.173 154.009 68.7807 155.531 70.2997C156.801 71.5661 158.309 72.8127 159.804 74.0487C160.11 74.3009 160.414 74.5526 160.716 74.8039C162.512 76.2996 164.219 77.7859 165.477 79.3251C166.736 80.8647 167.5 82.4023 167.5 84C167.5 85.5977 166.736 87.1353 165.477 88.6749C164.219 90.2141 162.512 91.7004 160.716 93.1961C160.414 93.4474 160.109 93.6992 159.804 93.9514C158.309 95.1874 156.801 96.434 155.531 97.7003C154.009 99.2193 152.766 100.827 152.298 102.565C151.761 104.375 151.964 106.488 152.467 108.671C152.914 110.608 153.612 112.661 154.298 114.677C154.389 114.942 154.478 115.206 154.567 115.469C155.341 117.753 156.053 119.965 156.364 121.962C156.676 123.963 156.57 125.663 155.795 126.972C155.025 128.273 153.639 129.102 151.812 129.661C149.985 130.219 147.797 130.484 145.514 130.714C145.191 130.747 144.865 130.779 144.539 130.811C142.582 131.003 140.593 131.198 138.8 131.565C136.714 131.992 134.806 132.667 133.483 133.913C132.16 135.16 131.34 137.071 130.742 139.2C130.228 141.028 129.861 143.082 129.498 145.115C129.436 145.459 129.375 145.803 129.313 146.144C128.882 148.523 128.422 150.819 127.704 152.725C126.985 154.633 126.038 156.072 124.684 156.831C123.412 157.508 121.822 157.482 119.968 157.006C118.116 156.53 116.092 155.63 114.004 154.67C113.812 154.581 113.619 154.493 113.426 154.403C111.539 153.533 109.616 152.645 107.793 152.052C105.795 151.403 103.833 151.077 102.109 151.574C100.317 151.995 98.6941 153.269 97.189 154.851C95.8218 156.289 94.5018 158.037 93.2073 159.751C93.0683 159.936 92.9295 160.119 92.7911 160.302C91.3516 162.204 89.9411 164.017 88.4891 165.357C87.0332 166.701 85.6075 167.5 84.1436 167.5C82.6782 167.5 81.234 166.699 79.7549 165.355C78.2807 164.014 76.8432 162.2 75.3866 160.3C75.2065 160.065 75.0262 159.829 74.8455 159.592C73.5762 157.929 72.2904 156.245 70.9786 154.853C69.4869 153.27 67.8955 151.991 66.1692 151.572Z" fill="#181818" stroke="#D7FB00"/>
</svg>
