<svg width="38" height="60" viewBox="0 0 38 60" fill="none" xmlns="http://www.w3.org/2000/svg">
<circle cx="19" cy="19" r="19" fill="#D7FB00"/>
<path d="M35.4613 52.9367C34.9625 52.5918 34.2523 52.4918 33.3505 52.6394C32.9216 52.709 32.4882 52.567 32.1909 52.2582C31.7315 51.781 30.9905 51.1322 30.0696 50.7504C29.526 50.5251 28.7923 50.3747 27.9428 50.2006C26.3435 49.8727 24.3531 49.4648 23.396 48.3896C22.4615 47.3396 22.1645 46.1627 21.8774 45.0246C21.7102 44.362 21.5523 43.7362 21.2782 43.1461C20.9886 42.5223 20.5664 41.9901 20.1192 41.4265C19.3849 40.5008 18.6256 39.5437 18.3009 38.0116C18.0306 36.7363 18.2821 35.3777 18.5041 34.1791C18.7234 32.9945 18.9129 31.9713 18.598 31.1843C18.2217 30.2435 17.5076 29.693 16.8776 29.2072C16.4942 28.9117 16.1322 28.6307 15.8882 28.2968C16.4292 27.9772 17.4667 27.2549 18.2763 26.033C19.5244 24.1495 19.4185 21.5739 18.0246 19.9091C17.12 18.8286 15.2636 17.8311 13.2178 18.0527C13.0367 17.2465 12.8653 16.4702 12.7107 15.7592L14.0104 14.5682C14.5691 14.0564 14.6326 13.1947 14.155 12.6066C13.7159 12.0659 12.955 11.9188 12.3458 12.2565L11.9037 12.5018L11.1053 10.7189C10.84 10.1263 10.1587 9.84763 9.55392 10.0839C9.26314 10.1977 9.04201 10.4124 8.91215 10.6718C8.63299 10.5642 8.32833 10.5633 8.04797 10.6729C7.76008 10.7855 7.5322 11.0008 7.40175 11.2798C7.11713 11.1719 6.79381 11.1636 6.48856 11.2828C5.91237 11.5081 5.58261 12.1116 5.70434 12.7174C5.92596 13.8211 6.29402 15.267 6.78905 15.8872C7.35353 16.5941 8.20809 16.942 8.63507 17.0798L9.22634 20.4387C7.51643 22.7227 7.43746 25.7585 7.94172 27.2193C8.29192 28.2336 9.17197 28.5247 9.97584 28.5247C10.2082 28.5247 10.4335 28.4998 10.6384 28.4616L10.8181 29.4825C10.355 29.9314 9.16434 31.3051 8.98963 33.7013C8.81622 36.0786 10.3919 40.7736 10.9631 42.3824C10.5554 42.3763 10.1343 42.3766 9.70917 42.3862C6.10533 42.4685 3.95772 43.1652 3.32588 44.4569C2.2489 46.659 3.83094 52.0029 4.86992 54.9924C5.03619 55.4707 4.81704 55.9974 4.3603 56.2177L1.75119 57.4755C1.29494 57.6957 1 58.1653 1 58.6719C1 59.4043 1.59573 60 2.32807 60H8.85085C9.50005 60 10.0939 59.6718 10.4394 59.1222C10.7851 58.5724 10.8235 57.8947 10.5419 57.3093C10.1971 56.5923 10.1116 56.2221 10.1004 56.0378C10.0777 55.6575 10.1975 55.0304 10.3243 54.3664C10.5352 53.2634 10.774 52.0132 10.6009 50.9371C10.4572 50.0434 9.99895 49.2067 9.56751 48.5842C10.627 48.879 11.8062 49.0979 12.9764 49.0979C13.5563 49.0979 14.1005 49.061 14.607 49C15.2807 49.61 18.2719 52.2208 21.9659 53.9717C25.1707 55.4907 29.5209 56.001 31.2425 56.15C31.5771 56.179 31.8294 56.4542 31.8294 56.7903C31.8294 57.0284 31.6988 57.2459 31.4885 57.3578L31.0107 57.612C30.596 57.8328 30.3382 58.2618 30.3382 58.7317C30.3382 59.4311 30.9072 60 31.6066 60H33.8335C34.7684 60 35.572 59.3662 35.7878 58.4587C36.5049 55.4402 36.3951 53.5824 35.4613 52.9367ZM17.4162 20.4186C18.5709 21.7978 18.6562 24.0231 17.6148 25.5949C16.9374 26.6172 16.0647 27.2542 15.5732 27.5583C15.074 26.0156 14.1712 22.2603 13.3939 18.833C15.1126 18.6796 16.6589 19.5141 17.4162 20.4186ZM8.69192 26.9603C8.30382 25.8362 8.32972 23.5098 9.42683 21.5782L10.5005 27.678C9.97792 27.7774 8.994 27.8355 8.69192 26.9603ZM35.0155 58.2752C34.8852 58.8234 34.3991 59.2064 33.8333 59.2064H31.6064C31.3447 59.2064 31.1317 58.9935 31.1317 58.7317C31.1317 58.5559 31.2281 58.3952 31.3833 58.3126L31.8611 58.0583C32.3309 57.8083 32.6227 57.3225 32.6227 56.7903C32.6227 56.0392 32.0586 55.424 31.3106 55.3593C29.6319 55.214 25.3938 54.7182 22.3056 53.2545C19.3277 51.843 16.7597 49.8014 15.6276 48.8369C17.5967 48.4415 18.7732 47.7319 18.8405 47.6907C19.027 47.5762 19.0853 47.3323 18.971 47.1456C18.8567 46.9588 18.6125 46.9002 18.4257 47.0141C18.4046 47.027 16.2715 48.3042 12.9761 48.3042C9.66175 48.3042 6.11128 46.3596 6.07576 46.34C5.8841 46.2339 5.64253 46.3032 5.53638 46.4948C5.43013 46.6865 5.49928 46.9279 5.69094 47.0342C5.76922 47.0777 6.76673 47.6241 8.19609 48.1437C8.47386 48.4405 9.59995 49.7137 9.81701 51.0631C9.968 52.0015 9.743 53.1788 9.54449 54.2176C9.40213 54.9626 9.27912 55.606 9.30789 56.0853C9.33051 56.4621 9.50005 56.975 9.82634 57.6534C9.98883 57.9914 9.96681 58.3826 9.76721 58.7C9.56781 59.0172 9.22515 59.2065 8.85055 59.2065H2.32777C2.03303 59.2065 1.79335 58.9668 1.79335 58.672C1.79335 58.4681 1.912 58.2792 2.09573 58.1906L4.70484 56.9328C5.52487 56.5374 5.91803 55.5913 5.61942 54.7319C3.94542 49.9152 3.35455 46.2045 4.03867 44.8057C4.74779 43.3559 8.43021 43.0991 11.4654 43.182C11.4877 43.186 11.5105 43.1885 11.5335 43.1885C11.5458 43.1885 11.5583 43.1864 11.5706 43.1852C12.8108 43.2225 13.935 43.3153 14.692 43.4047C14.9091 43.4293 15.107 43.2747 15.1326 43.0571C15.1582 42.8395 15.0027 42.6422 14.7851 42.6165C14.7676 42.6145 13.4928 42.466 11.8145 42.4045C11.3884 41.2225 9.60898 36.1168 9.7809 33.7591C9.89737 32.1618 10.5305 31.0749 10.9935 30.4806L11.3749 32.648C11.4089 32.8405 11.5763 32.9762 11.7653 32.9762C11.7881 32.9762 11.8113 32.9741 11.8346 32.97C12.0504 32.932 12.1946 32.7263 12.1566 32.5104L9.37366 16.6979C9.34588 16.5403 9.22634 16.4147 9.07019 16.3796C9.05957 16.3772 7.99916 16.1308 7.40919 15.392C7.10482 15.0107 6.76703 13.979 6.48241 12.5611C6.43667 12.3335 6.56088 12.1068 6.77764 12.022C7.02348 11.9257 7.30165 12.0477 7.39778 12.2934L7.39788 12.2936L7.92883 13.6512C7.99004 13.8078 8.13984 13.9036 8.29847 13.9036C8.34648 13.9036 8.39549 13.8947 8.44291 13.8763C8.64698 13.7964 8.74777 13.5663 8.66791 13.3621L8.10908 11.933C8.07 11.833 8.07208 11.7238 8.11523 11.6254C8.15829 11.527 8.23716 11.4512 8.33716 11.4122C8.43716 11.373 8.54638 11.3752 8.64479 11.4183C8.74321 11.4614 8.8189 11.5402 8.85799 11.6402L8.86473 11.6574C8.86483 11.6576 8.86483 11.6578 8.86493 11.658L8.86503 11.6583L9.41691 13.0691C9.49677 13.2733 9.72703 13.3737 9.931 13.2942C10.1352 13.2144 10.2359 12.9842 10.156 12.78L9.60411 11.369C9.51949 11.1527 9.62673 10.9078 9.8431 10.8232C10.0527 10.7411 10.2891 10.8378 10.3811 11.0434L11.3562 13.2207C11.4016 13.3221 11.4875 13.3999 11.5929 13.435C11.6982 13.4702 11.8136 13.4595 11.9108 13.4055L12.7309 12.9507C13.0029 12.7997 13.3428 12.8656 13.539 13.107C13.7523 13.3697 13.7239 13.7545 13.4744 13.9832L12.0067 15.3281C11.9026 15.4235 11.8571 15.5668 11.8869 15.7047C12.1284 16.8198 14.1061 25.8977 14.9713 28.2139C14.9774 28.2426 14.9859 28.271 14.9987 28.2987C15.0039 28.3098 15.0102 28.3198 15.0162 28.3303C15.077 28.4829 15.1317 28.5988 15.1787 28.6693C15.4941 29.1426 15.9512 29.495 16.3934 29.8359C16.9962 30.3008 17.5658 30.7397 17.8615 31.479C18.091 32.0528 17.9209 32.9713 17.724 34.0347C17.4886 35.3059 17.2217 36.7467 17.5248 38.1762C17.8882 39.8907 18.7433 40.9687 19.4978 41.9198C19.9148 42.4454 20.3086 42.942 20.5587 43.4804C20.8013 44.0028 20.9503 44.5933 21.1081 45.2186C21.4041 46.3919 21.7398 47.7219 22.8034 48.917C23.9358 50.1892 26.0693 50.6264 27.7837 50.9778C28.5596 51.137 29.2925 51.2871 29.7658 51.4834C30.5604 51.8127 31.2124 52.3859 31.6195 52.8085C32.0976 53.3051 32.7931 53.535 33.479 53.4224C33.9549 53.3445 34.6067 53.3102 35.0103 53.5893C35.6028 53.9994 35.6048 55.7948 35.0155 58.2752Z" fill="#181818"/>
</svg>
